{"glyphs":{"0":{"ha":828,"x_min":88,"x_max":742,"o":"m 175 856 q 219 924 175 856 q 414 992 263 992 q 653 856 565 992 q 740 486 740 721 q 653 116 740 251 q 414 -19 565 -19 q 175 116 263 -19 q 88 486 88 251 q 175 856 88 721 m 582 826 q 551 888 582 826 q 414 950 521 950 q 246 826 307 950 q 185 486 185 701 q 246 147 185 271 q 414 22 307 22 q 582 147 521 22 q 643 486 643 271 q 582 826 643 701 z "},"1":{"ha":478,"x_min":83,"x_max":396,"o":"m 365 14 l 394 14 l 394 0 l 93 0 l 94 14 l 124 14 q 177 36 154 14 q 200 89 200 58 l 200 821 q 136 889 200 889 l 83 889 l 83 903 q 193 929 149 911 q 275 992 238 947 l 289 992 l 289 89 q 311 35 289 57 q 365 14 333 14 z "},"2":{"ha":768,"x_min":82,"x_max":721,"o":"m 351 992 q 573 918 490 992 q 656 717 656 844 q 617 556 656 638 q 531 413 574 467 q 460 325 488 358 q 396 253 432 292 q 334 189 360 215 q 274 128 308 163 q 224 78 240 94 l 543 78 q 635 103 603 78 q 706 196 668 128 l 719 196 l 653 0 l 83 0 l 83 14 q 376 336 231 150 q 502 535 453 435 q 551 711 551 636 q 499 887 551 824 q 356 950 446 950 q 197 896 254 950 q 142 744 139 842 l 128 743 l 103 901 q 260 981 157 956 q 351 992 307 992 z "},"3":{"ha":699,"x_min":83,"x_max":603,"o":"m 85 890 q 324 989 172 989 q 503 932 432 989 q 575 786 575 875 q 515 628 575 697 q 385 551 456 558 q 538 470 474 536 q 601 312 601 404 q 560 149 601 219 q 282 -42 472 0 q 180 -53 229 -53 q 83 -44 131 -53 l 86 -31 q 100 -31 93 -31 q 292 10 201 -31 q 440 128 383 50 q 497 313 497 207 q 419 476 497 418 q 213 533 342 533 l 215 547 q 217 547 215 547 q 392 608 314 547 q 449 681 429 638 q 469 772 469 725 q 425 898 469 849 q 297 947 381 947 q 167 898 213 947 q 122 775 122 849 q 122 761 122 768 l 108 761 l 85 890 z "},"4":{"ha":810,"x_min":56,"x_max":728,"o":"m 578 346 l 578 88 q 600 35 578 57 q 654 14 622 14 l 669 14 l 669 0 l 394 0 l 396 14 l 410 14 q 464 35 442 14 q 488 86 486 56 l 488 346 l 56 346 l 56 360 l 564 992 l 578 992 l 578 422 l 638 422 q 687 428 674 422 q 714 450 700 433 l 728 450 l 699 346 l 578 346 m 488 422 l 488 828 l 160 422 l 488 422 z "},"5":{"ha":692,"x_min":68,"x_max":589,"o":"m 150 626 q 291 643 228 643 q 408 624 354 643 q 588 368 588 560 q 562 227 588 290 q 499 123 536 164 q 414 49 461 82 q 318 -3 367 15 q 136 -46 194 -46 q 69 -43 103 -46 l 72 -29 q 90 -29 74 -29 q 144 -19 106 -29 q 226 9 182 -10 q 315 60 271 28 q 394 132 358 92 q 483 363 483 229 q 435 497 483 440 q 253 567 375 567 q 92 540 181 567 l 79 546 l 188 922 l 463 943 q 572 1013 538 943 l 586 1013 l 540 867 l 214 846 l 150 626 z "},"6":{"ha":778,"x_min":89,"x_max":703,"o":"m 411 510 q 257 438 311 510 l 249 450 q 349 531 292 501 q 464 561 406 561 q 574 536 522 561 q 661 450 625 511 q 701 271 701 376 q 624 74 701 165 q 405 -21 544 -21 q 178 84 265 -21 q 90 367 90 189 q 142 663 90 518 q 296 900 192 801 q 557 1019 401 1001 l 563 1010 q 394 917 465 979 q 279 768 322 854 q 194 378 194 601 q 250 118 194 215 q 404 21 306 21 q 550 95 503 21 q 597 272 597 169 q 511 481 597 424 q 411 510 469 510 z "},"7":{"ha":697,"x_min":49,"x_max":643,"o":"m 167 896 q 103 876 126 896 q 63 813 79 856 l 49 813 l 88 969 l 643 969 l 493 569 q 391 278 451 457 q 307 0 331 100 q 210 0 307 0 q 436 575 367 394 l 558 896 l 167 896 z "},"8":{"ha":767,"x_min":82,"x_max":685,"o":"m 683 243 q 601 53 683 126 q 383 -19 519 -19 q 165 53 246 -19 q 83 238 83 126 q 135 398 83 333 q 283 508 186 463 q 133 760 133 617 q 201 925 133 860 q 383 992 271 992 q 565 929 496 992 q 633 757 633 867 q 589 610 633 674 q 463 518 544 547 q 636 393 589 456 q 683 243 683 328 m 238 778 q 381 560 238 642 l 411 543 q 529 768 529 631 q 490 901 529 851 q 383 950 451 950 q 276 899 315 950 q 238 778 238 849 m 188 233 q 240 80 188 138 q 385 22 292 22 q 529 81 479 22 q 579 224 579 140 q 567 298 579 274 q 547 336 556 322 q 523 363 538 350 q 497 385 508 376 q 467 405 486 394 q 438 422 449 415 q 406 438 426 428 q 325 482 357 463 q 188 233 188 389 z "},"9":{"ha":778,"x_min":76,"x_max":688,"o":"m 583 558 q 583 655 583 558 q 529 850 583 753 q 375 947 475 947 q 228 875 275 947 q 182 695 182 803 q 231 523 182 588 q 374 458 281 458 q 522 531 467 458 l 529 518 q 432 438 489 467 q 318 410 375 410 q 114 522 178 410 q 78 682 78 588 q 158 901 78 817 q 380 989 242 989 q 603 884 518 989 q 688 589 688 779 q 638 307 688 447 q 485 65 589 167 q 221 -51 378 -37 l 217 -42 q 383 47 311 -15 q 499 194 456 108 q 583 558 583 363 z "}," ":{"ha":347,"x_min":0,"x_max":0,"o":""},"!":{"ha":319,"x_min":96,"x_max":222,"o":"m 194 560 l 165 236 l 151 236 l 124 560 l 107 975 l 211 975 l 194 560 m 204 13 q 195 3 204 13 q 160 -6 186 -6 q 115 13 133 -6 q 97 57 97 31 q 115 101 97 83 q 160 119 133 119 q 204 101 186 119 q 222 57 222 83 q 204 13 222 31 z "},"\"":{"ha":438,"x_min":69,"x_max":369,"o":"m 69 701 q 94 874 94 819 q 92 972 94 929 l 189 992 q 189 963 189 985 q 181 890 189 940 q 148 778 174 839 q 82 694 122 717 l 69 701 m 250 701 q 275 874 275 819 q 272 972 275 929 l 369 992 q 369 963 369 985 q 362 890 369 940 q 328 778 354 839 q 263 694 303 717 l 250 701 z "},"#":{"ha":744,"x_min":26,"x_max":717,"o":"m 717 649 l 560 649 l 507 343 l 656 343 l 656 301 l 499 301 l 446 0 l 401 0 l 454 301 l 221 301 l 168 0 l 124 0 l 176 301 l 28 301 l 28 343 l 185 343 l 238 649 l 89 649 l 89 690 l 246 690 l 294 972 l 339 972 l 290 690 l 524 690 l 572 972 l 617 972 l 568 690 l 717 690 l 717 649 m 463 343 l 515 649 l 282 649 l 229 343 l 463 343 z "},"$":{"ha":651,"x_min":75,"x_max":576,"o":"m 82 57 q 76 132 76 76 q 97 250 76 188 l 110 250 q 108 221 108 235 q 147 92 108 146 q 264 25 186 38 l 299 471 l 175 585 q 100 758 100 654 q 131 876 100 822 q 216 960 161 929 q 338 992 271 992 l 346 1094 l 388 1093 l 381 990 q 465 978 425 986 l 518 978 l 518 807 l 506 807 q 444 924 506 885 q 376 947 415 942 l 347 558 l 507 410 q 576 253 576 346 q 544 101 576 160 q 303 -19 478 -18 l 293 -142 l 251 -137 l 261 -15 q 82 57 138 -1 m 335 949 q 224 899 269 946 q 178 783 178 853 q 235 663 178 714 l 307 594 l 335 949 m 310 22 q 442 77 389 25 q 496 208 496 129 q 442 338 496 288 l 338 435 l 306 22 l 310 22 z "},"%":{"ha":950,"x_min":61,"x_max":890,"o":"m 432 917 q 454 828 454 874 q 363 567 454 661 q 214 501 299 501 q 89 567 129 501 q 61 661 61 611 q 151 924 61 831 q 301 992 214 989 q 352 985 326 992 q 432 946 378 978 q 530 913 493 913 q 598 923 567 913 q 673 958 629 933 q 721 985 717 983 l 751 972 l 233 -15 l 199 0 l 693 939 q 673 928 688 936 q 651 917 658 921 q 628 906 644 914 q 605 897 613 899 q 580 890 597 894 q 552 886 563 885 q 522 886 542 888 q 432 917 485 889 m 374 746 q 382 833 382 793 q 371 906 382 874 q 296 964 350 964 q 176 863 222 964 q 133 663 133 769 q 144 588 133 618 q 219 529 165 529 q 315 588 274 529 q 374 746 356 646 m 588 404 q 738 471 653 471 q 863 404 822 471 q 890 311 890 360 q 800 47 890 140 q 650 -19 735 -19 q 525 47 565 -19 q 497 140 497 92 q 588 404 497 311 m 810 225 q 818 313 818 272 q 807 385 818 354 q 732 443 786 443 q 637 385 678 443 q 578 225 596 326 q 569 138 569 179 q 581 67 569 97 q 656 8 601 8 q 751 67 710 8 q 810 225 792 125 z "},"&":{"ha":897,"x_min":40,"x_max":1024,"o":"m 871 521 q 830 506 842 521 q 818 478 818 492 q 824 435 818 465 q 831 354 831 404 q 779 154 831 244 q 858 88 829 111 q 935 41 888 65 q 1022 14 982 17 l 1022 0 q 999 0 1021 0 q 969 0 978 0 q 935 1 960 0 q 896 6 911 3 q 856 15 881 10 q 811 31 831 21 q 724 82 761 53 q 467 -14 625 -14 q 153 71 264 -14 q 42 311 42 156 q 210 568 42 483 q 157 754 157 653 q 232 924 157 857 q 436 992 310 992 q 571 965 507 992 q 672 893 635 938 l 647 736 l 633 736 q 579 893 633 836 q 441 950 525 950 q 305 894 357 950 q 253 756 253 839 q 304 599 253 672 q 506 392 356 525 q 725 200 656 258 q 754 332 754 264 q 724 460 754 400 q 636 521 694 521 l 615 521 l 615 535 l 892 535 l 892 521 l 871 521 m 676 122 q 232 535 321 415 q 143 317 143 451 q 228 106 143 183 q 467 28 314 28 q 676 122 594 28 z "},"'":{"ha":236,"x_min":49,"x_max":168,"o":"m 49 701 q 74 874 74 819 q 71 972 74 929 l 168 992 q 168 963 168 985 q 160 890 168 940 q 127 778 153 839 q 61 694 101 717 l 49 701 z "},"(":{"ha":469,"x_min":124,"x_max":429,"o":"m 222 469 q 222 372 222 469 q 284 102 222 275 q 426 -126 346 -71 l 418 -139 q 213 94 299 -76 q 125 466 125 269 q 211 818 125 663 q 421 1017 297 974 l 429 1006 q 282 814 342 964 q 222 469 222 664 z "},")":{"ha":469,"x_min":40,"x_max":346,"o":"m 249 469 q 249 567 249 469 q 188 814 249 664 q 42 1006 128 964 l 50 1017 q 260 818 174 974 q 346 472 346 663 q 258 97 346 269 q 53 -139 171 -76 l 44 -126 q 185 99 125 -71 q 249 469 249 275 z "},"*":{"ha":536,"x_min":50,"x_max":488,"o":"m 483 865 l 344 839 l 278 840 l 332 804 l 431 701 l 404 658 l 356 647 l 288 771 l 269 835 l 250 771 l 183 647 l 135 658 l 108 700 l 206 804 l 260 840 l 194 839 l 54 865 l 50 914 l 83 951 l 211 892 l 264 851 l 242 914 l 222 1054 l 268 1074 l 314 1054 l 297 914 l 275 851 l 326 892 l 454 953 l 488 915 l 483 865 z "},"+":{"ha":668,"x_min":54,"x_max":614,"o":"m 614 461 l 614 399 l 365 399 l 365 151 l 303 151 l 303 399 l 56 399 l 56 461 l 303 461 l 303 710 l 365 710 l 365 461 l 614 461 z "},",":{"ha":257,"x_min":63,"x_max":196,"o":"m 63 -112 q 113 -78 100 -100 q 126 -44 126 -56 q 99 21 126 -10 q 75 56 78 46 q 78 92 71 75 q 124 119 90 119 q 181 81 165 119 q 196 19 196 43 q 144 -93 196 -53 q 65 -124 110 -122 l 63 -112 z "},"-":{"ha":528,"x_min":47,"x_max":481,"o":"m 47 406 l 56 436 l 472 436 l 481 406 l 472 374 l 56 374 l 47 406 z "},".":{"ha":249,"x_min":63,"x_max":188,"o":"m 169 13 q 160 3 169 13 q 125 -6 151 -6 q 81 13 99 -6 q 63 57 63 31 q 81 101 63 83 q 125 119 99 119 q 169 101 151 119 q 188 57 188 83 q 169 13 188 31 z "},"/":{"ha":564,"x_min":10,"x_max":554,"o":"m 10 7 l 511 992 l 554 967 l 53 -19 l 10 7 z "},":":{"ha":236,"x_min":63,"x_max":188,"o":"m 169 544 q 160 535 169 544 q 125 526 151 526 q 81 544 99 526 q 63 588 63 563 q 81 633 63 614 q 125 651 99 651 q 169 633 151 651 q 188 588 188 614 q 169 544 188 563 m 169 13 q 160 3 169 13 q 125 -6 151 -6 q 81 13 99 -6 q 63 57 63 31 q 81 101 63 83 q 125 119 99 119 q 169 101 151 119 q 188 57 188 83 q 169 13 188 31 z "},";":{"ha":833,"x_min":63,"x_max":196,"o":"m 169 584 q 160 575 169 584 q 125 565 151 565 q 81 584 99 565 q 63 628 63 603 q 81 672 63 654 q 125 690 99 690 q 169 672 151 690 q 188 628 188 654 q 169 584 188 603 m 63 -112 q 113 -78 100 -100 q 126 -44 126 -56 q 99 21 126 -10 q 75 56 78 46 q 78 92 71 75 q 124 119 90 119 q 181 81 165 119 q 196 19 196 43 q 144 -93 196 -53 q 65 -124 110 -122 l 63 -112 z "},"<":{"ha":668,"x_min":56,"x_max":614,"o":"m 614 726 l 614 660 l 138 431 l 614 200 l 614 133 l 56 399 l 56 461 l 614 726 z "},"=":{"ha":668,"x_min":56,"x_max":614,"o":"m 56 506 l 56 568 l 614 568 l 614 506 l 56 506 m 56 263 l 56 325 l 614 325 l 614 263 l 56 263 z "},">":{"ha":668,"x_min":56,"x_max":614,"o":"m 56 726 l 614 461 l 614 399 l 56 133 l 56 200 l 531 431 l 56 660 l 56 726 z "},"?":{"ha":574,"x_min":28,"x_max":506,"o":"m 233 992 q 432 929 360 992 q 504 756 504 867 q 449 601 504 669 q 357 503 403 544 q 258 371 275 428 q 249 309 249 343 q 272 243 249 275 l 264 236 q 203 369 203 293 q 272 513 203 432 q 331 582 301 546 q 400 756 400 667 q 322 926 400 879 q 233 950 285 950 q 103 894 150 950 q 56 744 56 838 q 56 736 56 740 l 42 736 l 28 868 q 113 959 60 926 q 233 992 167 992 m 294 13 q 285 3 294 13 q 251 -6 276 -6 q 206 13 225 -6 q 188 57 188 31 q 206 101 188 83 q 251 119 225 119 q 294 101 276 119 q 313 57 313 83 q 294 13 313 31 z "},"@":{"ha":1357,"x_min":82,"x_max":1275,"o":"m 135 166 q 109 198 135 166 q 82 333 82 231 q 126 549 82 436 q 414 875 217 763 q 750 963 567 963 q 1179 781 1039 963 q 1274 496 1274 657 q 1239 281 1274 382 q 1157 108 1204 181 q 1047 -21 1110 36 q 722 -165 918 -139 q 632 -171 685 -171 q 269 -87 467 -171 l 264 -74 q 578 -136 433 -136 q 708 -122 646 -136 q 1028 69 903 -79 q 1181 429 1154 217 q 1185 510 1185 471 q 1115 758 1185 654 q 768 919 1007 919 q 476 842 611 919 q 217 542 306 742 q 160 306 160 415 q 181 201 160 243 q 267 143 208 143 q 461 292 350 143 q 505 352 476 311 q 542 404 533 393 l 718 644 q 794 751 783 724 l 804 751 l 861 190 q 881 142 865 158 q 918 125 897 125 l 925 125 l 924 115 l 704 115 l 706 125 l 715 125 q 753 140 733 125 q 772 176 772 154 l 764 325 l 536 325 q 393 156 453 208 q 261 101 333 101 q 135 166 189 101 m 747 626 l 558 357 l 763 357 l 747 626 z "},"A":{"ha":989,"x_min":-15,"x_max":1004,"o":"m 993 14 l 1004 14 l 1004 0 l 692 0 l 692 14 l 704 14 q 748 33 733 14 q 763 68 763 51 q 757 101 763 85 l 668 338 l 293 338 l 200 100 q 194 67 194 83 q 209 33 194 51 q 253 14 224 14 l 265 14 l 265 0 l -14 0 l -14 14 l -1 14 q 67 36 33 14 q 121 101 100 58 l 435 849 q 486 992 486 961 l 499 992 l 871 101 q 924 36 890 58 q 993 14 957 14 m 310 379 l 651 379 l 485 825 l 310 379 z "},"B":{"ha":814,"x_min":83,"x_max":746,"o":"m 422 0 l 83 0 l 85 14 l 101 14 q 163 39 138 14 q 190 100 189 64 l 190 872 q 164 933 190 908 q 101 958 138 958 l 85 958 l 83 972 l 360 972 q 582 909 503 972 q 661 740 661 846 q 617 602 661 657 q 508 529 572 547 q 682 439 618 513 q 746 253 746 365 q 660 71 746 142 q 422 0 575 0 m 281 50 l 417 50 q 419 50 418 50 q 583 108 525 50 q 642 271 642 165 q 622 376 642 331 q 571 447 601 421 q 329 514 490 514 q 328 514 329 514 l 328 526 q 341 526 329 526 q 375 529 353 526 q 425 539 397 532 q 475 561 453 546 q 517 597 497 576 q 557 734 557 643 q 505 876 557 825 q 354 928 453 928 l 281 928 l 281 50 z "},"C":{"ha":1056,"x_min":83,"x_max":988,"o":"m 579 -19 q 222 121 360 -18 q 83 487 83 260 q 222 853 83 714 q 588 992 360 992 q 917 897 774 992 l 944 701 l 932 701 q 808 885 901 821 q 588 950 715 950 q 297 824 406 950 q 188 489 188 697 q 295 153 188 281 q 579 22 403 26 q 839 107 735 22 q 975 406 951 199 l 986 406 l 969 188 q 579 -19 843 -19 z "},"D":{"ha":1121,"x_min":82,"x_max":1053,"o":"m 554 972 q 915 838 776 972 q 1053 486 1053 704 q 915 134 1053 268 q 554 0 776 0 l 83 0 l 83 14 l 101 14 q 163 40 138 14 q 190 101 189 65 l 190 879 q 163 935 190 913 q 101 958 136 958 l 85 958 l 83 972 l 554 972 m 281 931 l 281 42 l 554 42 q 760 97 671 42 q 899 253 850 153 q 949 486 949 354 q 840 808 949 686 q 554 931 731 931 l 281 931 z "},"E":{"ha":801,"x_min":83,"x_max":740,"o":"m 101 14 q 163 40 138 14 q 190 101 189 65 l 190 879 q 161 935 186 913 q 101 958 136 958 l 85 958 l 83 972 l 490 972 q 584 981 533 972 q 656 997 635 989 l 656 822 l 642 822 l 642 847 q 619 904 642 881 q 564 929 596 928 l 281 929 l 281 500 l 515 500 q 563 521 543 501 q 582 569 582 540 l 582 589 l 596 589 l 596 369 l 582 369 l 582 390 q 563 438 582 418 q 517 458 544 457 l 281 458 l 281 43 l 479 43 q 636 89 582 43 q 726 225 690 135 l 740 225 l 660 0 l 83 0 l 83 14 l 101 14 z "},"F":{"ha":751,"x_min":82,"x_max":656,"o":"m 656 957 l 656 840 l 642 840 l 642 861 q 622 909 642 889 q 574 929 603 929 l 281 929 l 281 500 l 515 500 q 563 521 543 501 q 582 568 582 540 l 582 589 l 596 589 l 596 369 l 582 369 l 582 390 q 563 438 582 418 q 517 458 544 457 l 281 458 l 281 101 q 307 40 281 65 q 369 14 333 14 l 388 14 l 388 0 l 83 0 l 83 14 l 101 14 q 163 40 138 14 q 190 101 189 65 l 190 879 q 163 935 190 913 q 101 958 136 958 l 85 958 l 83 972 l 490 972 q 584 981 533 972 q 656 997 635 989 l 656 957 z "},"G":{"ha":1108,"x_min":83,"x_max":1075,"o":"m 582 -19 q 222 121 360 -18 q 83 486 83 260 q 222 852 83 713 q 582 992 360 992 q 919 897 774 992 l 947 701 l 935 701 q 812 885 904 821 q 582 950 719 950 q 297 822 406 950 q 188 486 188 694 q 297 151 188 278 q 582 22 406 24 q 753 54 672 22 q 896 143 835 86 l 896 389 q 877 435 896 419 q 825 451 858 451 l 803 451 l 803 465 l 1075 465 l 1075 451 l 1054 451 q 1001 435 1019 451 q 985 389 983 419 l 985 160 q 899 75 949 113 q 765 9 849 38 q 582 -19 681 -19 z "},"H":{"ha":1129,"x_min":82,"x_max":1047,"o":"m 760 14 q 822 39 796 14 q 849 100 847 64 l 849 460 l 281 460 l 281 101 q 307 40 281 65 q 369 14 333 14 l 388 14 l 388 0 l 83 0 l 83 14 l 101 14 q 163 40 138 14 q 190 101 189 65 l 190 872 q 163 933 189 908 q 101 958 138 958 l 83 958 l 83 972 l 388 972 l 388 958 l 369 958 q 308 933 333 958 q 281 872 282 908 l 281 501 l 849 501 l 849 872 q 804 947 847 922 q 760 958 783 958 l 742 958 l 742 972 l 1046 972 l 1046 958 l 1028 958 q 966 933 992 958 q 939 871 940 907 l 939 101 q 966 40 940 65 q 1028 14 992 14 l 1046 14 l 1046 0 l 742 0 l 742 14 l 760 14 z "},"I":{"ha":469,"x_min":82,"x_max":388,"o":"m 101 14 q 163 40 138 14 q 190 101 189 65 l 190 872 q 163 933 189 908 q 101 958 138 958 l 83 958 l 83 972 l 388 972 l 388 958 l 369 958 q 308 933 333 958 q 281 872 282 908 l 281 101 q 307 40 281 65 q 369 14 333 14 l 388 14 l 388 0 l 83 0 l 83 14 l 101 14 z "},"J":{"ha":450,"x_min":28,"x_max":389,"o":"m 369 958 q 293 915 319 958 q 281 871 282 896 l 281 0 q 208 -197 281 -117 q 28 -278 135 -278 l 28 -265 q 143 -163 96 -242 q 190 4 190 -85 l 190 871 q 163 933 189 907 q 101 958 138 958 l 83 958 l 83 972 l 388 972 l 388 958 l 369 958 z "},"K":{"ha":913,"x_min":82,"x_max":928,"o":"m 369 14 l 388 14 l 388 0 l 83 0 l 83 14 l 101 14 q 163 40 138 14 q 190 101 189 65 l 190 872 q 163 933 189 908 q 101 958 138 958 l 83 958 l 83 972 l 388 972 l 388 958 l 369 958 q 308 933 333 958 q 281 872 282 908 l 281 101 q 307 40 281 65 q 369 14 333 14 m 928 0 l 868 0 q 660 79 726 0 l 325 483 l 653 894 q 664 919 664 908 q 660 939 664 931 q 619 960 649 960 l 606 960 l 606 972 l 899 972 l 899 960 l 893 960 q 743 894 801 960 l 417 517 l 796 71 q 928 14 851 15 l 928 0 z "},"L":{"ha":781,"x_min":83,"x_max":740,"o":"m 101 14 q 163 40 138 14 q 190 101 189 65 l 190 871 q 163 933 189 907 q 101 958 138 958 l 83 958 l 83 972 l 388 972 l 388 958 l 369 958 q 293 915 319 958 q 281 871 281 894 l 281 43 l 479 43 q 636 89 582 43 q 726 225 690 135 l 740 225 l 660 0 l 83 0 l 83 14 l 101 14 z "},"M":{"ha":1293,"x_min":21,"x_max":1274,"o":"m 1250 14 l 1272 14 l 1272 0 l 971 0 l 971 13 l 992 13 q 1032 31 1015 13 q 1046 72 1049 50 l 983 771 l 692 122 q 644 -19 653 38 l 631 -19 l 275 751 l 215 72 q 229 31 213 50 q 268 13 246 13 l 290 13 l 290 0 l 21 0 l 21 14 l 43 14 q 110 38 82 14 q 144 101 139 61 l 249 992 l 263 992 l 650 154 l 1029 992 l 1042 992 l 1149 101 q 1204 24 1156 46 q 1250 14 1225 14 z "},"N":{"ha":1168,"x_min":61,"x_max":1107,"o":"m 1081 958 q 1021 934 1046 958 q 994 875 996 910 l 994 158 q 1004 6 994 78 l 1007 -19 l 994 -19 l 238 789 l 238 97 q 281 25 239 49 q 322 14 300 14 l 349 14 l 349 0 l 63 0 l 63 14 l 89 14 q 149 38 124 14 q 174 99 174 63 l 174 819 q 164 971 174 904 l 161 993 l 175 993 l 932 185 l 932 874 q 906 934 931 910 q 846 958 881 958 l 819 958 l 819 972 l 1106 972 l 1106 958 l 1081 958 z "},"O":{"ha":1164,"x_min":97,"x_max":1096,"o":"m 235 852 q 305 922 235 852 q 596 992 374 992 q 957 852 818 992 q 1096 486 1096 713 q 957 120 1096 260 q 596 -19 818 -19 q 235 120 374 -19 q 97 486 97 260 q 235 852 97 713 m 312 150 q 366 86 312 150 q 597 22 419 22 q 881 150 774 22 q 989 486 989 278 q 940 729 989 624 q 802 892 892 835 q 596 950 713 950 q 312 822 419 950 q 204 486 204 694 q 312 150 204 278 z "},"P":{"ha":801,"x_min":82,"x_max":733,"o":"m 732 704 q 707 590 732 643 q 546 453 661 492 q 476 439 506 439 q 328 471 390 439 l 328 485 q 515 507 429 463 q 619 635 592 546 q 628 688 628 663 q 628 718 628 713 q 576 873 625 815 q 440 931 528 931 l 281 931 l 281 101 q 308 40 282 65 q 369 14 333 14 l 388 14 l 388 0 l 83 0 l 83 14 l 101 14 q 163 40 138 14 q 190 101 189 65 l 190 878 q 161 935 186 913 q 101 958 136 958 l 85 958 l 83 972 l 446 972 q 656 901 579 972 q 732 704 732 829 z "},"Q":{"ha":1163,"x_min":83,"x_max":1844,"o":"m 1799 -190 q 1781 -208 1799 -190 q 1700 -262 1764 -226 q 1571 -315 1636 -297 q 1456 -332 1506 -332 q 1150 -269 1294 -332 q 976 -185 1099 -247 q 567 -19 703 -44 q 217 125 351 -14 q 83 488 83 264 q 222 852 83 713 q 582 992 360 992 q 942 852 804 992 q 1079 486 1079 713 q 976 161 1079 293 q 701 -7 874 29 q 1161 -185 853 -53 q 1461 -246 1308 -246 q 1635 -225 1547 -246 q 1839 -117 1757 -193 l 1844 -124 q 1799 -190 1833 -153 m 582 950 q 296 822 404 950 q 188 486 188 694 q 297 150 188 278 q 583 22 406 22 q 867 150 760 22 q 975 486 975 278 q 926 729 975 624 q 788 892 878 835 q 582 950 699 950 z "},"R":{"ha":940,"x_min":83,"x_max":956,"o":"m 369 929 l 281 929 l 281 101 q 306 40 281 65 q 369 14 332 14 l 386 14 l 388 0 l 83 0 l 83 14 l 101 14 q 163 39 138 14 q 190 100 189 64 l 190 871 q 163 933 189 907 q 101 958 138 958 l 83 958 l 83 972 l 458 972 q 657 902 585 972 q 729 720 729 832 q 660 527 729 608 q 493 446 592 446 q 542 408 514 436 q 593 349 571 379 q 749 138 713 178 q 800 84 785 99 q 833 56 815 69 q 869 33 851 42 q 956 14 910 14 l 956 0 l 879 0 q 768 22 819 0 q 691 66 717 43 q 647 110 665 89 q 543 254 628 132 q 444 394 458 376 q 415 428 431 411 q 326 475 371 475 l 326 489 q 356 488 338 488 q 400 489 374 488 q 617 633 572 493 q 625 685 625 661 q 625 717 625 710 q 576 867 622 810 q 453 928 531 924 q 369 929 419 929 z "},"S":{"ha":660,"x_min":79,"x_max":582,"o":"m 85 57 q 81 132 81 76 q 101 250 81 188 l 114 250 q 113 219 113 235 q 164 78 113 135 q 300 22 215 22 q 444 75 388 22 q 500 208 500 128 q 446 338 500 288 l 179 585 q 104 753 104 654 q 170 922 104 851 q 349 992 236 992 q 468 978 401 992 l 522 978 l 522 807 l 510 807 q 465 911 510 872 q 349 950 419 950 q 230 903 278 950 q 182 785 182 856 q 238 663 182 714 l 511 410 q 581 235 581 346 q 510 52 581 124 q 321 -19 439 -19 q 191 -1 260 -19 q 85 57 122 18 z "},"T":{"ha":858,"x_min":28,"x_max":832,"o":"m 818 849 q 794 906 818 882 q 739 932 771 931 l 475 932 l 475 100 q 502 39 476 64 q 564 14 528 14 l 582 14 l 582 0 l 278 0 l 278 14 l 296 14 q 358 39 332 14 q 385 99 383 64 l 385 932 l 121 932 q 65 906 88 931 q 42 849 42 882 l 42 825 l 28 824 l 28 999 q 100 982 49 990 q 194 974 151 974 l 664 974 q 777 984 732 974 q 832 999 822 994 l 832 824 l 818 825 l 818 849 z "},"U":{"ha":1090,"x_min":68,"x_max":1022,"o":"m 1021 958 l 999 958 q 948 940 969 958 q 925 893 926 921 l 925 343 q 822 81 925 181 q 549 -19 719 -19 q 272 80 378 -19 q 165 342 165 179 l 165 889 q 129 950 165 931 q 92 958 113 958 l 69 958 l 69 972 l 351 972 l 351 958 l 329 958 q 278 940 299 958 q 256 892 257 921 l 256 361 q 337 117 256 210 q 554 24 418 24 q 775 112 690 24 q 860 343 860 200 l 860 892 q 838 940 858 921 q 786 958 817 958 l 764 958 l 764 972 l 1021 972 l 1021 958 z "},"V":{"ha":1028,"x_min":-15,"x_max":1043,"o":"m 1042 958 l 1029 958 q 943 921 982 958 q 908 872 921 901 l 574 124 q 522 -19 522 11 l 510 -19 l 119 871 q 66 937 100 915 q -3 958 32 958 l -14 958 l -14 972 l 299 972 l 299 958 l 286 958 q 231 919 244 958 q 228 900 228 911 q 235 872 228 889 l 525 144 l 828 872 q 833 905 833 889 q 819 940 833 921 q 775 958 804 958 l 763 958 l 763 972 l 1042 972 l 1042 958 z "},"W":{"ha":1364,"x_min":-14,"x_max":1379,"o":"m 1378 958 l 1367 958 q 1276 921 1315 958 q 1244 872 1254 901 l 1014 138 q 983 -17 986 50 l 971 -17 l 688 778 l 476 138 q 447 -17 450 51 l 435 -17 l 119 874 q 68 937 103 915 q -3 958 33 958 l -14 958 l -14 972 l 294 972 l 294 958 l 282 958 q 238 940 253 958 q 224 904 224 921 q 228 874 224 888 l 439 197 l 697 994 l 710 993 l 983 225 l 1169 875 q 1174 906 1174 890 q 1160 940 1174 922 q 1117 958 1146 958 l 1104 958 l 1104 972 l 1378 972 l 1378 958 z "},"X":{"ha":919,"x_min":-14,"x_max":935,"o":"m 915 14 l 935 14 l 935 0 l 596 0 l 596 14 l 613 14 q 660 42 643 14 q 669 71 669 57 q 663 99 669 85 l 449 436 l 235 100 q 226 72 226 86 q 236 43 226 57 q 283 14 254 14 l 301 14 l 301 0 l -14 0 l -14 14 l 6 14 q 85 38 47 14 q 147 96 122 61 l 413 492 l 169 876 q 85 947 136 925 q 29 958 57 958 l 10 958 l 10 972 l 346 972 l 346 958 l 329 958 q 282 931 300 958 q 272 901 272 915 q 279 874 272 888 l 471 574 l 660 872 q 668 901 668 886 q 660 929 668 915 q 613 958 643 958 l 596 958 l 596 972 l 908 972 l 908 958 l 889 958 q 810 935 847 958 q 749 876 774 911 l 506 518 l 775 94 q 860 25 808 47 q 915 14 888 14 z "},"Y":{"ha":918,"x_min":-14,"x_max":933,"o":"m 933 958 l 914 958 q 835 935 872 958 q 774 878 799 913 l 500 433 l 500 101 q 526 40 500 65 q 589 14 551 14 l 606 14 l 606 0 l 303 0 l 303 14 l 321 14 q 383 39 357 14 q 410 100 408 64 l 410 435 l 144 878 q 85 935 124 911 q 6 958 47 958 l -14 958 l -14 972 l 328 972 l 328 958 l 310 958 q 263 931 279 958 q 254 901 254 915 q 261 872 254 886 l 469 483 l 692 874 q 699 901 699 888 q 689 931 699 915 q 642 958 672 958 l 625 958 l 625 972 l 933 972 l 933 958 z "},"Z":{"ha":904,"x_min":82,"x_max":857,"o":"m 811 0 l 83 0 l 83 13 l 667 932 l 199 932 q 140 907 164 931 q 117 849 117 883 l 117 824 l 103 824 l 103 999 q 176 982 124 990 q 251 974 229 974 q 272 974 272 974 l 658 974 q 763 981 726 974 q 806 992 799 989 l 806 979 l 211 42 l 653 42 q 774 89 726 42 q 843 214 821 136 l 857 214 l 811 0 z "},"[":{"ha":461,"x_min":167,"x_max":407,"o":"m 167 -125 l 167 1003 l 401 1003 l 401 989 l 257 961 l 257 -83 l 406 -111 l 406 -125 l 167 -125 z "},"\\":{"ha":564,"x_min":10,"x_max":554,"o":"m 10 967 l 53 992 l 554 7 l 511 -19 l 10 967 z "},"]":{"ha":461,"x_min":54,"x_max":296,"o":"m 60 1003 l 294 1003 l 294 -125 l 56 -125 l 56 -111 l 204 -83 l 204 961 l 60 989 l 60 1003 z "},"^":{"ha":726,"x_min":49,"x_max":678,"o":"m 322 515 l 406 515 l 678 253 l 590 253 l 364 467 l 136 253 l 49 253 l 322 515 z "},"_":{"ha":694,"x_min":0,"x_max":694,"o":"m 0 -125 l 0 -83 l 694 -83 l 694 -125 l 0 -125 z "},"`":{"ha":610,"x_min":99,"x_max":333,"o":"m 333 1046 l 324 1036 q 100 1154 211 1089 q 157 1228 119 1193 q 333 1046 244 1143 z "},"a":{"ha":921,"x_min":-7,"x_max":929,"o":"m 917 14 l 928 14 l 928 0 l 643 0 l 643 14 l 654 14 q 694 32 681 14 q 708 66 708 50 q 703 97 708 82 l 626 282 l 275 282 l 199 101 q 192 67 192 83 q 206 33 192 51 q 247 14 219 14 l 258 14 l 258 0 l -7 0 l -7 14 l 4 14 q 63 34 33 14 q 113 94 93 54 q 429 775 417 744 q 454 853 453 833 l 467 853 l 810 94 q 917 14 850 14 m 293 324 l 610 324 l 454 704 l 293 324 z "},"b":{"ha":792,"x_min":75,"x_max":731,"o":"m 628 718 q 649 621 649 678 q 603 516 649 564 q 496 453 557 468 q 663 379 597 442 q 729 242 729 317 q 701 121 729 168 q 625 49 672 74 q 421 0 535 0 l 76 0 l 76 14 l 93 14 q 151 35 128 14 q 176 89 175 57 l 176 744 q 135 810 175 790 q 93 819 117 819 l 76 819 l 76 833 l 360 833 q 628 718 567 833 m 631 233 q 307 440 631 440 l 307 454 q 551 625 551 454 q 358 792 551 792 l 264 792 l 264 42 l 419 42 q 572 90 514 42 q 631 233 631 138 z "},"c":{"ha":979,"x_min":68,"x_max":925,"o":"m 528 -19 q 192 99 315 -18 q 69 417 69 215 q 192 736 69 619 q 528 853 315 853 q 701 831 614 853 q 853 769 789 808 l 883 572 l 871 572 q 526 811 811 811 q 265 706 361 811 q 169 417 169 600 q 213 209 169 297 q 338 72 256 121 q 528 24 419 24 q 717 56 636 24 q 852 164 799 89 q 913 350 906 239 l 925 350 l 910 160 q 753 28 856 76 q 528 -19 650 -19 z "},"d":{"ha":1056,"x_min":75,"x_max":988,"o":"m 986 417 q 866 112 986 224 q 540 0 746 0 l 76 0 l 76 14 l 94 14 q 150 36 128 14 q 174 89 172 58 l 174 744 q 149 799 172 778 q 93 819 126 819 l 76 819 l 76 833 l 540 833 q 777 783 676 833 q 932 639 878 733 q 986 417 986 544 m 264 792 l 264 42 l 540 42 q 793 142 700 42 q 886 417 886 243 q 793 691 886 590 q 540 792 700 792 l 264 792 z "},"e":{"ha":758,"x_min":76,"x_max":718,"o":"m 96 14 q 152 35 129 14 q 176 88 175 57 l 176 747 q 153 799 176 778 q 96 819 129 819 l 76 819 l 76 833 l 482 833 q 582 842 539 833 q 638 856 625 850 l 638 697 l 622 699 l 622 719 q 603 769 622 749 q 553 790 583 790 l 264 790 l 264 438 l 501 438 q 544 454 529 438 q 558 496 558 471 l 558 514 l 574 514 l 574 319 l 558 319 l 558 338 q 529 390 558 376 q 506 396 518 394 l 264 396 l 264 43 l 482 43 q 590 65 546 43 q 656 118 633 88 q 703 199 679 149 l 717 199 l 640 0 l 76 0 l 76 14 l 96 14 z "},"f":{"ha":726,"x_min":76,"x_max":644,"o":"m 628 719 q 588 785 628 767 q 558 790 574 790 l 265 790 l 265 438 l 507 438 q 549 454 535 438 q 563 496 563 471 l 563 514 l 579 514 l 579 319 l 563 319 l 563 338 q 540 386 563 371 q 510 396 528 394 l 265 396 l 265 89 q 299 28 267 51 q 347 14 319 14 l 367 14 l 367 0 l 76 0 l 76 14 l 96 14 q 153 35 129 14 q 178 88 176 57 l 178 747 q 138 810 176 790 q 96 819 118 819 l 76 819 l 76 833 l 265 833 l 486 833 q 575 840 526 833 q 643 856 624 847 l 643 697 l 628 699 l 628 719 z "},"g":{"ha":1031,"x_min":69,"x_max":1004,"o":"m 525 -19 q 194 99 318 -18 q 69 417 69 217 q 194 735 69 618 q 515 853 318 853 q 849 769 711 853 l 879 572 l 867 572 q 753 753 838 694 q 516 811 669 811 q 266 705 363 811 q 169 417 169 599 q 267 128 169 235 q 535 22 364 22 q 831 143 707 22 l 832 328 q 816 367 833 353 q 768 382 799 382 l 749 382 l 749 396 l 1003 396 l 1003 382 l 983 382 q 921 326 921 382 l 921 160 q 760 34 863 88 q 525 -19 658 -19 z "},"h":{"ha":1036,"x_min":75,"x_max":961,"o":"m 694 14 q 750 35 726 14 q 775 88 774 57 l 775 390 l 263 390 l 263 88 q 288 35 264 57 q 343 14 311 14 l 360 14 l 360 0 l 76 0 l 76 14 l 93 14 q 149 36 126 14 q 174 89 172 58 l 174 744 q 149 797 172 775 q 93 819 125 819 l 76 819 l 76 833 l 360 833 l 360 819 l 343 819 q 288 798 311 819 q 263 746 264 776 l 263 432 l 775 432 l 775 744 q 757 792 775 775 q 694 819 728 819 l 678 819 l 678 833 l 961 833 l 961 819 l 944 819 q 889 799 913 819 q 864 747 865 778 l 864 88 q 882 42 865 57 q 944 14 913 14 l 961 14 l 961 0 l 678 0 l 678 14 l 694 14 z "},"i":{"ha":467,"x_min":75,"x_max":392,"o":"m 96 14 q 161 36 133 14 q 189 89 189 58 l 189 744 q 161 797 189 775 q 94 819 133 819 l 76 819 l 76 833 l 390 833 l 390 819 l 372 819 q 308 799 335 819 q 278 747 281 778 l 278 88 q 307 35 279 57 q 372 14 335 14 l 390 14 l 392 0 l 76 0 l 76 14 l 96 14 z "},"j":{"ha":429,"x_min":17,"x_max":382,"o":"m 363 819 q 285 782 311 819 q 272 744 274 765 l 272 0 q 197 -174 272 -101 q 18 -247 121 -247 l 18 -233 q 135 -144 86 -212 q 183 0 183 -76 l 183 750 q 155 799 181 779 q 93 819 129 819 l 76 819 l 75 833 l 381 833 l 381 819 l 363 819 z "},"k":{"ha":867,"x_min":76,"x_max":875,"o":"m 874 0 l 822 0 q 618 79 686 0 l 313 414 l 611 765 q 616 802 626 785 q 581 819 606 819 l 568 819 l 568 833 l 851 833 l 851 819 l 846 819 q 711 769 761 819 l 408 446 l 753 71 q 804 28 778 40 q 874 14 831 15 l 874 0 m 346 14 l 361 14 l 361 0 l 76 0 l 76 14 l 93 14 q 150 36 126 14 q 175 89 174 58 l 175 744 q 150 797 174 775 q 93 819 126 819 l 76 819 l 76 833 l 361 833 l 361 819 l 344 819 q 275 783 300 819 q 264 746 264 767 l 264 88 q 288 35 264 57 q 346 14 313 14 z "},"l":{"ha":744,"x_min":76,"x_max":718,"o":"m 96 14 q 152 35 129 14 q 176 88 175 57 l 176 744 q 151 797 175 775 q 93 819 126 819 l 76 819 l 76 833 l 364 833 l 364 819 l 347 819 q 290 797 314 819 q 265 744 265 775 l 265 43 l 482 43 q 590 65 546 43 q 658 118 635 88 q 703 199 681 149 l 717 199 l 640 0 l 76 0 l 76 14 l 96 14 z "},"m":{"ha":1219,"x_min":10,"x_max":1210,"o":"m 1189 14 l 1210 14 l 1210 0 l 921 0 l 921 13 l 942 13 q 978 28 963 13 q 992 67 994 44 l 919 639 l 657 122 q 608 -19 618 38 l 594 -19 l 260 626 l 197 67 q 210 29 194 46 q 249 13 226 13 l 268 13 l 268 0 l 11 0 l 11 14 l 32 14 q 110 50 82 14 q 126 93 124 68 l 235 853 l 249 853 l 615 147 l 969 853 l 982 853 l 1094 90 q 1126 35 1100 56 q 1189 14 1153 14 z "},"n":{"ha":1082,"x_min":49,"x_max":1035,"o":"m 1010 819 q 957 799 979 819 q 933 750 935 779 l 933 158 q 943 6 933 78 l 946 -19 l 933 -19 l 211 665 l 211 86 q 233 35 211 56 q 288 14 256 14 l 311 14 l 311 0 l 49 0 l 49 14 l 72 14 q 126 35 104 14 q 149 86 149 56 l 149 681 q 139 832 149 765 l 136 854 l 151 853 l 872 174 l 872 750 q 847 799 869 779 q 794 819 825 819 l 771 819 l 771 833 l 1033 833 l 1033 819 l 1010 819 z "},"o":{"ha":1075,"x_min":69,"x_max":1007,"o":"m 303 798 q 356 825 303 798 q 538 853 410 853 q 774 798 667 853 q 944 643 881 743 q 1007 417 1007 543 q 944 190 1007 290 q 774 35 881 90 q 554 -19 667 -19 q 356 13 442 -19 q 206 101 269 44 q 106 240 143 158 q 69 433 69 322 q 133 643 69 543 q 303 798 196 743 m 277 133 q 330 77 277 133 q 538 22 382 22 q 799 133 693 22 q 904 417 904 243 q 799 701 904 590 q 538 811 693 811 q 277 701 382 811 q 172 417 172 590 q 277 133 172 243 z "},"p":{"ha":768,"x_min":75,"x_max":718,"o":"m 318 394 q 376 386 350 386 q 419 388 403 386 q 467 397 436 389 q 522 421 497 404 q 608 535 581 457 q 618 610 618 563 q 560 743 618 694 q 399 792 501 792 l 264 792 l 264 89 q 304 24 265 44 q 344 14 322 14 l 364 14 l 364 0 l 76 0 l 76 14 l 96 14 q 152 35 129 14 q 176 88 175 57 l 176 746 q 152 799 175 778 q 96 819 129 819 l 76 819 l 76 833 l 401 833 q 633 769 547 833 q 718 597 718 706 q 682 461 718 519 q 463 347 611 347 q 318 381 389 347 l 318 394 z "},"q":{"ha":1079,"x_min":68,"x_max":1660,"o":"m 1324 -212 q 1654 -103 1535 -212 l 1658 -108 q 1617 -165 1649 -133 q 1531 -231 1586 -197 q 1294 -294 1418 -294 q 1044 -242 1168 -294 q 892 -168 993 -221 q 535 -19 650 -42 q 203 103 336 -19 q 69 417 69 225 q 106 593 69 511 q 203 732 142 675 q 350 821 265 789 q 545 853 435 853 q 760 798 656 853 q 926 643 865 743 q 988 417 988 543 q 891 141 988 256 q 640 -7 794 26 q 1053 -158 760 -42 q 1324 -212 1188 -212 m 274 701 q 223 645 274 701 q 172 417 172 590 q 274 133 172 243 q 528 22 376 22 q 783 133 681 22 q 886 417 886 243 q 783 701 886 590 q 528 811 681 811 q 274 701 376 811 z "},"r":{"ha":871,"x_min":76,"x_max":893,"o":"m 336 790 l 263 790 l 263 89 q 301 24 264 46 q 342 14 319 14 l 360 14 l 361 0 l 76 0 l 76 14 l 96 14 q 151 35 128 14 q 174 88 174 57 l 174 747 q 151 799 174 778 q 96 819 128 819 l 76 819 l 76 833 l 425 833 q 631 774 556 833 q 707 617 707 714 q 646 454 707 519 q 490 379 585 389 q 597 271 535 360 q 645 210 596 271 q 724 115 694 149 q 774 63 754 81 q 892 14 825 14 l 892 0 l 849 0 q 676 43 739 0 q 590 122 629 75 q 520 220 582 133 q 454 313 458 307 q 314 406 379 406 l 314 419 q 510 436 476 419 q 572 486 556 460 q 607 608 607 542 q 557 739 607 693 q 422 789 507 785 q 336 790 385 790 z "},"s":{"ha":642,"x_min":75,"x_max":567,"o":"m 81 46 q 76 114 76 63 q 94 218 76 165 l 111 218 q 110 193 110 206 q 159 70 110 118 q 296 22 208 22 q 439 65 388 22 q 490 174 490 107 q 440 286 490 242 l 163 500 q 96 653 96 557 q 126 753 96 707 q 209 826 156 799 q 335 853 263 853 q 463 840 407 853 l 508 840 l 511 689 l 496 689 q 456 779 496 747 q 340 811 415 811 q 217 773 265 811 q 168 674 168 735 q 222 569 168 614 l 503 353 q 567 206 567 300 q 495 46 567 111 q 321 -19 424 -19 q 185 -3 253 -19 q 81 46 117 14 z "},"t":{"ha":803,"x_min":19,"x_max":783,"o":"m 447 793 l 447 88 q 489 24 449 44 q 529 14 507 14 l 544 14 l 544 0 l 258 0 l 258 14 l 275 14 q 332 36 308 14 q 357 89 356 58 l 357 793 l 106 793 q 55 772 74 793 q 36 722 36 751 l 36 700 l 21 700 l 21 857 q 99 840 49 846 q 175 835 150 835 l 628 835 q 783 857 728 835 l 783 700 l 768 700 l 768 722 q 749 772 768 751 q 699 793 729 793 l 447 793 z "},"u":{"ha":972,"x_min":54,"x_max":925,"o":"m 924 819 l 903 819 q 846 790 865 819 q 836 761 838 778 l 836 293 q 744 65 836 149 q 490 -19 651 -19 q 236 64 329 -19 q 143 292 143 147 l 143 760 q 124 802 143 785 q 76 819 104 819 l 56 819 l 56 833 l 319 833 l 319 819 l 299 819 q 251 802 271 819 q 232 760 232 785 l 232 308 q 301 96 232 174 q 495 18 369 18 q 697 92 621 18 q 772 293 772 165 l 772 760 q 752 803 771 786 q 706 819 733 819 l 685 819 l 685 833 l 924 833 l 924 819 z "},"v":{"ha":921,"x_min":-8,"x_max":929,"o":"m 928 819 l 917 819 q 857 799 886 819 q 807 739 828 779 q 492 58 504 89 q 467 -19 468 0 l 454 -19 l 111 738 q 4 819 71 819 l -7 819 l -7 833 l 278 833 l 278 819 l 267 819 q 227 801 240 819 q 214 767 214 782 q 218 735 214 751 l 467 129 l 722 732 q 729 766 729 750 q 715 801 729 782 q 674 819 701 819 l 664 819 l 664 833 l 928 833 l 928 819 z "},"w":{"ha":1249,"x_min":-11,"x_max":1257,"o":"m 1256 819 l 1246 819 q 1132 738 1163 819 l 931 138 q 899 -17 900 50 l 885 -17 l 626 644 l 446 138 q 415 -17 418 51 l 403 -17 l 111 743 q 0 819 79 819 l -11 819 l -11 833 l 275 833 l 275 819 l 264 819 q 226 804 239 819 q 213 774 213 789 q 217 744 213 758 l 401 179 l 636 856 l 650 854 l 899 221 l 1054 736 q 1061 771 1061 756 q 1050 803 1061 786 q 1013 819 1039 819 l 1001 819 l 1001 833 l 1256 833 l 1256 819 z "},"x":{"ha":869,"x_min":-17,"x_max":885,"o":"m 885 0 l 556 0 l 556 14 l 572 14 q 613 33 600 14 q 626 63 626 51 q 619 88 626 75 l 428 363 l 225 89 q 215 64 215 76 q 228 33 215 51 q 271 14 242 14 l 288 14 l 288 0 l -15 0 l -15 14 l 3 14 q 135 82 78 14 l 393 413 l 158 750 q 101 799 138 779 q 25 819 64 819 l 7 819 l 7 833 l 333 833 l 333 819 l 317 819 q 276 801 289 819 q 263 770 263 782 q 271 746 263 758 l 447 493 l 615 746 q 624 769 624 757 q 610 801 624 782 q 569 819 597 819 l 553 819 l 553 833 l 861 833 l 861 819 l 842 819 q 767 799 803 819 q 708 749 732 779 l 485 438 l 733 82 q 802 28 764 42 q 867 14 840 14 l 885 14 l 885 0 z "},"y":{"ha":889,"x_min":-7,"x_max":897,"o":"m 896 819 l 879 819 q 808 799 842 819 q 751 749 774 779 l 485 344 l 485 89 q 508 36 485 58 q 565 14 532 14 l 582 14 l 582 0 l 297 0 l 297 14 l 314 14 q 371 36 347 14 q 394 89 394 58 l 394 346 l 138 750 q 10 819 90 819 l -7 819 l -7 833 l 315 833 l 315 819 l 299 819 q 260 803 272 819 q 249 774 249 786 q 251 753 249 763 l 454 393 l 669 751 q 674 774 674 763 q 662 803 674 786 q 622 819 650 819 l 606 819 l 606 833 l 896 833 l 896 819 z "},"z":{"ha":844,"x_min":69,"x_max":811,"o":"m 106 722 l 106 700 l 90 700 l 90 857 q 156 842 108 849 q 246 835 204 836 l 565 835 q 658 840 608 835 q 722 853 708 846 l 722 840 l 194 42 l 575 42 q 683 65 639 43 q 751 117 728 86 q 796 199 774 147 l 810 199 l 735 0 l 69 0 l 69 13 l 588 793 l 174 793 q 114 757 132 792 q 106 722 106 740 z "},"{":{"ha":468,"x_min":117,"x_max":414,"o":"m 267 292 l 263 168 q 284 -12 263 43 q 336 -91 306 -67 q 414 -128 367 -115 l 411 -139 q 232 -56 292 -139 q 172 165 172 28 q 179 258 172 200 q 192 372 192 357 q 188 406 192 386 q 118 436 176 431 l 118 450 q 192 472 181 451 q 194 503 194 489 q 192 540 194 518 q 172 714 172 672 q 232 935 172 851 q 411 1018 292 1018 l 414 1007 q 290 906 319 982 q 263 710 263 836 l 265 589 q 257 503 265 526 q 196 439 238 451 q 264 335 257 425 q 267 292 267 311 z "},"|":{"ha":340,"x_min":139,"x_max":201,"o":"m 139 -250 l 139 972 l 201 972 l 201 -250 l 139 -250 z "},"}":{"ha":468,"x_min":54,"x_max":351,"o":"m 203 589 l 206 710 q 185 891 206 836 q 133 970 164 946 q 56 1007 103 994 l 58 1018 q 193 976 139 1018 q 296 714 296 900 q 286 603 296 661 q 278 472 267 489 q 351 450 288 451 l 351 436 q 281 406 292 431 q 278 372 278 386 q 287 278 278 357 q 296 165 296 200 q 237 -56 296 28 q 58 -139 178 -139 l 56 -128 q 179 -28 149 -104 q 206 168 206 43 l 203 292 q 211 378 203 353 q 274 439 231 429 q 206 543 214 457 q 203 589 203 569 z "},"~":{"ha":685,"x_min":50,"x_max":638,"o":"m 636 435 q 604 346 636 381 q 481 297 558 297 q 361 344 431 297 q 304 385 332 364 q 192 435 232 435 q 133 408 151 435 q 114 354 114 382 q 118 304 114 326 l 56 304 q 51 351 51 329 q 82 446 51 410 q 197 497 125 497 q 347 429 258 497 q 485 360 440 360 q 557 394 529 360 q 575 440 575 415 q 567 490 575 465 l 629 490 q 636 435 636 460 z "},"¡":{"ha":319,"x_min":97,"x_max":222,"o":"m 115 962 q 124 971 115 962 q 160 981 133 981 q 204 962 186 981 q 222 917 222 943 q 204 874 222 892 q 160 856 186 856 q 115 874 133 856 q 97 917 97 892 q 115 962 97 943 m 125 415 l 154 735 l 168 735 l 196 415 l 213 0 l 108 0 l 125 415 z "},"¢":{"ha":836,"x_min":68,"x_max":782,"o":"m 407 107 q 160 222 251 122 q 69 489 69 321 q 176 757 69 657 q 467 857 283 857 l 476 974 l 518 972 l 510 854 q 724 785 635 842 l 749 615 l 739 615 q 506 814 696 794 l 451 146 q 676 214 590 146 q 771 422 763 282 l 782 422 l 771 258 q 642 144 725 185 q 447 104 558 104 l 438 -12 l 397 -8 l 407 107 m 174 481 q 282 203 174 290 q 410 150 335 161 l 464 815 q 249 728 325 815 q 174 481 174 640 z "},"£":{"ha":801,"x_min":69,"x_max":761,"o":"m 468 64 q 747 221 668 64 l 761 221 l 697 33 q 481 -14 593 -14 q 276 24 407 -14 q 181 38 229 38 q 94 0 132 38 l 81 0 l 81 14 q 180 178 139 61 q 222 457 221 294 l 69 457 l 86 507 l 221 507 q 219 565 219 538 q 500 992 219 965 q 543 993 513 993 q 620 972 574 993 q 697 913 667 951 l 660 786 l 646 786 q 649 822 649 804 q 613 917 649 883 q 519 951 578 951 q 419 926 458 951 q 360 863 381 900 q 317 599 317 781 q 318 507 317 556 l 574 507 l 556 457 l 318 457 q 269 196 317 281 q 226 129 244 151 q 174 75 208 107 q 266 85 217 89 q 335 78 315 81 q 468 64 432 64 z "},"¤":{"ha":751,"x_min":69,"x_max":683,"o":"m 569 268 q 375 193 486 193 q 181 265 264 193 l 99 183 l 69 214 l 151 294 q 78 490 78 378 q 153 685 78 601 l 69 768 l 99 797 l 182 714 q 375 785 265 785 q 568 713 485 785 l 653 797 l 683 768 l 597 683 q 669 490 669 600 q 599 297 669 379 l 683 214 l 653 183 l 569 268 m 194 309 q 232 272 194 309 q 374 235 269 235 q 553 309 479 235 q 628 489 628 383 q 553 669 628 594 q 374 743 479 743 q 194 669 269 743 q 119 489 119 594 q 194 309 119 383 z "},"¥":{"ha":918,"x_min":-14,"x_max":933,"o":"m 933 958 l 914 958 q 835 935 872 958 q 774 878 799 913 l 588 576 l 764 576 l 764 535 l 563 535 l 500 433 l 500 410 l 764 410 l 764 368 l 500 368 l 500 100 q 526 39 500 64 q 589 14 553 14 l 606 14 l 606 0 l 303 0 l 303 14 l 321 14 q 383 40 357 14 q 410 101 408 65 l 410 368 l 146 368 l 146 410 l 410 410 l 410 435 l 350 535 l 146 535 l 146 576 l 325 576 l 144 878 q 85 935 124 911 q 6 958 47 958 l -14 958 l -14 972 l 328 972 l 328 958 l 310 958 q 263 931 279 958 q 254 901 254 915 q 261 872 254 886 l 469 483 l 692 874 q 699 901 699 888 q 689 931 699 915 q 642 958 672 958 l 625 958 l 625 972 l 933 972 l 933 958 z "},"¦":{"ha":340,"x_min":139,"x_max":201,"o":"m 139 486 l 139 972 l 201 972 l 201 486 l 139 486 m 139 -250 l 139 236 l 201 236 l 201 -250 l 139 -250 z "},"§":{"ha":710,"x_min":89,"x_max":622,"o":"m 561 940 q 585 896 585 915 q 567 853 585 867 q 527 850 549 839 q 482 881 506 861 q 363 936 421 936 q 288 905 332 936 q 243 829 243 874 q 467 510 243 735 q 621 167 621 354 q 558 -47 621 54 q 421 -181 506 -135 q 281 -214 358 -214 q 161 -168 204 -214 q 138 -124 138 -143 q 160 -75 138 -92 q 177 -69 167 -69 q 211 -84 188 -69 q 264 -125 235 -99 q 349 -161 307 -161 q 426 -136 390 -161 q 475 -50 475 -103 q 249 274 475 56 q 123 449 156 363 q 90 601 90 536 q 150 808 90 703 q 257 926 193 881 q 431 988 343 988 q 561 940 519 988 m 193 810 q 144 638 144 718 q 311 344 144 496 q 522 21 522 153 q 515 -21 522 0 q 565 136 565 57 q 401 440 565 283 q 203 703 235 601 q 192 767 192 739 q 193 810 192 794 z "},"¨":{"ha":833,"x_min":204,"x_max":575,"o":"m 297 988 q 289 980 297 988 q 258 972 281 972 q 220 988 236 972 q 204 1026 204 1004 q 220 1065 204 1049 q 258 1081 236 1081 q 297 1065 281 1081 q 313 1026 313 1049 q 297 988 313 1004 m 559 988 q 551 980 559 988 q 520 972 543 972 q 482 988 497 972 q 467 1026 467 1004 q 482 1065 467 1049 q 520 1081 497 1081 q 559 1065 543 1081 q 575 1026 575 1049 q 559 988 575 1004 z "},"©":{"ha":1178,"x_min":83,"x_max":1094,"o":"m 231 844 q 305 918 231 844 q 589 992 379 992 q 947 844 799 992 q 1094 486 1094 696 q 947 128 1094 276 q 589 -19 799 -19 q 231 128 379 -19 q 83 486 83 276 q 231 844 83 696 m 817 880 q 765 910 817 880 q 589 940 713 940 q 360 880 465 940 q 195 715 256 819 q 135 486 135 610 q 195 258 135 363 q 360 92 256 153 q 589 32 465 32 q 817 92 713 32 q 983 258 922 153 q 1043 486 1043 363 q 983 715 1043 610 q 817 880 922 819 m 597 176 q 370 265 461 176 q 279 487 279 354 q 370 708 279 619 q 592 796 461 796 q 817 736 724 796 l 836 597 l 828 597 q 748 716 810 672 q 593 760 686 760 q 435 681 500 760 q 371 487 371 603 q 435 293 371 371 q 585 214 500 215 q 724 235 669 213 q 815 308 779 257 q 856 439 850 360 l 864 439 l 854 304 q 749 210 818 244 q 597 176 681 176 z "},"ª":{"ha":511,"x_min":0,"x_max":513,"o":"m 506 532 l 511 532 l 511 525 l 340 525 l 340 532 l 347 532 q 376 556 368 532 q 374 583 379 567 l 338 675 l 167 675 l 126 582 q 128 546 118 560 q 153 532 138 532 l 158 532 l 158 525 l 0 525 l 0 532 l 6 532 q 67 581 43 532 l 222 910 q 251 992 250 971 l 258 992 l 446 583 q 506 532 471 532 m 181 708 l 325 708 l 256 886 l 181 708 z "},"«":{"ha":629,"x_min":56,"x_max":547,"o":"m 299 681 l 310 674 l 146 406 l 311 132 l 299 125 l 56 406 l 299 681 m 535 681 l 546 674 l 382 406 l 547 132 l 535 125 l 292 406 l 535 681 z "},"¬":{"ha":835,"x_min":56,"x_max":781,"o":"m 56 551 l 781 551 l 781 271 l 718 271 l 718 489 l 56 489 l 56 551 z "},"­":{"ha":528,"x_min":47,"x_max":481,"o":"m 47 406 l 56 436 l 472 436 l 481 406 l 472 374 l 56 374 l 47 406 z "},"®":{"ha":340,"x_min":14,"x_max":328,"o":"m 60 928 q 83 951 60 928 q 171 974 106 974 q 282 928 236 974 q 328 817 328 882 q 282 706 328 751 q 171 660 236 660 q 60 706 106 660 q 14 817 14 751 q 60 928 14 882 m 79 726 q 98 707 79 726 q 170 688 117 688 q 262 726 224 688 q 300 817 300 764 q 262 908 300 869 q 170 946 224 946 q 79 908 117 946 q 42 817 42 869 q 79 726 42 764 m 175 906 q 217 893 201 906 q 233 862 233 881 q 222 830 233 843 q 193 814 211 817 q 217 792 204 813 q 240 758 231 771 q 261 742 249 746 l 261 739 l 244 739 q 206 750 217 739 q 190 767 194 761 q 179 785 186 772 q 156 819 161 819 l 156 822 l 169 822 q 197 860 197 828 q 163 892 196 892 q 163 892 163 892 l 146 893 l 146 757 q 160 742 146 742 l 164 742 l 164 739 l 94 739 l 94 742 l 97 742 q 113 756 111 742 l 113 888 q 97 903 111 903 l 94 903 l 94 906 l 146 906 l 175 906 z "},"¯":{"ha":833,"x_min":236,"x_max":585,"o":"m 236 976 l 236 1025 l 583 1025 l 583 976 l 236 976 z "},"°":{"ha":357,"x_min":42,"x_max":317,"o":"m 82 883 q 102 902 82 883 q 178 922 122 922 q 275 883 235 922 q 315 786 315 843 q 275 689 315 729 q 178 649 235 649 q 82 689 122 649 q 42 786 42 729 q 82 883 42 843 m 237 844 q 225 856 237 844 q 178 868 213 868 q 120 844 144 868 q 96 786 96 821 q 120 728 96 751 q 178 704 144 704 q 237 728 213 704 q 261 786 261 751 q 237 844 261 821 z "},"±":{"ha":668,"x_min":56,"x_max":614,"o":"m 365 558 l 614 558 l 614 496 l 365 496 l 365 249 l 303 249 l 303 496 l 56 496 l 56 558 l 303 558 l 303 807 l 365 807 l 365 558 m 56 83 l 56 146 l 614 146 l 614 83 l 56 83 z "},"²":{"ha":521,"x_min":42,"x_max":467,"o":"m 56 931 q 126 975 82 958 q 220 992 169 992 q 317 971 271 992 q 392 911 364 950 q 419 826 419 872 q 401 737 419 779 q 362 664 383 694 q 300 597 340 633 q 206 521 250 553 q 157 486 163 489 l 349 486 q 421 511 396 486 q 457 564 438 529 l 465 564 l 422 428 l 42 428 l 42 438 q 113 499 58 453 q 197 576 167 546 q 267 649 228 606 q 343 810 343 736 q 308 920 343 883 q 217 957 272 957 q 118 922 157 957 q 81 826 79 886 l 71 826 l 56 931 z "},"³":{"ha":431,"x_min":40,"x_max":378,"o":"m 56 938 q 181 989 99 989 q 310 954 263 989 q 358 870 358 919 q 322 785 358 821 q 239 739 285 749 q 336 697 294 732 q 378 610 378 661 q 281 429 378 488 q 129 389 215 389 q 42 397 88 389 l 43 407 q 56 407 50 407 q 233 458 163 407 q 304 607 304 510 q 124 726 304 726 l 125 735 q 240 769 194 735 q 286 855 286 804 q 258 931 286 906 q 182 956 231 956 q 81 858 81 956 q 81 851 81 854 l 71 851 l 56 938 z "},"´":{"ha":610,"x_min":278,"x_max":513,"o":"m 289 1036 l 279 1046 q 456 1228 385 1160 q 513 1154 492 1190 q 289 1036 422 1103 z "},"¶":{"ha":722,"x_min":68,"x_max":710,"o":"m 544 931 l 544 204 q 531 76 544 122 q 478 -18 518 31 l 465 -7 q 501 118 500 51 q 503 201 503 139 l 503 931 l 388 931 l 388 0 q 360 -185 388 -129 q 268 -276 329 -244 l 258 -264 q 329 -159 315 -206 q 343 -65 343 -112 q 342 0 343 -18 l 342 463 q 147 532 224 463 q 69 717 69 601 q 148 902 69 832 q 342 972 226 972 l 567 972 q 576 972 567 972 q 589 972 586 972 q 601 973 592 972 q 615 976 610 974 q 630 980 621 978 q 647 987 639 982 q 663 997 654 992 q 699 1032 679 1008 l 708 1024 q 563 931 668 933 l 544 931 z "},"·":{"ha":236,"x_min":56,"x_max":181,"o":"m 163 442 q 153 433 163 442 q 118 424 144 424 q 74 442 92 424 q 56 486 56 460 q 74 531 56 513 q 118 549 92 549 q 163 531 144 549 q 181 486 181 513 q 163 442 181 460 z "},"¸":{"ha":833,"x_min":340,"x_max":538,"o":"m 392 -67 q 469 -61 435 -51 q 538 -146 538 -79 q 476 -242 538 -212 q 406 -258 440 -258 q 342 -249 372 -258 l 343 -235 q 431 -214 393 -235 q 468 -150 468 -193 q 397 -89 468 -89 q 351 -100 374 -89 l 344 -86 l 411 1 l 449 1 l 392 -67 z "},"¹":{"ha":293,"x_min":54,"x_max":267,"o":"m 265 438 l 265 428 l 63 428 l 63 438 l 82 438 q 118 452 103 438 q 133 488 133 467 l 133 878 q 90 924 133 924 l 56 924 l 56 932 q 131 951 100 939 q 186 992 161 963 l 194 992 l 194 486 q 210 452 194 467 q 246 438 225 438 l 265 438 z "},"º":{"ha":572,"x_min":42,"x_max":532,"o":"m 113 922 q 149 957 113 922 q 286 992 185 992 q 460 922 388 992 q 532 753 532 853 q 460 583 532 653 q 286 514 388 514 q 113 583 185 514 q 42 753 42 653 q 113 922 42 853 m 166 603 q 190 573 166 603 q 287 543 214 543 q 408 603 360 543 q 456 753 456 663 q 408 903 456 843 q 287 963 360 963 q 166 903 214 963 q 118 753 118 843 q 166 603 118 663 z "},"»":{"ha":629,"x_min":83,"x_max":575,"o":"m 96 125 l 83 132 l 249 406 l 85 674 l 96 681 l 339 406 l 96 125 m 332 125 l 319 132 l 485 406 l 321 674 l 332 681 l 575 406 l 332 125 z "},"¼":{"ha":990,"x_min":82,"x_max":958,"o":"m 803 992 l 836 968 l 174 -19 l 139 3 l 803 992 m 293 428 l 90 428 l 90 438 l 110 438 q 146 452 131 438 q 161 488 161 467 l 161 878 q 118 924 161 924 l 83 924 l 83 932 q 158 951 128 939 q 214 992 189 963 l 224 992 l 224 486 q 238 452 224 467 q 274 438 253 438 l 293 438 l 293 428 m 857 181 l 857 57 q 873 23 858 38 q 908 8 888 8 l 918 8 l 918 -1 l 735 -1 l 735 8 l 744 8 q 780 22 765 8 q 796 56 794 35 l 796 181 l 543 181 l 543 189 l 849 563 l 857 563 l 857 226 l 897 226 q 930 231 921 226 q 949 246 939 235 l 957 246 l 938 181 l 857 181 m 796 226 l 796 449 l 618 226 l 796 226 z "},"½":{"ha":1118,"x_min":82,"x_max":1064,"o":"m 801 992 l 835 968 l 172 -19 l 138 3 l 801 992 m 293 438 l 293 428 l 90 428 l 90 438 l 110 438 q 146 452 131 438 q 161 488 161 467 l 161 878 q 118 924 161 924 l 83 924 l 83 932 q 132 942 113 936 q 214 992 182 954 l 222 992 l 222 486 q 238 452 222 467 q 274 438 253 438 l 293 438 m 810 564 q 957 517 897 564 q 1017 394 1017 469 q 835 117 1017 254 q 785 80 811 99 q 754 58 760 61 l 946 58 q 1006 74 985 58 q 1054 136 1028 90 l 1063 136 l 1019 0 l 639 0 l 639 10 q 698 62 657 26 q 766 122 739 97 q 829 183 793 146 q 888 251 865 221 q 940 391 940 326 q 905 492 940 456 q 814 529 869 529 q 715 494 754 529 q 678 399 676 458 l 668 399 l 651 503 q 723 547 679 531 q 810 564 767 564 z "},"¾":{"ha":990,"x_min":40,"x_max":965,"o":"m 863 992 l 896 968 l 233 -19 l 199 3 l 863 992 m 56 938 q 181 989 99 989 q 310 954 263 989 q 358 870 358 919 q 322 785 358 821 q 239 739 285 749 q 357 672 317 729 q 378 610 378 644 q 281 429 378 488 q 129 389 215 389 q 42 397 88 389 l 43 407 q 76 407 49 407 q 149 419 104 407 q 229 454 193 431 q 304 607 304 507 q 124 726 304 726 l 125 735 q 240 769 194 735 q 286 855 286 804 q 258 931 286 906 q 182 956 231 956 q 81 858 81 956 q 81 851 81 854 l 71 851 l 56 938 m 864 181 l 864 57 q 879 23 864 38 q 915 8 894 8 l 925 8 l 925 -1 l 742 -1 l 742 8 l 751 8 q 787 22 772 8 q 803 56 801 35 l 803 181 l 550 181 l 550 189 l 856 563 l 864 563 l 864 226 l 904 226 q 937 231 928 226 q 954 246 946 235 l 964 246 l 944 181 l 864 181 m 803 226 l 803 449 l 625 226 l 803 226 z "},"¿":{"ha":601,"x_min":68,"x_max":547,"o":"m 279 960 q 288 969 279 960 q 324 978 297 978 q 368 960 350 978 q 386 915 386 942 q 368 871 386 889 q 324 853 350 853 q 279 871 297 853 q 261 915 261 889 q 279 960 261 942 m 546 104 q 332 -19 479 -19 q 196 8 257 -19 q 69 217 69 67 q 125 371 69 303 q 217 469 172 428 q 315 601 299 544 q 326 663 326 629 q 301 729 326 697 l 310 736 q 372 603 372 679 q 301 460 372 540 q 243 390 272 426 q 174 215 174 306 q 218 74 174 125 q 344 22 263 22 q 472 78 425 22 q 518 228 518 135 q 518 236 518 232 l 532 236 l 546 104 z "},"À":{"ha":989,"x_min":-15,"x_max":1004,"o":"m 506 1071 l 496 1061 q 272 1179 383 1114 q 329 1253 292 1218 q 506 1071 417 1168 m 993 14 l 1004 14 l 1004 0 l 692 0 l 692 14 l 704 14 q 748 33 733 14 q 763 68 763 51 q 757 101 763 85 l 668 338 l 293 338 l 200 100 q 228 19 181 42 q 253 14 240 14 l 265 14 l 265 0 l -14 0 l -14 14 l -1 14 q 67 36 33 14 q 121 101 100 58 l 435 849 q 486 992 486 961 l 499 992 l 871 101 q 949 22 897 43 q 993 14 969 14 m 310 379 l 651 379 l 485 825 l 310 379 z "},"Á":{"ha":989,"x_min":-14,"x_max":1004,"o":"m 496 1061 l 486 1071 q 663 1253 592 1185 q 718 1179 699 1215 q 496 1061 629 1128 m 993 14 l 1004 14 l 1004 0 l 692 0 l 692 14 l 704 14 q 748 33 733 14 q 763 68 763 51 q 757 101 763 85 l 668 338 l 293 338 l 200 100 q 194 67 194 83 q 209 33 194 51 q 253 14 224 14 l 265 14 l 265 0 l -14 0 l -14 14 l -1 14 q 67 36 33 14 q 121 101 100 58 l 435 849 q 486 992 486 961 l 499 992 l 871 101 q 924 36 890 58 q 993 14 957 14 m 310 379 l 651 379 l 485 825 l 310 379 z "},"Â":{"ha":989,"x_min":-14,"x_max":1004,"o":"m 488 1236 l 501 1236 l 661 1071 l 653 1060 l 494 1151 l 349 1060 l 340 1071 l 488 1236 m 993 14 l 1004 14 l 1004 0 l 692 0 l 692 14 l 704 14 q 748 33 733 14 q 763 68 763 51 q 757 101 763 85 l 668 338 l 293 338 l 200 100 q 194 67 194 83 q 209 33 194 51 q 253 14 224 14 l 265 14 l 265 0 l -14 0 l -14 14 l -1 14 q 67 36 33 14 q 121 101 100 58 l 435 849 q 486 992 486 961 l 499 992 l 871 101 q 924 36 890 58 q 993 14 957 14 m 310 379 l 651 379 l 485 825 l 310 379 z "},"Ã":{"ha":989,"x_min":-15,"x_max":1004,"o":"m 593 1124 q 669 1171 650 1124 l 683 1171 q 636 1074 676 1101 q 589 1061 617 1061 q 503 1092 561 1061 q 425 1122 446 1122 q 350 1065 374 1122 l 336 1065 q 368 1151 344 1119 q 425 1183 392 1183 q 515 1153 458 1183 q 593 1124 571 1124 m 993 14 l 1004 14 l 1004 0 l 692 0 l 692 14 l 704 14 q 748 33 733 14 q 763 68 763 51 q 757 101 763 85 l 668 338 l 293 338 l 200 100 q 194 67 194 83 q 209 33 194 51 q 253 14 224 14 l 265 14 l 265 0 l -14 0 l -14 14 l -1 14 q 67 36 33 14 q 121 101 100 58 l 435 849 q 486 992 486 961 l 499 992 l 871 101 q 924 36 890 58 q 993 14 957 14 m 310 379 l 651 379 l 485 825 l 310 379 z "},"Ä":{"ha":989,"x_min":-15,"x_max":1004,"o":"m 403 1077 q 395 1069 403 1077 q 365 1061 388 1061 q 326 1077 342 1061 q 310 1115 310 1093 q 326 1153 310 1138 q 365 1169 342 1169 q 403 1153 388 1169 q 419 1115 419 1138 q 403 1077 419 1093 m 665 1077 q 657 1069 665 1077 q 626 1061 649 1061 q 588 1077 604 1061 q 572 1115 572 1093 q 588 1153 572 1138 q 626 1169 604 1169 q 665 1153 649 1169 q 681 1115 681 1138 q 665 1077 681 1093 m 993 14 l 1004 14 l 1004 0 l 692 0 l 692 14 l 704 14 q 748 33 733 14 q 763 68 763 51 q 757 101 763 85 l 668 338 l 293 338 l 200 100 q 194 67 194 83 q 209 33 194 51 q 253 14 224 14 l 265 14 l 265 0 l -14 0 l -14 14 l -1 14 q 67 36 33 14 q 121 101 100 58 l 435 849 q 486 992 486 961 l 499 992 l 871 101 q 924 36 890 58 q 993 14 957 14 m 310 379 l 651 379 l 485 825 l 310 379 z "},"Å":{"ha":989,"x_min":-14,"x_max":1004,"o":"m 993 14 l 1004 14 l 1004 0 l 692 0 l 692 14 l 704 14 q 748 33 733 14 q 763 68 763 51 q 757 101 763 85 l 668 338 l 293 338 l 200 100 q 228 19 181 42 q 253 14 240 14 l 265 14 l 265 0 l -14 0 l -14 14 l -1 14 q 67 36 33 14 q 121 101 100 58 l 435 849 q 483 975 474 932 q 407 1003 438 978 q 376 1069 376 1029 q 410 1136 376 1110 q 494 1163 443 1163 q 579 1138 546 1163 q 613 1072 613 1113 q 583 1004 613 1031 q 507 975 553 978 l 871 101 q 924 36 890 58 q 993 14 957 14 m 449 1122 q 441 1113 449 1122 q 432 1069 432 1103 q 449 1015 432 1035 q 494 996 467 996 q 538 1015 521 996 q 556 1069 556 1035 q 538 1122 556 1103 q 494 1142 521 1142 q 449 1122 467 1142 m 310 379 l 651 379 l 485 825 l 310 379 z "},"Æ":{"ha":1253,"x_min":-15,"x_max":1192,"o":"m 1114 0 l 564 0 l 565 14 l 578 14 q 626 33 606 14 q 647 81 646 53 l 647 444 l 419 444 l 211 93 q 201 62 201 75 q 206 38 201 49 q 244 14 217 14 q 249 14 247 14 l 263 14 l 263 0 l -14 0 l -14 14 l -4 14 q 66 40 29 14 q 124 99 103 65 l 643 910 q 642 943 651 928 q 614 958 633 958 l 608 958 l 608 972 l 946 972 q 1040 981 989 972 q 1111 997 1092 989 l 1111 840 l 1097 840 l 1097 861 q 1078 909 1097 889 q 1031 929 1058 929 l 738 929 l 738 486 l 972 486 q 1019 507 1000 488 q 1039 556 1039 526 l 1039 575 l 1053 575 l 1053 356 l 1039 356 l 1039 376 q 1019 424 1039 404 q 974 444 1000 443 l 738 444 l 738 43 l 965 43 q 1178 193 1115 44 l 1192 193 l 1114 0 m 647 486 l 647 831 l 443 486 l 647 486 z "},"Ç":{"ha":1056,"x_min":83,"x_max":988,"o":"m 547 -79 q 625 -74 590 -64 q 693 -158 693 -92 q 632 -254 693 -225 q 563 -271 597 -271 q 497 -261 529 -271 l 499 -247 q 586 -226 549 -247 q 624 -162 624 -206 q 553 -101 624 -101 q 507 -112 531 -101 l 500 -99 l 561 -19 q 216 126 349 -12 q 83 489 83 264 q 222 853 83 714 q 588 992 360 992 q 917 897 774 992 l 944 701 l 932 701 q 808 885 901 821 q 588 950 715 950 q 297 824 406 950 q 188 489 188 697 q 295 153 188 281 q 579 22 403 26 q 839 107 735 22 q 975 406 951 199 l 986 406 l 969 188 q 600 -19 849 -11 l 547 -79 z "},"È":{"ha":801,"x_min":83,"x_max":740,"o":"m 424 1071 l 414 1061 q 190 1179 303 1114 q 247 1253 211 1218 q 424 1071 336 1168 m 101 14 q 163 40 138 14 q 190 101 189 65 l 190 879 q 161 935 186 913 q 101 958 136 958 l 85 958 l 83 972 l 490 972 q 597 982 550 972 q 656 997 643 992 l 656 822 l 642 822 l 642 847 q 619 904 642 881 q 564 929 596 928 l 281 929 l 281 500 l 515 500 q 563 521 543 501 q 582 569 582 540 l 582 589 l 596 589 l 596 369 l 582 369 l 582 390 q 563 438 582 418 q 517 458 544 457 l 281 458 l 281 43 l 479 43 q 636 89 582 43 q 726 225 690 135 l 740 225 l 660 0 l 83 0 l 83 14 l 101 14 z "},"É":{"ha":801,"x_min":83,"x_max":740,"o":"m 414 1061 l 404 1071 q 581 1253 510 1185 q 638 1179 618 1215 q 414 1061 549 1128 m 101 14 q 163 40 138 14 q 190 101 189 65 l 190 879 q 161 935 186 913 q 101 958 136 958 l 85 958 l 83 972 l 490 972 q 597 982 550 972 q 656 997 643 992 l 656 822 l 642 822 l 642 847 q 619 904 642 881 q 564 929 596 928 l 281 929 l 281 500 l 515 500 q 563 521 543 501 q 582 569 582 540 l 582 589 l 596 589 l 596 369 l 582 369 l 582 390 q 563 438 582 418 q 517 458 544 457 l 281 458 l 281 43 l 479 43 q 636 89 582 43 q 726 225 690 135 l 740 225 l 660 0 l 83 0 l 83 14 l 101 14 z "},"Ê":{"ha":801,"x_min":83,"x_max":740,"o":"m 407 1236 l 421 1236 l 579 1071 l 571 1060 l 414 1151 l 268 1060 l 260 1071 l 407 1236 m 101 14 q 163 40 138 14 q 190 101 189 65 l 190 879 q 144 949 185 925 q 101 958 125 958 l 85 958 l 83 972 l 490 972 q 597 982 550 972 q 656 997 643 992 l 656 822 l 642 822 l 642 847 q 619 904 642 881 q 564 929 596 928 l 281 929 l 281 500 l 515 500 q 563 521 543 501 q 582 569 582 540 l 582 589 l 596 589 l 596 369 l 582 369 l 582 390 q 563 438 582 418 q 517 458 544 457 l 281 458 l 281 43 l 479 43 q 636 89 582 43 q 726 225 690 135 l 740 225 l 660 0 l 83 0 l 83 14 l 101 14 z "},"Ë":{"ha":801,"x_min":83,"x_max":740,"o":"m 322 1077 q 314 1069 322 1077 q 283 1061 306 1061 q 245 1077 261 1061 q 229 1115 229 1093 q 245 1153 229 1138 q 283 1169 261 1169 q 322 1153 306 1169 q 338 1115 338 1138 q 322 1077 338 1093 m 584 1077 q 576 1069 584 1077 q 545 1061 568 1061 q 506 1077 522 1061 q 490 1115 490 1093 q 506 1153 490 1138 q 545 1169 522 1169 q 584 1153 568 1169 q 600 1115 600 1138 q 584 1077 600 1093 m 101 14 q 163 40 138 14 q 190 101 189 65 l 190 879 q 144 949 185 925 q 101 958 124 958 l 85 958 l 83 972 l 490 972 q 597 982 550 972 q 656 997 643 992 l 656 822 l 642 822 l 642 847 q 619 904 642 881 q 564 929 596 928 l 281 929 l 281 500 l 515 500 q 563 521 543 501 q 582 569 582 540 l 582 589 l 596 589 l 596 369 l 582 369 l 582 390 q 542 453 582 433 q 517 458 531 458 l 281 458 l 281 43 l 479 43 q 636 89 582 43 q 726 225 690 135 l 740 225 l 660 0 l 83 0 l 83 14 l 101 14 z "},"Ì":{"ha":469,"x_min":11,"x_max":388,"o":"m 244 1071 l 235 1061 q 11 1179 124 1114 q 68 1253 32 1218 q 244 1071 157 1168 m 101 14 q 163 40 138 14 q 190 101 189 65 l 190 872 q 163 933 189 908 q 101 958 138 958 l 83 958 l 83 972 l 388 972 l 388 958 l 369 958 q 308 933 333 958 q 281 872 282 908 l 281 101 q 307 40 281 65 q 369 14 333 14 l 388 14 l 388 0 l 83 0 l 83 14 l 101 14 z "},"Í":{"ha":469,"x_min":82,"x_max":460,"o":"m 235 1061 l 225 1071 q 401 1253 331 1185 q 458 1179 439 1215 q 235 1061 369 1128 m 101 14 q 163 40 138 14 q 190 101 189 65 l 190 872 q 163 933 189 908 q 101 958 138 958 l 83 958 l 83 972 l 388 972 l 388 958 l 369 958 q 308 933 333 958 q 281 872 282 908 l 281 101 q 307 40 281 65 q 369 14 333 14 l 388 14 l 388 0 l 83 0 l 83 14 l 101 14 z "},"Î":{"ha":469,"x_min":79,"x_max":401,"o":"m 228 1236 l 242 1236 l 400 1071 l 392 1060 l 235 1151 l 89 1060 l 81 1071 l 228 1236 m 101 14 q 163 40 138 14 q 190 101 189 65 l 190 872 q 163 933 189 908 q 101 958 138 958 l 83 958 l 83 972 l 388 972 l 388 958 l 369 958 q 308 933 333 958 q 281 872 282 908 l 281 101 q 307 40 281 65 q 369 14 333 14 l 388 14 l 388 0 l 83 0 l 83 14 l 101 14 z "},"Ï":{"ha":469,"x_min":50,"x_max":421,"o":"m 142 1077 q 134 1069 142 1077 q 104 1061 126 1061 q 66 1077 82 1061 q 50 1115 50 1093 q 66 1153 50 1138 q 104 1169 82 1169 q 142 1153 126 1169 q 158 1115 158 1138 q 142 1077 158 1093 m 405 1077 q 397 1069 405 1077 q 366 1061 389 1061 q 327 1077 343 1061 q 311 1115 311 1093 q 327 1153 311 1138 q 366 1169 343 1169 q 405 1153 389 1169 q 421 1115 421 1138 q 405 1077 421 1093 m 101 14 q 163 40 138 14 q 190 101 189 65 l 190 872 q 163 933 189 908 q 101 958 138 958 l 83 958 l 83 972 l 388 972 l 388 958 l 369 958 q 308 933 333 958 q 281 872 282 908 l 281 101 q 307 40 281 65 q 369 14 333 14 l 388 14 l 388 0 l 83 0 l 83 14 l 101 14 z "},"Ð":{"ha":1121,"x_min":83,"x_max":1053,"o":"m 560 972 q 917 838 782 972 q 1053 485 1053 704 q 917 133 1053 267 q 560 0 782 0 l 90 0 l 90 14 l 108 14 q 170 40 144 14 q 197 101 196 65 l 197 465 l 83 465 l 83 507 l 197 507 l 197 879 q 170 935 197 913 q 108 958 143 958 l 90 958 l 90 972 l 560 972 m 288 465 l 288 42 l 560 42 q 847 164 738 42 q 956 486 956 286 q 847 808 956 686 q 560 931 738 931 l 288 931 l 288 507 l 514 507 l 514 465 l 288 465 z "},"Ñ":{"ha":1168,"x_min":61,"x_max":1107,"o":"m 689 1124 q 767 1171 747 1124 l 781 1171 q 732 1074 772 1101 q 685 1061 713 1061 q 599 1092 657 1061 q 522 1122 542 1122 q 446 1065 469 1122 l 432 1065 q 464 1151 440 1119 q 522 1183 488 1183 q 611 1153 556 1183 q 689 1124 667 1124 m 1081 958 q 1021 934 1046 958 q 994 875 996 910 l 994 158 q 1004 6 994 78 l 1007 -19 l 994 -19 l 238 789 l 238 97 q 281 25 239 49 q 322 14 300 14 l 349 14 l 349 0 l 63 0 l 63 14 l 89 14 q 149 38 124 14 q 174 99 174 63 l 174 819 q 164 971 174 904 l 161 993 l 175 993 l 932 185 l 932 874 q 906 934 931 910 q 846 958 881 958 l 819 958 l 819 972 l 1106 972 l 1106 958 l 1081 958 z "},"Ò":{"ha":1164,"x_min":83,"x_max":1082,"o":"m 592 1071 l 582 1061 q 358 1179 471 1114 q 415 1253 379 1218 q 592 1071 504 1168 m 222 852 q 291 922 222 852 q 582 992 360 992 q 943 852 804 992 q 1082 486 1082 713 q 943 120 1082 260 q 582 -19 804 -19 q 222 120 360 -19 q 83 486 83 260 q 222 852 83 713 m 298 150 q 352 86 298 150 q 583 22 406 22 q 867 150 760 22 q 975 486 975 278 q 926 729 975 624 q 788 892 878 835 q 582 950 699 950 q 298 822 406 950 q 190 486 190 694 q 298 150 190 278 z "},"Ó":{"ha":1164,"x_min":97,"x_max":1096,"o":"m 596 1061 l 586 1071 q 763 1253 692 1185 q 819 1179 800 1215 q 596 1061 729 1128 m 235 852 q 305 922 235 852 q 596 992 374 992 q 957 852 818 992 q 1096 486 1096 713 q 957 120 1096 260 q 596 -19 818 -19 q 235 120 374 -19 q 97 486 97 260 q 235 852 97 713 m 312 150 q 366 86 312 150 q 597 22 419 22 q 881 150 774 22 q 989 486 989 278 q 940 729 989 624 q 802 892 892 835 q 596 950 713 950 q 312 822 419 950 q 204 486 204 694 q 312 150 204 278 z "},"Ô":{"ha":1164,"x_min":97,"x_max":1096,"o":"m 589 1236 l 603 1236 l 761 1071 l 753 1060 l 594 1151 l 450 1060 l 442 1071 l 589 1236 m 235 852 q 305 922 235 852 q 596 992 374 992 q 957 852 818 992 q 1096 486 1096 713 q 957 120 1096 260 q 596 -19 818 -19 q 235 120 374 -19 q 97 486 97 260 q 235 852 97 713 m 312 150 q 366 86 312 150 q 597 22 419 22 q 881 150 774 22 q 989 486 989 278 q 940 729 989 624 q 802 892 892 835 q 596 950 713 950 q 312 822 419 950 q 204 486 204 694 q 312 150 204 278 z "},"Õ":{"ha":1164,"x_min":97,"x_max":1096,"o":"m 693 1124 q 771 1171 751 1124 l 785 1171 q 736 1074 776 1101 q 690 1061 718 1061 q 604 1092 661 1061 q 526 1122 547 1122 q 451 1065 474 1122 l 438 1065 q 469 1151 444 1119 q 526 1183 493 1183 q 615 1153 560 1183 q 693 1124 671 1124 m 235 852 q 305 922 235 852 q 596 992 374 992 q 957 852 818 992 q 1096 486 1096 713 q 957 120 1096 260 q 596 -19 818 -19 q 235 120 374 -19 q 97 486 97 260 q 235 852 97 713 m 312 150 q 366 86 312 150 q 597 22 419 22 q 881 150 774 22 q 989 486 989 278 q 940 729 989 624 q 802 892 892 835 q 596 950 713 950 q 312 822 419 950 q 204 486 204 694 q 312 150 204 278 z "},"Ö":{"ha":1164,"x_min":97,"x_max":1096,"o":"m 503 1077 q 495 1069 503 1077 q 465 1061 488 1061 q 427 1077 443 1061 q 411 1115 411 1093 q 427 1153 411 1138 q 465 1169 443 1169 q 503 1153 488 1169 q 519 1115 519 1138 q 503 1077 519 1093 m 765 1077 q 757 1069 765 1077 q 726 1061 749 1061 q 688 1077 704 1061 q 672 1115 672 1093 q 688 1153 672 1138 q 726 1169 704 1169 q 765 1153 749 1169 q 781 1115 781 1138 q 765 1077 781 1093 m 235 852 q 305 922 235 852 q 596 992 374 992 q 957 852 818 992 q 1096 486 1096 713 q 957 120 1096 260 q 596 -19 818 -19 q 235 120 374 -19 q 97 486 97 260 q 235 852 97 713 m 312 150 q 366 86 312 150 q 597 22 419 22 q 881 150 774 22 q 989 486 989 278 q 940 729 989 624 q 802 892 892 835 q 596 950 713 950 q 312 822 419 950 q 204 486 204 694 q 312 150 204 278 z "},"×":{"ha":576,"x_min":68,"x_max":508,"o":"m 508 606 l 333 431 l 508 256 l 464 211 l 289 386 l 114 211 l 69 256 l 244 431 l 69 606 l 114 650 l 289 475 l 464 650 l 508 606 z "},"Ø":{"ha":1150,"x_min":83,"x_max":1068,"o":"m 1068 486 q 1007 221 1068 336 q 834 43 946 106 q 575 -19 722 -19 q 264 79 392 -19 l 171 -32 l 136 -1 l 228 110 q 83 486 83 250 q 119 693 83 599 q 218 853 154 788 q 374 955 282 918 q 575 992 467 992 q 882 897 756 992 l 971 1003 l 1007 972 l 918 867 q 1068 486 1068 726 m 840 844 q 567 950 735 950 q 291 822 399 950 q 183 494 183 694 q 276 168 183 293 l 840 844 m 307 132 q 583 22 413 22 q 860 150 753 22 q 968 481 968 278 q 871 810 968 683 l 307 132 z "},"Ù":{"ha":1090,"x_min":68,"x_max":1022,"o":"m 568 1071 l 558 1061 q 335 1179 446 1114 q 392 1253 354 1218 q 568 1071 479 1168 m 1021 958 l 999 958 q 948 940 969 958 q 925 893 926 921 l 925 343 q 822 81 925 181 q 549 -19 719 -19 q 272 80 378 -19 q 165 342 165 179 l 165 889 q 129 950 165 931 q 92 958 113 958 l 69 958 l 69 972 l 351 972 l 351 958 l 329 958 q 278 940 299 958 q 256 892 257 921 l 256 361 q 337 117 256 210 q 554 24 418 24 q 775 112 690 24 q 860 343 860 200 l 860 892 q 838 940 858 921 q 786 958 817 958 l 764 958 l 764 972 l 1021 972 l 1021 958 z "},"Ú":{"ha":1090,"x_min":69,"x_max":1022,"o":"m 558 1061 l 549 1071 q 725 1253 654 1185 q 781 1179 761 1215 q 558 1061 692 1128 m 1021 958 l 999 958 q 948 940 969 958 q 925 893 926 921 l 925 343 q 822 81 925 181 q 549 -19 719 -19 q 272 80 378 -19 q 165 342 165 179 l 165 890 q 144 939 165 919 q 92 958 122 958 l 69 958 l 69 972 l 351 972 l 351 958 l 329 958 q 267 926 288 958 q 256 892 257 911 l 256 361 q 337 117 256 210 q 550 24 418 24 q 775 112 690 24 q 860 343 860 200 l 860 892 q 815 953 858 938 q 786 958 801 958 l 764 958 l 764 972 l 1021 972 l 1021 958 z "},"Û":{"ha":1090,"x_min":69,"x_max":1022,"o":"m 550 1236 l 564 1236 l 724 1071 l 715 1060 l 557 1151 l 411 1060 l 403 1071 l 550 1236 m 1021 958 l 999 958 q 948 940 969 958 q 925 893 926 921 l 925 343 q 822 81 925 181 q 549 -19 719 -19 q 272 80 378 -19 q 165 342 165 179 l 165 889 q 144 939 165 919 q 92 958 122 958 l 69 958 l 69 972 l 351 972 l 351 958 l 329 958 q 278 940 299 958 q 256 892 257 921 l 256 361 q 337 117 256 210 q 554 24 418 24 q 775 112 690 24 q 860 343 860 200 l 860 892 q 815 953 858 938 q 786 958 801 958 l 764 958 l 764 972 l 1021 972 l 1021 958 z "},"Ü":{"ha":1090,"x_min":69,"x_max":1022,"o":"m 466 1077 q 458 1069 466 1077 q 427 1061 450 1061 q 388 1077 404 1061 q 372 1115 372 1093 q 388 1153 372 1138 q 427 1169 404 1169 q 466 1153 450 1169 q 482 1115 482 1138 q 466 1077 482 1093 m 727 1077 q 719 1069 727 1077 q 689 1061 711 1061 q 651 1077 667 1061 q 635 1115 635 1093 q 651 1153 635 1138 q 689 1169 667 1169 q 727 1153 711 1169 q 743 1115 743 1138 q 727 1077 743 1093 m 1021 958 l 999 958 q 948 940 969 958 q 925 893 926 921 l 925 343 q 822 81 925 181 q 549 -19 719 -19 q 272 80 378 -19 q 165 342 165 179 l 165 889 q 129 950 165 931 q 92 958 113 958 l 69 958 l 69 972 l 351 972 l 351 958 l 329 958 q 267 926 288 958 q 256 892 257 911 l 256 361 q 337 117 256 210 q 550 24 418 24 q 775 112 690 24 q 860 343 860 200 l 860 892 q 815 953 858 938 q 786 958 801 958 l 764 958 l 764 972 l 1021 972 l 1021 958 z "},"Ý":{"ha":918,"x_min":-14,"x_max":933,"o":"m 472 1061 l 463 1071 q 639 1253 568 1185 q 696 1179 676 1215 q 472 1061 607 1128 m 933 958 l 914 958 q 835 935 872 958 q 774 878 799 913 l 500 433 l 500 101 q 526 40 500 65 q 589 14 551 14 l 606 14 l 606 0 l 303 0 l 303 14 l 321 14 q 383 39 357 14 q 410 100 408 64 l 410 435 l 144 878 q 85 935 124 911 q 6 958 47 958 l -14 958 l -14 972 l 328 972 l 328 958 l 310 958 q 263 931 279 958 q 254 901 254 915 q 261 872 254 886 l 469 483 l 692 874 q 699 901 699 888 q 689 931 699 915 q 642 958 671 958 l 625 958 l 625 972 l 933 972 l 933 958 z "},"Þ":{"ha":769,"x_min":58,"x_max":701,"o":"m 683 604 q 701 492 701 554 q 676 379 701 431 q 519 242 632 281 q 451 228 479 228 q 304 260 365 228 l 304 274 q 492 296 404 251 q 594 424 567 333 q 604 476 604 451 q 604 507 604 500 q 553 662 601 604 q 417 719 504 719 l 257 719 l 257 101 q 301 25 257 50 q 346 14 321 14 l 363 14 l 363 0 l 60 0 l 60 14 l 76 14 q 140 40 114 14 q 167 101 165 65 l 167 872 q 140 933 165 908 q 78 958 114 958 l 60 958 l 60 972 l 363 972 l 363 958 l 346 958 q 283 933 310 958 q 257 872 257 908 l 257 761 l 422 761 q 683 604 626 761 z "},"ß":{"ha":1283,"x_min":75,"x_max":1208,"o":"m 81 46 q 76 114 76 63 q 94 218 76 165 l 111 218 q 110 193 110 206 q 159 70 110 118 q 296 22 208 22 q 439 65 388 22 q 490 174 490 107 q 440 286 490 242 l 163 500 q 96 653 96 557 q 126 753 96 707 q 209 826 156 799 q 335 853 263 853 q 463 840 407 853 l 508 840 l 511 689 l 496 689 q 456 779 496 747 q 340 811 415 811 q 217 773 265 811 q 168 674 168 735 q 222 569 168 614 l 503 353 q 567 206 567 300 q 495 46 567 111 q 321 -19 424 -19 q 185 -3 253 -19 q 81 46 117 14 m 722 46 q 718 114 718 63 q 736 218 718 165 l 753 218 q 751 193 751 206 q 801 70 751 118 q 938 22 850 22 q 1081 65 1029 22 q 1132 174 1132 107 q 1082 286 1132 242 l 804 500 q 738 653 738 557 q 767 753 738 707 q 851 826 797 799 q 976 853 904 853 q 1104 840 1049 853 l 1150 840 l 1153 689 l 1138 689 q 1097 779 1138 747 q 982 811 1057 811 q 858 773 907 811 q 810 674 810 735 q 864 569 810 614 l 1146 353 q 1208 206 1208 300 q 1137 46 1208 111 q 963 -19 1065 -19 q 826 -3 894 -19 q 722 46 758 14 z "},"à":{"ha":921,"x_min":-7,"x_max":929,"o":"m 471 932 l 461 922 q 238 1040 350 975 q 294 1114 258 1079 q 471 932 383 1029 m 917 14 l 928 14 l 928 0 l 643 0 l 643 14 l 654 14 q 694 32 681 14 q 708 66 708 50 q 703 97 708 82 l 626 282 l 275 282 l 199 101 q 192 67 192 83 q 206 33 192 51 q 247 14 219 14 l 258 14 l 258 0 l -7 0 l -7 14 l 4 14 q 63 34 33 14 q 113 94 93 54 q 426 765 400 710 q 454 853 451 821 l 467 853 l 810 94 q 917 14 850 14 m 293 324 l 610 324 l 454 704 l 293 324 z "},"á":{"ha":921,"x_min":-7,"x_max":929,"o":"m 461 922 l 451 932 q 628 1114 557 1046 q 685 1040 665 1076 q 461 922 596 989 m 917 14 l 928 14 l 928 0 l 643 0 l 643 14 l 654 14 q 694 32 681 14 q 708 66 708 50 q 703 97 708 82 l 626 282 l 275 282 l 199 101 q 192 67 192 83 q 206 33 192 51 q 247 14 219 14 l 258 14 l 258 0 l -7 0 l -7 14 l 4 14 q 63 34 33 14 q 113 94 93 54 q 429 775 417 744 q 454 853 453 833 l 467 853 l 810 94 q 917 14 850 14 m 293 324 l 610 324 l 454 704 l 293 324 z "},"â":{"ha":921,"x_min":-7,"x_max":929,"o":"m 454 1097 l 468 1097 l 626 932 l 618 921 l 460 1013 l 315 921 l 307 932 l 454 1097 m 917 14 l 928 14 l 928 0 l 643 0 l 643 14 l 654 14 q 694 32 681 14 q 708 66 708 50 q 703 97 708 82 l 626 282 l 275 282 l 199 101 q 193 72 193 83 q 197 48 193 61 q 215 24 201 35 q 247 14 229 14 l 258 14 l 258 0 l -7 0 l -7 14 l 4 14 q 63 34 33 14 q 113 94 93 54 q 429 775 417 744 q 454 853 453 833 l 467 853 l 810 94 q 917 14 850 14 m 293 324 l 610 324 l 454 704 l 293 324 z "},"ã":{"ha":921,"x_min":-7,"x_max":929,"o":"m 558 985 q 636 1032 617 985 l 650 1032 q 601 935 642 963 q 556 922 583 922 q 470 953 528 922 q 392 983 413 983 q 317 926 339 983 q 303 926 317 926 q 351 1031 313 1001 q 397 1044 369 1044 q 481 1015 425 1044 q 558 985 538 985 m 917 14 l 928 14 l 928 0 l 643 0 l 643 14 l 654 14 q 694 32 681 14 q 708 66 708 50 q 703 97 708 82 l 626 282 l 275 282 l 199 101 q 193 72 193 83 q 197 48 193 61 q 215 24 201 35 q 247 14 229 14 l 258 14 l 258 0 l -7 0 l -7 14 l 4 14 q 63 34 33 14 q 113 94 93 54 q 429 775 417 744 q 454 853 453 833 l 467 853 l 810 94 q 917 14 850 14 m 293 324 l 610 324 l 454 704 l 293 324 z "},"ä":{"ha":921,"x_min":-7,"x_max":929,"o":"m 369 938 q 361 930 369 938 q 331 922 353 922 q 292 938 308 922 q 276 976 276 954 q 292 1015 276 999 q 331 1031 308 1031 q 369 1015 353 1031 q 385 976 385 999 q 369 938 385 954 m 630 938 q 622 930 630 938 q 592 922 614 922 q 553 938 569 922 q 538 976 538 954 q 553 1015 538 999 q 592 1031 569 1031 q 630 1015 614 1031 q 646 976 646 999 q 630 938 646 954 m 917 14 l 928 14 l 928 0 l 643 0 l 643 14 l 654 14 q 694 32 681 14 q 708 66 708 50 q 703 97 708 82 l 626 282 l 275 282 l 199 101 q 192 67 192 83 q 206 33 192 51 q 247 14 219 14 l 258 14 l 258 0 l -7 0 l -7 14 l 4 14 q 63 34 33 14 q 113 94 93 54 q 429 775 417 744 q 454 853 453 833 l 467 853 l 810 94 q 917 14 850 14 m 293 324 l 610 324 l 454 704 l 293 324 z "},"å":{"ha":921,"x_min":-7,"x_max":929,"o":"m 462 1131 q 490 1131 462 1131 q 555 1103 518 1131 q 592 1036 592 1075 q 575 974 592 997 q 472 922 539 922 q 369 952 406 922 q 332 1027 332 982 q 369 1101 332 1072 q 462 1131 406 1131 m 510 1085 q 501 1096 510 1085 q 462 1107 492 1107 q 413 1085 432 1107 q 393 1026 393 1064 q 413 968 393 989 q 462 947 432 947 q 510 968 492 947 q 529 1026 529 989 q 510 1085 529 1064 m 917 14 l 928 14 l 928 0 l 643 0 l 643 14 l 654 14 q 694 32 681 14 q 708 66 708 50 q 703 97 708 82 l 626 282 l 275 282 l 199 101 q 192 67 192 83 q 206 33 192 51 q 247 14 219 14 l 258 14 l 258 0 l -7 0 l -7 14 l 4 14 q 63 34 33 14 q 113 94 93 54 q 426 765 400 710 q 454 853 451 821 l 467 853 l 810 94 q 917 14 850 14 m 293 324 l 610 324 l 454 704 l 293 324 z "},"æ":{"ha":1158,"x_min":-7,"x_max":1111,"o":"m 542 14 q 583 30 567 14 q 601 69 600 46 l 601 376 l 389 376 l 194 71 q 204 22 183 38 q 231 14 215 14 l 242 14 l 242 0 l -7 0 l -7 14 l 1 14 q 62 35 31 14 q 113 85 93 56 l 114 85 l 599 781 q 597 809 606 796 q 572 822 589 822 l 568 822 l 568 833 l 900 833 q 995 843 957 833 q 1042 856 1033 853 l 1042 713 l 1028 713 l 1028 731 q 1011 772 1028 754 q 969 789 994 789 l 692 789 l 692 419 l 921 419 q 963 437 946 419 q 979 478 979 454 l 979 496 l 993 496 l 993 304 l 979 304 l 979 318 q 951 368 979 350 q 922 376 939 376 l 692 376 l 692 42 l 917 42 q 1096 172 1042 43 l 1111 172 l 1044 0 l 531 0 l 531 14 l 542 14 m 601 419 l 601 710 l 417 419 l 601 419 z "},"ç":{"ha":979,"x_min":68,"x_max":925,"o":"m 494 -85 q 572 -79 538 -69 q 640 -164 640 -97 q 579 -260 640 -231 q 510 -276 544 -276 q 444 -267 476 -276 l 446 -253 q 533 -231 496 -253 q 571 -168 571 -210 q 500 -107 571 -107 q 454 -118 478 -107 l 447 -104 l 513 -19 q 188 103 307 -14 q 69 419 69 219 q 192 736 69 619 q 528 853 315 853 q 701 831 614 853 q 853 769 789 808 l 883 572 l 871 572 q 526 811 811 811 q 265 706 361 811 q 169 417 169 600 q 213 209 169 297 q 338 72 256 121 q 528 24 419 24 q 717 56 636 24 q 852 164 799 89 q 913 350 906 239 l 925 350 l 910 160 q 763 33 858 81 q 550 -19 667 -14 l 494 -85 z "},"è":{"ha":758,"x_min":76,"x_max":718,"o":"m 422 932 l 413 922 q 189 1040 301 975 q 246 1114 210 1079 q 422 932 333 1029 m 96 14 q 152 35 129 14 q 176 88 175 57 l 176 747 q 153 799 176 778 q 96 819 129 819 l 76 819 l 76 833 l 482 833 q 570 840 522 833 q 638 856 618 847 l 638 697 l 622 699 l 622 719 q 589 781 622 761 q 553 790 574 790 l 264 790 l 264 438 l 501 438 q 553 467 539 439 q 558 496 558 481 l 558 514 l 574 514 l 574 319 l 558 319 l 558 338 q 544 378 558 361 q 506 396 531 394 l 264 396 l 264 43 l 482 43 q 590 65 546 43 q 656 118 633 88 q 703 199 679 149 l 717 199 l 640 0 l 76 0 l 76 14 l 96 14 z "},"é":{"ha":758,"x_min":76,"x_max":718,"o":"m 413 922 l 403 932 q 579 1114 508 1046 q 636 1040 617 1076 q 413 922 546 989 m 96 14 q 152 35 129 14 q 176 88 175 57 l 176 747 q 153 799 176 778 q 96 819 129 819 l 76 819 l 76 833 l 482 833 q 570 840 522 833 q 638 856 618 847 l 638 699 l 622 699 l 622 719 q 589 781 622 761 q 553 790 574 790 l 264 790 l 264 438 l 501 438 q 553 467 539 439 q 558 496 558 481 l 558 514 l 574 514 l 574 319 l 558 319 l 558 338 q 544 378 558 361 q 506 396 531 394 l 264 396 l 264 43 l 482 43 q 590 65 546 43 q 656 118 633 88 q 703 199 679 149 l 717 199 l 640 0 l 76 0 l 76 14 l 96 14 z "},"ê":{"ha":758,"x_min":76,"x_max":718,"o":"m 406 1097 l 419 1097 l 578 932 l 569 921 l 411 1013 l 267 921 l 258 932 l 406 1097 m 96 14 q 152 35 129 14 q 176 88 175 57 l 176 747 q 153 799 176 778 q 96 819 129 819 l 76 819 l 76 833 l 482 833 q 570 840 522 833 q 638 856 618 847 l 638 699 l 622 699 l 622 719 q 589 781 622 761 q 553 790 574 790 l 265 790 l 265 438 l 501 438 q 553 467 539 439 q 558 496 558 481 l 558 514 l 574 514 l 574 319 l 558 319 l 558 338 q 544 378 558 361 q 506 396 531 394 l 265 396 l 265 43 l 482 43 q 621 83 574 43 q 703 199 668 122 l 717 199 l 640 0 l 76 0 l 76 14 l 96 14 z "},"ë":{"ha":758,"x_min":76,"x_max":718,"o":"m 320 938 q 312 930 320 938 q 282 922 304 922 q 244 938 260 922 q 228 976 228 954 q 244 1015 228 999 q 282 1031 260 1031 q 320 1015 304 1031 q 336 976 336 999 q 320 938 336 954 m 581 938 q 573 930 581 938 q 543 922 565 922 q 505 938 521 922 q 489 976 489 954 q 505 1015 489 999 q 543 1031 521 1031 q 581 1015 565 1031 q 597 976 597 999 q 581 938 597 954 m 96 14 q 152 35 129 14 q 176 88 175 57 l 176 747 q 153 799 176 778 q 96 819 129 819 l 76 819 l 76 833 l 482 833 q 570 840 522 833 q 638 856 618 847 l 638 697 l 622 699 l 622 719 q 603 769 622 749 q 553 790 583 790 l 264 790 l 264 438 l 501 438 q 553 467 539 439 q 558 496 558 481 l 558 514 l 574 514 l 574 319 l 558 319 l 558 338 q 544 378 558 361 q 506 396 531 394 l 264 396 l 264 43 l 482 43 q 590 65 546 43 q 656 118 633 88 q 703 199 679 149 l 717 199 l 640 0 l 76 0 l 76 14 l 96 14 z "},"ì":{"ha":425,"x_min":-10,"x_max":350,"o":"m 224 932 l 214 922 q -10 1040 100 975 q 47 1114 10 1079 q 224 932 135 1029 m 92 14 q 146 36 124 14 q 168 89 168 58 l 168 744 q 129 810 168 788 q 92 819 113 819 l 76 819 l 76 833 l 350 833 l 349 819 l 333 819 q 281 798 303 819 q 257 746 258 776 l 257 88 q 281 35 258 57 q 335 14 303 14 l 349 14 l 350 0 l 76 0 l 76 14 l 92 14 z "},"í":{"ha":425,"x_min":75,"x_max":438,"o":"m 214 922 l 204 932 q 379 1114 310 1046 q 436 1040 417 1076 q 214 922 347 989 m 92 14 q 146 36 124 14 q 168 89 168 58 l 168 744 q 146 797 168 775 q 92 819 124 819 l 76 819 l 76 833 l 350 833 l 349 819 l 335 819 q 281 798 303 819 q 257 746 258 776 l 257 88 q 281 35 258 57 q 335 14 303 14 l 349 14 l 350 0 l 76 0 l 76 14 l 92 14 z "},"î":{"ha":425,"x_min":58,"x_max":379,"o":"m 206 1097 l 219 1097 l 379 932 l 371 921 l 213 1013 l 67 921 l 58 932 l 206 1097 m 92 14 q 146 36 124 14 q 168 89 168 58 l 168 744 q 129 810 168 788 q 92 819 113 819 l 76 819 l 76 833 l 350 833 l 349 819 l 335 819 q 281 798 303 819 q 257 746 258 776 l 257 88 q 281 35 258 57 q 335 14 303 14 l 349 14 l 350 0 l 76 0 l 76 14 l 92 14 z "},"ï":{"ha":425,"x_min":28,"x_max":399,"o":"m 121 938 q 113 930 121 938 q 83 922 106 922 q 44 938 60 922 q 28 976 28 954 q 44 1015 28 999 q 83 1031 60 1031 q 121 1015 106 1031 q 136 976 136 999 q 121 938 136 954 m 383 938 q 375 930 383 938 q 344 922 367 922 q 306 938 322 922 q 290 976 290 954 q 306 1015 290 999 q 344 1031 322 1031 q 383 1015 367 1031 q 399 976 399 999 q 383 938 399 954 m 92 14 q 146 36 124 14 q 168 89 168 58 l 168 744 q 129 810 168 788 q 92 819 113 819 l 76 819 l 76 833 l 350 833 l 349 819 l 333 819 q 281 798 303 819 q 257 746 258 776 l 257 88 q 296 24 258 44 q 335 14 314 14 l 349 14 l 350 0 l 76 0 l 76 14 l 92 14 z "},"ð":{"ha":1056,"x_min":75,"x_max":988,"o":"m 986 417 q 866 112 986 224 q 540 0 746 0 l 76 0 l 76 14 l 94 14 q 150 36 128 14 q 174 89 172 58 l 174 396 l 86 396 l 86 438 l 174 438 l 174 744 q 149 799 172 778 q 93 819 126 819 l 76 819 l 76 833 l 540 833 q 777 783 676 833 q 932 639 878 733 q 986 417 986 544 m 264 396 l 264 42 l 540 42 q 793 142 700 42 q 886 417 886 242 q 793 691 886 590 q 540 792 700 792 l 264 792 l 264 438 l 482 438 l 482 396 l 264 396 z "},"ñ":{"ha":1082,"x_min":49,"x_max":1035,"o":"m 636 985 q 714 1032 694 985 l 728 1032 q 697 951 721 981 q 638 922 672 922 q 547 953 604 922 q 469 983 490 983 q 394 926 417 983 l 381 926 q 429 1031 390 1001 q 475 1044 447 1044 q 558 1015 503 1044 q 636 985 614 985 m 1010 819 q 957 799 979 819 q 933 750 935 779 l 933 158 q 943 6 933 78 l 946 -19 l 933 -19 l 211 665 l 211 86 q 250 24 211 44 q 288 14 267 14 l 311 14 l 311 0 l 49 0 l 49 14 l 72 14 q 126 35 104 14 q 149 86 149 56 l 149 681 q 139 832 149 765 l 136 854 l 151 853 l 872 174 l 872 750 q 847 799 869 779 q 794 819 825 819 l 771 819 l 771 833 l 1033 833 l 1033 819 l 1010 819 z "},"ò":{"ha":1075,"x_min":68,"x_max":1007,"o":"m 547 932 l 538 922 q 315 1040 426 975 q 371 1114 335 1079 q 547 932 460 1029 m 303 798 q 356 825 303 798 q 538 853 410 853 q 774 798 667 853 q 944 643 881 743 q 1007 417 1007 543 q 944 190 1007 290 q 774 35 881 90 q 538 -19 667 -19 q 303 35 410 -19 q 133 190 196 90 q 69 417 69 290 q 133 643 69 543 q 303 798 196 743 m 277 133 q 330 77 277 133 q 538 22 382 22 q 799 133 693 22 q 904 417 904 243 q 799 701 904 590 q 538 811 693 811 q 277 701 382 811 q 172 417 172 590 q 277 133 172 243 z "},"ó":{"ha":1075,"x_min":68,"x_max":1007,"o":"m 538 922 l 528 932 q 704 1114 635 1046 q 761 1040 742 1076 q 538 922 672 989 m 303 798 q 356 825 303 798 q 538 853 410 853 q 774 798 667 853 q 944 643 881 743 q 1007 417 1007 543 q 944 190 1007 290 q 774 35 881 90 q 538 -19 667 -19 q 303 35 410 -19 q 133 190 196 90 q 69 417 69 290 q 133 643 69 543 q 303 798 196 743 m 277 133 q 330 77 277 133 q 538 22 382 22 q 799 133 693 22 q 904 417 904 243 q 799 701 904 590 q 538 811 693 811 q 277 701 382 811 q 172 417 172 590 q 277 133 172 243 z "},"ô":{"ha":1075,"x_min":69,"x_max":1007,"o":"m 531 1097 l 544 1097 l 703 932 l 694 921 l 538 1013 l 392 921 l 383 932 l 531 1097 m 303 798 q 356 825 303 798 q 538 853 410 853 q 774 798 667 853 q 944 643 881 743 q 1007 417 1007 543 q 944 190 1007 290 q 774 35 881 90 q 554 -19 667 -19 q 356 13 442 -19 q 206 101 269 44 q 106 240 143 158 q 69 433 69 322 q 133 643 69 543 q 303 798 196 743 m 277 133 q 330 77 277 133 q 538 22 382 22 q 799 133 693 22 q 904 417 904 243 q 799 701 904 590 q 538 811 693 811 q 277 701 382 811 q 172 417 172 590 q 277 133 172 243 z "},"õ":{"ha":1075,"x_min":68,"x_max":1007,"o":"m 636 985 q 713 1032 693 985 l 726 1032 q 697 951 721 981 q 638 922 672 922 q 547 953 604 922 q 468 983 489 983 q 393 926 415 983 l 379 926 q 428 1031 390 1001 q 474 1044 446 1044 q 558 1015 501 1044 q 636 985 614 985 m 303 798 q 356 825 303 798 q 538 853 410 853 q 774 798 667 853 q 944 643 881 743 q 1007 417 1007 543 q 944 190 1007 290 q 774 35 881 90 q 538 -19 667 -19 q 303 35 410 -19 q 133 190 196 90 q 69 417 69 290 q 133 643 69 543 q 303 798 196 743 m 277 133 q 330 77 277 133 q 538 22 382 22 q 799 133 693 22 q 904 417 904 243 q 799 701 904 590 q 538 811 693 811 q 277 701 382 811 q 172 417 172 590 q 277 133 172 243 z "},"ö":{"ha":1075,"x_min":68,"x_max":1007,"o":"m 445 938 q 437 930 445 938 q 407 922 429 922 q 369 938 385 922 q 353 976 353 954 q 369 1015 353 999 q 407 1031 385 1031 q 445 1015 429 1031 q 461 976 461 999 q 445 938 461 954 m 708 938 q 700 930 708 938 q 669 922 692 922 q 631 938 646 922 q 615 976 615 954 q 631 1015 615 999 q 669 1031 646 1031 q 708 1015 692 1031 q 724 976 724 999 q 708 938 724 954 m 303 798 q 356 825 303 798 q 538 853 410 853 q 774 798 667 853 q 944 643 881 743 q 1007 417 1007 543 q 944 190 1007 290 q 774 35 881 90 q 538 -19 667 -19 q 303 35 410 -19 q 133 190 196 90 q 69 417 69 290 q 133 643 69 543 q 303 798 196 743 m 277 133 q 330 77 277 133 q 538 22 382 22 q 799 133 693 22 q 904 417 904 243 q 799 701 904 590 q 538 811 693 811 q 277 701 382 811 q 172 417 172 590 q 277 133 172 243 z "},"÷":{"ha":668,"x_min":56,"x_max":614,"o":"m 369 616 q 361 609 369 616 q 334 601 354 601 q 299 616 314 601 q 285 651 285 631 q 299 685 285 671 q 334 699 314 699 q 369 685 354 699 q 383 651 383 671 q 369 616 383 631 m 56 399 l 56 461 l 614 461 l 614 399 l 56 399 m 369 177 q 361 170 369 177 q 334 163 354 163 q 299 177 314 163 q 285 212 285 192 q 299 246 285 232 q 334 260 314 260 q 369 246 354 260 q 383 212 383 232 q 369 177 383 192 z "},"ø":{"ha":1075,"x_min":68,"x_max":1007,"o":"m 824 768 q 958 619 908 710 q 1007 409 1007 528 q 944 190 1007 290 q 774 35 881 90 q 538 -19 667 -19 q 243 72 369 -19 l 157 -32 l 122 -1 l 207 101 q 69 417 69 225 q 133 643 69 543 q 303 798 196 743 q 541 853 410 853 q 782 793 672 853 l 851 876 l 888 844 l 824 768 m 538 811 q 277 701 382 811 q 172 428 172 590 q 256 158 172 265 l 744 747 q 538 811 654 811 m 286 124 q 541 22 389 22 q 799 133 693 22 q 904 424 904 243 q 782 718 904 606 l 286 124 z "},"ù":{"ha":972,"x_min":56,"x_max":925,"o":"m 497 932 l 488 922 q 264 1040 375 975 q 321 1114 283 1079 q 497 932 408 1029 m 924 819 l 903 819 q 857 803 876 819 q 836 761 838 786 l 836 293 q 744 65 836 149 q 490 -19 651 -19 q 236 64 329 -19 q 143 292 143 147 l 143 760 q 124 802 143 785 q 76 819 104 819 l 56 819 l 56 833 l 319 833 l 319 819 l 299 819 q 251 802 271 819 q 232 760 232 785 l 232 308 q 301 96 232 174 q 495 18 369 18 q 697 92 621 18 q 772 293 772 165 l 772 760 q 752 803 771 786 q 706 819 733 819 l 685 819 l 685 833 l 924 833 l 924 819 z "},"ú":{"ha":972,"x_min":54,"x_max":925,"o":"m 486 922 l 478 932 q 653 1114 583 1046 q 710 1040 690 1076 q 486 922 621 989 m 924 819 l 903 819 q 846 790 865 819 q 836 761 838 778 l 836 293 q 744 65 836 149 q 490 -19 651 -19 q 236 64 329 -19 q 143 292 143 147 l 143 760 q 124 802 143 785 q 76 819 104 819 l 56 819 l 56 833 l 319 833 l 319 819 l 299 819 q 251 802 271 819 q 232 760 232 785 l 232 308 q 301 96 232 174 q 495 18 369 18 q 697 92 621 18 q 772 293 772 165 l 772 760 q 752 803 771 786 q 706 819 733 819 l 685 819 l 685 833 l 924 833 l 924 819 z "},"û":{"ha":972,"x_min":56,"x_max":925,"o":"m 479 1097 l 493 1097 l 653 932 l 644 921 l 486 1013 l 340 921 l 332 932 l 479 1097 m 924 819 l 903 819 q 846 790 865 819 q 836 761 838 778 l 836 293 q 744 65 836 149 q 490 -19 651 -19 q 236 64 329 -19 q 143 292 143 147 l 143 760 q 124 802 143 785 q 76 819 104 819 l 56 819 l 56 833 l 319 833 l 319 819 l 299 819 q 251 802 271 819 q 232 760 232 785 l 232 308 q 301 96 232 174 q 495 18 369 18 q 697 92 621 18 q 772 293 772 165 l 772 760 q 731 815 771 800 q 706 819 719 819 l 685 819 l 685 833 l 924 833 l 924 819 z "},"ü":{"ha":972,"x_min":54,"x_max":925,"o":"m 394 938 q 387 930 394 938 q 356 922 379 922 q 317 938 333 922 q 301 976 301 954 q 317 1015 301 999 q 356 1031 333 1031 q 394 1015 379 1031 q 410 976 410 999 q 394 938 410 954 m 656 938 q 648 930 656 938 q 618 922 640 922 q 580 938 596 922 q 564 976 564 954 q 580 1015 564 999 q 618 1031 596 1031 q 656 1015 640 1031 q 672 976 672 999 q 656 938 672 954 m 924 819 l 903 819 q 846 790 865 819 q 836 761 838 778 l 836 293 q 744 65 836 149 q 490 -19 651 -19 q 236 64 329 -19 q 143 292 143 147 l 143 760 q 124 802 143 785 q 76 819 104 819 l 56 819 l 56 833 l 319 833 l 319 819 l 299 819 q 251 802 271 819 q 232 760 232 785 l 232 308 q 301 96 232 174 q 495 18 369 18 q 697 92 621 18 q 772 293 772 165 l 772 760 q 731 815 771 800 q 706 819 719 819 l 685 819 l 685 833 l 924 833 l 924 819 z "},"ý":{"ha":889,"x_min":-7,"x_max":897,"o":"m 463 922 l 453 932 q 629 1114 560 1046 q 686 1040 667 1076 q 463 922 597 989 m 896 819 l 879 819 q 808 799 842 819 q 751 749 774 779 l 485 344 l 485 89 q 508 36 485 58 q 565 14 532 14 l 582 14 l 582 0 l 297 0 l 297 14 l 314 14 q 371 36 347 14 q 394 89 394 58 l 394 346 l 138 750 q 10 819 90 819 l -7 819 l -7 833 l 315 833 l 315 819 l 299 819 q 260 803 272 819 q 249 774 249 786 q 251 753 249 763 l 454 393 l 669 751 q 674 774 674 763 q 662 803 674 786 q 622 819 650 819 l 606 819 l 606 833 l 896 833 l 896 819 z "},"þ":{"ha":732,"x_min":74,"x_max":683,"o":"m 683 422 q 650 288 683 346 q 451 174 586 174 q 318 208 383 174 l 318 221 q 450 222 381 203 q 579 361 544 250 q 589 436 589 389 q 535 569 589 521 q 389 618 482 618 l 256 618 l 256 89 q 277 35 256 57 q 329 14 299 14 l 347 14 l 347 0 l 74 0 l 75 14 l 92 14 q 144 35 122 14 q 167 88 165 57 l 167 746 q 144 799 165 778 q 92 819 124 819 l 75 819 l 74 833 l 347 833 l 347 819 l 329 819 q 278 799 299 819 q 256 749 257 779 l 256 660 l 394 660 q 606 597 529 660 q 683 422 683 533 z "},"ÿ":{"ha":889,"x_min":-7,"x_max":897,"o":"m 370 938 q 362 930 370 938 q 332 922 354 922 q 294 938 310 922 q 278 976 278 954 q 294 1015 278 999 q 332 1031 310 1031 q 370 1015 354 1031 q 386 976 386 999 q 370 938 386 954 m 633 938 q 625 930 633 938 q 594 922 617 922 q 556 938 571 922 q 540 976 540 954 q 556 1015 540 999 q 594 1031 571 1031 q 633 1015 617 1031 q 649 976 649 999 q 633 938 649 954 m 896 819 l 879 819 q 808 799 842 819 q 751 749 774 779 l 485 344 l 485 89 q 508 36 485 58 q 565 14 532 14 l 582 14 l 582 0 l 297 0 l 297 14 l 314 14 q 371 36 347 14 q 394 89 394 58 l 394 346 l 138 750 q 10 819 90 819 l -7 819 l -7 833 l 315 833 l 315 819 l 299 819 q 260 803 272 819 q 249 774 249 786 q 251 753 249 763 l 454 393 l 669 751 q 674 774 674 763 q 662 803 674 786 q 622 819 650 819 l 606 819 l 606 833 l 896 833 l 896 819 z "},"Ā":{"ha":989,"x_min":-15,"x_max":1004,"o":"m 325 1104 l 325 1153 l 672 1153 l 672 1104 l 325 1104 m 993 14 l 1004 14 l 1004 0 l 692 0 l 692 14 l 704 14 q 748 33 733 14 q 763 68 763 51 q 757 101 763 85 l 668 338 l 293 338 l 200 100 q 194 67 194 83 q 209 33 194 51 q 253 14 224 14 l 265 14 l 265 0 l -14 0 l -14 14 l -1 14 q 67 36 33 14 q 121 101 100 58 l 435 849 q 486 992 486 961 l 499 992 l 871 101 q 924 36 890 58 q 993 14 957 14 m 310 379 l 651 379 l 485 825 l 310 379 z "},"ā":{"ha":921,"x_min":-7,"x_max":929,"o":"m 292 965 l 292 1014 l 639 1014 l 639 965 l 292 965 m 917 14 l 928 14 l 928 0 l 643 0 l 643 14 l 654 14 q 694 32 681 14 q 708 66 708 50 q 703 97 708 82 l 626 282 l 275 282 l 199 101 q 192 67 192 83 q 206 33 192 51 q 247 14 219 14 l 258 14 l 258 0 l -7 0 l -7 14 l 4 14 q 63 34 33 14 q 113 94 93 54 q 429 775 417 744 q 454 853 453 833 l 467 853 l 810 94 q 917 14 850 14 m 293 324 l 610 324 l 454 704 l 293 324 z "},"Ă":{"ha":989,"x_min":-15,"x_max":1004,"o":"m 639 1206 q 619 1133 639 1167 q 567 1081 600 1100 q 485 1061 533 1061 q 395 1104 438 1061 q 353 1206 353 1147 l 367 1206 q 414 1153 378 1175 q 496 1131 450 1131 q 578 1153 542 1131 q 625 1206 614 1175 l 639 1206 m 993 14 l 1004 14 l 1004 0 l 692 0 l 692 14 l 704 14 q 748 33 733 14 q 763 68 763 51 q 757 101 763 85 l 668 338 l 293 338 l 200 100 q 194 67 194 83 q 209 33 194 51 q 253 14 224 14 l 265 14 l 265 0 l -14 0 l -14 14 l -1 14 q 67 36 33 14 q 121 101 100 58 l 435 849 q 486 992 486 961 l 499 992 l 871 101 q 924 36 890 58 q 993 14 957 14 m 310 379 l 651 379 l 485 825 l 310 379 z "},"ă":{"ha":921,"x_min":-8,"x_max":928,"o":"m 604 1067 q 585 994 604 1028 q 533 942 565 961 q 451 922 500 922 q 360 965 403 922 q 318 1067 318 1008 l 332 1067 q 379 1014 343 1036 q 462 992 415 992 q 544 1014 508 992 q 590 1067 579 1036 l 604 1067 m 917 14 l 928 14 l 928 0 l 643 0 l 643 14 l 654 14 q 694 32 681 14 q 708 66 708 50 q 703 97 708 82 l 626 282 l 275 282 l 199 101 q 192 67 192 83 q 206 33 192 51 q 247 14 219 14 l 258 14 l 258 0 l -7 0 l -7 14 l 4 14 q 63 34 33 14 q 113 94 93 54 q 429 775 417 744 q 454 853 453 833 l 467 853 l 810 94 q 917 14 850 14 m 293 324 l 610 324 l 454 704 l 293 324 z "},"Ą":{"ha":1024,"x_min":-15,"x_max":1040,"o":"m 936 -157 l 944 -165 q 903 -219 932 -199 q 853 -242 874 -240 q 815 -244 832 -244 q 719 -194 754 -244 q 697 -128 697 -162 q 708 -72 697 -93 q 761 -14 726 -33 q 804 46 804 10 q 793 99 804 67 l 697 338 l 299 338 l 200 100 q 194 67 194 83 q 209 33 194 51 q 253 14 224 14 l 265 14 l 265 0 l -14 0 l -14 14 l -1 14 q 67 36 33 14 q 121 101 100 58 l 454 849 q 506 992 506 961 l 518 992 l 911 94 q 1001 15 940 31 q 1026 13 1014 13 l 1039 13 l 1039 0 q 942 3 976 0 q 848 0 888 7 q 786 -35 808 -7 q 764 -96 764 -64 q 781 -151 764 -128 q 857 -190 811 -190 q 936 -157 903 -190 m 317 379 l 681 379 l 503 828 l 317 379 z "},"ą":{"ha":879,"x_min":-7,"x_max":922,"o":"m 922 0 l 751 7 q 685 0 710 7 q 614 -93 614 -18 q 642 -164 614 -136 q 710 -192 669 -192 q 783 -157 750 -192 l 792 -165 q 750 -219 779 -199 q 683 -243 718 -243 q 620 -233 649 -243 q 571 -192 592 -224 q 550 -116 550 -160 q 578 -38 550 -72 q 656 14 606 -4 q 707 71 707 32 q 701 100 707 85 l 626 282 l 275 282 l 199 101 q 193 72 193 83 q 197 48 193 61 q 215 24 201 35 q 247 14 229 14 l 258 14 l 258 0 l -7 0 l -7 14 l 4 14 q 63 34 33 14 q 113 94 93 54 q 426 765 400 710 q 454 853 451 821 l 467 853 l 815 83 q 911 14 853 14 l 922 14 l 922 0 m 293 324 l 610 324 l 454 704 l 293 324 z "},"Ć":{"ha":1056,"x_min":82,"x_max":988,"o":"m 579 1061 l 569 1071 q 746 1253 675 1185 q 803 1179 783 1215 q 579 1061 714 1128 m 579 -19 q 222 121 360 -18 q 83 487 83 260 q 222 853 83 714 q 588 992 360 992 q 917 897 774 992 l 944 701 l 932 701 q 808 885 901 821 q 588 950 715 950 q 297 824 406 950 q 188 489 188 697 q 295 153 188 281 q 579 22 403 26 q 839 107 735 22 q 975 406 951 199 l 986 406 l 969 188 q 579 -19 843 -19 z "},"ć":{"ha":979,"x_min":68,"x_max":925,"o":"m 528 922 l 518 932 q 694 1114 624 1046 q 751 1040 732 1076 q 528 922 663 989 m 528 -19 q 192 99 315 -18 q 69 417 69 215 q 192 736 69 619 q 528 853 315 853 q 701 831 614 853 q 853 769 789 808 l 883 572 l 871 572 q 526 811 811 811 q 265 706 361 811 q 169 418 169 600 q 265 131 169 236 q 528 24 364 24 q 797 105 693 24 q 913 350 901 186 l 925 350 l 910 160 q 753 28 856 76 q 528 -19 650 -19 z "},"Ċ":{"ha":1056,"x_min":83,"x_max":988,"o":"m 620 1080 q 611 1071 620 1080 q 578 1063 603 1063 q 535 1080 553 1063 q 518 1122 518 1097 q 535 1165 518 1147 q 578 1182 553 1182 q 620 1165 603 1182 q 638 1122 638 1147 q 620 1080 638 1097 m 579 -19 q 222 121 360 -18 q 83 487 83 260 q 222 853 83 714 q 588 992 360 992 q 917 897 774 992 l 944 701 l 932 701 q 808 885 901 821 q 588 950 715 950 q 297 824 406 950 q 188 489 188 697 q 295 153 188 281 q 579 22 403 26 q 839 107 735 22 q 975 406 951 199 l 986 406 l 969 188 q 579 -19 843 -19 z "},"ċ":{"ha":979,"x_min":68,"x_max":925,"o":"m 569 941 q 560 932 569 941 q 526 924 551 924 q 484 941 501 924 q 467 983 467 958 q 484 1026 467 1008 q 526 1043 501 1043 q 569 1026 551 1043 q 586 983 586 1008 q 569 941 586 958 m 528 -19 q 192 99 315 -18 q 69 417 69 215 q 192 736 69 619 q 528 853 315 853 q 701 831 614 853 q 853 769 789 808 l 883 572 l 871 572 q 526 811 811 811 q 265 706 361 811 q 169 417 169 600 q 213 209 169 297 q 338 72 256 121 q 528 24 419 24 q 717 56 636 24 q 852 164 799 89 q 913 350 906 239 l 925 350 l 910 160 q 753 28 856 76 q 528 -19 650 -19 z "},"Č":{"ha":1056,"x_min":82,"x_max":988,"o":"m 586 1061 l 572 1061 l 414 1226 l 422 1238 l 581 1146 l 725 1238 l 733 1226 l 586 1061 m 83 488 q 145 751 83 638 q 322 928 207 865 q 588 992 436 992 q 917 897 774 992 l 944 701 l 932 701 q 808 885 901 821 q 588 950 715 950 q 297 824 406 950 q 188 489 188 697 q 295 153 188 281 q 579 22 403 26 q 839 107 735 22 q 975 406 951 199 l 986 406 l 969 188 q 579 -19 843 -19 q 222 121 360 -18 q 83 488 83 260 z "},"č":{"ha":979,"x_min":68,"x_max":925,"o":"m 535 922 l 521 922 l 363 1088 l 371 1099 l 529 1007 l 674 1099 l 682 1088 l 535 922 m 528 -19 q 192 99 315 -18 q 69 417 69 215 q 192 736 69 619 q 528 853 315 853 q 701 831 614 853 q 853 769 789 808 l 883 572 l 871 572 q 526 811 811 811 q 265 706 361 811 q 169 417 169 600 q 265 131 169 236 q 533 24 364 24 q 851 164 751 24 q 913 350 906 239 l 925 350 l 910 160 q 753 28 856 76 q 528 -19 650 -19 z "},"Ď":{"ha":1121,"x_min":82,"x_max":1053,"o":"m 561 1061 l 547 1061 l 389 1226 l 397 1238 l 556 1146 l 700 1238 l 708 1226 l 561 1061 m 554 972 q 915 838 776 972 q 1053 486 1053 704 q 915 134 1053 268 q 554 0 776 0 l 83 0 l 83 14 l 101 14 q 163 40 138 14 q 190 101 189 65 l 190 879 q 163 935 190 913 q 101 958 136 958 l 83 958 l 83 972 l 554 972 m 281 931 l 281 42 l 554 42 q 760 97 671 42 q 899 253 850 153 q 949 486 949 354 q 840 808 949 686 q 554 931 731 931 l 281 931 z "},"ď":{"ha":1056,"x_min":76,"x_max":988,"o":"m 546 924 l 532 924 l 374 1089 l 382 1100 l 539 1008 l 685 1100 l 693 1089 l 546 924 m 540 833 q 866 722 746 833 q 986 417 986 610 q 866 112 986 224 q 540 0 746 0 l 76 0 l 76 14 l 94 14 q 150 36 128 14 q 174 89 172 58 l 174 744 q 149 799 172 778 q 93 819 126 819 l 76 819 l 76 833 l 540 833 m 264 792 l 264 42 l 540 42 q 793 142 700 42 q 886 417 886 243 q 793 691 886 590 q 540 792 700 792 l 264 792 z "},"Đ":{"ha":1121,"x_min":82,"x_max":1053,"o":"m 385 1104 l 385 1153 l 732 1153 l 732 1104 l 385 1104 m 554 972 q 915 838 776 972 q 1053 486 1053 704 q 915 134 1053 268 q 554 0 776 0 l 83 0 l 83 14 l 101 14 q 163 40 138 14 q 190 101 189 65 l 190 879 q 163 935 190 913 q 101 958 136 958 l 85 958 l 83 972 l 554 972 m 281 931 l 281 42 l 554 42 q 760 97 671 42 q 899 253 850 153 q 949 486 949 354 q 840 808 949 686 q 554 931 731 931 l 281 931 z "},"đ":{"ha":1056,"x_min":76,"x_max":988,"o":"m 369 967 l 369 1015 l 717 1015 l 717 967 l 369 967 m 540 833 q 866 722 746 833 q 986 417 986 610 q 866 112 986 224 q 540 0 746 0 l 76 0 l 76 14 l 94 14 q 150 36 128 14 q 174 89 172 58 l 174 744 q 149 799 172 778 q 93 819 126 819 l 76 819 l 76 833 l 540 833 m 264 792 l 264 42 l 540 42 q 793 142 700 42 q 886 417 886 243 q 793 691 886 590 q 540 792 700 792 l 264 792 z "},"Ē":{"ha":801,"x_min":83,"x_max":740,"o":"m 244 1104 l 244 1153 l 592 1153 l 592 1104 l 244 1104 m 101 14 q 163 40 138 14 q 190 101 189 65 l 190 879 q 161 935 186 913 q 101 958 136 958 l 85 958 l 83 972 l 490 972 q 584 981 533 972 q 656 997 635 989 l 656 822 l 642 822 l 642 847 q 619 904 642 881 q 564 929 596 928 l 281 929 l 281 500 l 515 500 q 563 521 543 501 q 582 569 582 540 l 582 589 l 596 589 l 596 369 l 582 369 l 582 390 q 563 438 582 418 q 517 458 544 457 l 281 458 l 281 43 l 479 43 q 636 89 582 43 q 726 225 690 135 l 740 225 l 660 0 l 83 0 l 83 14 l 101 14 z "},"ē":{"ha":758,"x_min":76,"x_max":718,"o":"m 243 965 l 243 1014 l 590 1014 l 590 965 l 243 965 m 96 14 q 152 35 129 14 q 176 88 175 57 l 176 747 q 153 799 176 778 q 96 819 129 819 l 76 819 l 76 833 l 482 833 q 582 842 539 833 q 638 856 625 850 l 638 697 l 622 699 l 622 719 q 603 769 622 749 q 553 790 583 790 l 264 790 l 264 438 l 501 438 q 544 454 529 438 q 558 496 558 471 l 558 514 l 574 514 l 574 319 l 558 319 l 558 338 q 529 390 558 376 q 506 396 518 394 l 264 396 l 264 43 l 482 43 q 590 65 546 43 q 656 118 633 88 q 703 199 679 149 l 717 199 l 640 0 l 76 0 l 76 14 l 96 14 z "},"Ė":{"ha":801,"x_min":83,"x_max":740,"o":"m 455 1080 q 446 1071 455 1080 q 413 1063 438 1063 q 370 1080 388 1063 q 353 1122 353 1097 q 370 1165 353 1147 q 413 1182 388 1182 q 455 1165 438 1182 q 472 1122 472 1147 q 455 1080 472 1097 m 101 14 q 163 40 138 14 q 190 101 189 65 l 190 879 q 144 949 185 925 q 101 958 124 958 l 85 958 l 83 972 l 490 972 q 597 982 550 972 q 656 997 643 992 l 656 822 l 642 822 l 642 847 q 619 904 642 881 q 564 929 596 928 l 281 929 l 281 500 l 515 500 q 563 521 543 501 q 582 569 582 540 l 582 589 l 596 589 l 596 369 l 582 369 l 582 390 q 563 438 582 418 q 517 458 544 457 l 281 458 l 281 43 l 479 43 q 636 89 582 43 q 726 225 690 135 l 740 225 l 660 0 l 83 0 l 83 14 l 101 14 z "},"ė":{"ha":758,"x_min":76,"x_max":718,"o":"m 453 941 q 444 932 453 941 q 410 924 435 924 q 368 941 386 924 q 350 983 350 958 q 368 1026 350 1008 q 410 1043 386 1043 q 453 1026 435 1043 q 471 983 471 1008 q 453 941 471 958 m 96 14 q 152 35 129 14 q 176 88 175 57 l 176 747 q 153 799 176 778 q 96 819 129 819 l 76 819 l 76 833 l 482 833 q 570 840 522 833 q 638 856 618 847 l 638 697 l 622 699 l 622 719 q 603 769 622 749 q 553 790 583 790 l 264 790 l 264 438 l 501 438 q 544 454 529 438 q 558 496 558 471 l 558 514 l 574 514 l 574 319 l 558 319 l 558 338 q 544 378 558 361 q 506 396 531 394 l 264 396 l 264 43 l 482 43 q 590 65 546 43 q 656 118 633 88 q 703 199 679 149 l 717 199 l 640 0 l 76 0 l 76 14 l 96 14 z "},"Ę":{"ha":801,"x_min":83,"x_max":740,"o":"m 556 -104 q 583 -174 556 -146 q 651 -201 611 -201 q 725 -167 692 -201 l 733 -175 q 692 -229 721 -208 q 565 -244 638 -268 q 513 -201 533 -233 q 492 -124 492 -169 q 524 -44 492 -78 q 606 0 556 -11 l 83 0 l 83 14 l 101 14 q 163 40 138 14 q 190 101 189 65 l 190 879 q 161 935 186 913 q 101 958 136 958 l 85 958 l 83 972 l 490 972 q 597 982 550 972 q 656 997 643 992 l 656 822 l 642 822 l 642 847 q 619 904 642 881 q 564 929 596 928 l 281 929 l 281 500 l 515 500 q 563 521 543 501 q 582 569 582 540 l 582 589 l 596 589 l 596 369 l 582 369 l 582 390 q 563 438 582 418 q 517 458 544 457 l 281 458 l 281 43 l 479 43 q 636 89 582 43 q 726 225 690 135 l 740 225 l 658 0 q 556 -104 556 -25 z "},"ę":{"ha":758,"x_min":76,"x_max":718,"o":"m 525 -104 q 553 -174 525 -146 q 622 -201 582 -201 q 694 -167 663 -201 l 703 -175 q 663 -229 692 -208 q 536 -244 608 -269 q 483 -201 504 -233 q 461 -131 461 -169 q 476 -68 461 -93 q 575 0 507 -15 l 76 0 l 76 14 l 96 14 q 152 35 129 14 q 176 88 175 57 l 176 747 q 153 799 176 778 q 96 819 129 819 l 76 819 l 76 833 l 482 833 q 582 842 539 833 q 638 856 625 850 l 638 697 l 622 699 l 622 719 q 603 769 622 749 q 553 790 583 790 l 264 790 l 264 438 l 501 438 q 544 454 529 438 q 558 496 558 471 l 558 514 l 574 514 l 574 319 l 558 319 l 558 338 q 529 390 558 376 q 506 396 518 394 l 264 396 l 264 43 l 482 43 q 590 65 546 43 q 656 118 633 88 q 703 199 679 149 l 717 199 l 640 0 l 629 0 q 525 -104 525 -25 z "},"Ě":{"ha":801,"x_min":83,"x_max":740,"o":"m 421 1061 l 407 1061 l 249 1226 l 257 1238 l 415 1146 l 560 1238 l 568 1226 l 421 1061 m 101 14 q 163 40 138 14 q 190 101 189 65 l 190 879 q 144 947 185 925 q 101 958 124 958 l 85 958 l 83 972 l 490 972 q 584 981 533 972 q 656 997 635 989 l 656 822 l 642 822 l 642 847 q 619 904 642 881 q 564 929 596 928 l 281 929 l 281 500 l 515 500 q 563 521 543 501 q 582 569 582 540 l 582 589 l 596 589 l 596 369 l 582 369 l 582 390 q 563 438 582 418 q 517 458 544 457 l 281 458 l 281 43 l 479 43 q 636 89 582 43 q 726 225 690 135 l 740 225 l 660 0 l 83 0 l 83 14 l 101 14 z "},"ě":{"ha":758,"x_min":76,"x_max":718,"o":"m 419 922 l 406 922 l 247 1088 l 256 1099 l 413 1007 l 558 1099 l 567 1088 l 419 922 m 96 14 q 164 50 142 14 q 176 88 175 67 l 176 747 q 153 799 176 778 q 96 819 129 819 l 76 819 l 76 833 l 482 833 q 570 840 522 833 q 638 856 618 847 l 638 697 l 622 699 l 622 719 q 589 781 622 761 q 553 790 574 790 l 264 790 l 264 438 l 501 438 q 544 454 529 438 q 558 496 558 471 l 558 514 l 574 514 l 574 319 l 558 319 l 558 338 q 544 378 558 361 q 506 396 531 394 l 264 396 l 264 43 l 482 43 q 621 83 574 43 q 703 199 668 122 l 717 199 l 640 0 l 76 0 l 76 14 l 96 14 z "},"Ğ":{"ha":1108,"x_min":82,"x_max":1075,"o":"m 726 1206 q 707 1133 726 1167 q 654 1081 688 1100 q 573 1061 621 1061 q 483 1104 525 1061 q 440 1206 440 1147 l 454 1206 q 501 1153 465 1175 q 583 1131 536 1131 q 665 1153 629 1131 q 713 1206 701 1175 l 726 1206 m 582 -19 q 222 121 360 -18 q 83 486 83 260 q 222 852 83 713 q 582 992 360 992 q 919 897 774 992 l 947 701 l 935 701 q 812 885 904 821 q 582 950 719 950 q 297 822 406 950 q 188 486 188 694 q 297 151 188 278 q 582 22 406 24 q 896 143 765 22 l 896 389 q 877 435 896 419 q 825 451 858 451 l 803 451 l 803 465 l 1075 465 l 1075 451 l 1054 451 q 1001 435 1019 451 q 985 389 983 419 l 985 160 q 826 33 928 85 q 582 -19 725 -19 z "},"ğ":{"ha":1031,"x_min":69,"x_max":1004,"o":"m 668 1067 q 649 994 668 1028 q 597 942 629 961 q 515 922 564 922 q 424 965 467 922 q 382 1067 382 1008 l 396 1067 q 443 1014 407 1036 q 526 992 479 992 q 608 1014 572 992 q 654 1067 643 1036 l 668 1067 m 525 -19 q 194 99 318 -18 q 69 417 69 217 q 194 735 69 618 q 515 853 318 853 q 849 769 711 853 l 879 572 l 867 572 q 753 753 838 694 q 516 811 669 811 q 266 705 363 811 q 169 417 169 599 q 267 128 169 235 q 535 22 364 22 q 831 143 707 22 l 832 328 q 816 367 833 353 q 768 382 799 382 l 749 382 l 749 396 l 1003 396 l 1003 382 l 983 382 q 921 326 921 382 l 921 160 q 760 34 863 88 q 525 -19 658 -19 z "},"Ġ":{"ha":1108,"x_min":83,"x_max":1075,"o":"m 623 1080 q 614 1071 623 1080 q 581 1063 606 1063 q 538 1080 556 1063 q 521 1122 521 1097 q 538 1165 521 1147 q 581 1182 556 1182 q 623 1165 606 1182 q 640 1122 640 1147 q 623 1080 640 1097 m 582 -19 q 222 121 360 -18 q 83 486 83 260 q 222 852 83 713 q 582 992 360 992 q 919 897 774 992 l 947 701 l 935 701 q 812 885 904 821 q 582 950 719 950 q 297 822 406 950 q 188 486 188 694 q 297 151 188 278 q 582 22 406 24 q 753 54 672 22 q 896 143 835 86 l 896 389 q 877 435 896 419 q 825 451 858 451 l 803 451 l 803 465 l 1075 465 l 1075 451 l 1054 451 q 1001 435 1019 451 q 985 389 983 419 l 985 160 q 899 75 949 113 q 765 9 849 38 q 582 -19 681 -19 z "},"ġ":{"ha":1031,"x_min":69,"x_max":1004,"o":"m 566 941 q 557 932 566 941 q 524 924 549 924 q 481 941 499 924 q 464 983 464 958 q 481 1026 464 1008 q 524 1043 499 1043 q 566 1026 549 1043 q 583 983 583 1008 q 566 941 583 958 m 525 -19 q 194 99 318 -18 q 69 417 69 217 q 194 735 69 618 q 515 853 318 853 q 849 769 711 853 l 879 572 l 867 572 q 753 753 838 694 q 516 811 669 811 q 266 705 363 811 q 169 417 169 599 q 267 128 169 235 q 535 22 364 22 q 831 143 707 22 l 832 328 q 816 367 833 353 q 768 382 799 382 l 749 382 l 749 396 l 1003 396 l 1003 382 l 983 382 q 921 326 921 382 l 921 160 q 760 34 863 88 q 525 -19 658 -19 z "},"Ģ":{"ha":1108,"x_min":83,"x_max":1075,"o":"m 582 -19 q 222 121 360 -18 q 83 486 83 260 q 222 852 83 713 q 582 992 360 992 q 919 897 774 992 l 947 701 l 935 701 q 812 885 904 821 q 582 950 719 950 q 297 822 406 950 q 188 486 188 694 q 297 151 188 278 q 582 22 406 24 q 753 54 672 22 q 896 143 835 86 l 896 389 q 877 435 896 419 q 825 451 858 451 l 803 451 l 803 465 l 1075 465 l 1075 451 l 1054 451 q 1001 435 1019 451 q 985 389 983 419 l 985 160 q 899 75 949 113 q 765 9 849 38 q 582 -19 681 -19 m 544 -112 q 585 -89 556 -89 q 630 -120 617 -89 q 643 -171 643 -151 q 608 -259 643 -231 q 536 -289 572 -287 l 533 -279 q 576 -249 564 -269 q 571 -178 599 -211 q 563 -169 568 -175 q 554 -159 557 -162 q 547 -149 551 -156 q 543 -137 543 -143 q 544 -112 539 -125 z "},"ģ":{"ha":1031,"x_min":69,"x_max":1004,"o":"m 525 -19 q 194 99 318 -18 q 69 417 69 217 q 194 735 69 618 q 515 853 318 853 q 849 769 711 853 l 879 572 l 867 572 q 753 753 838 694 q 516 811 669 811 q 266 705 363 811 q 169 417 169 599 q 267 128 169 235 q 535 22 364 22 q 831 143 707 22 l 832 328 q 816 367 833 353 q 768 382 799 382 l 749 382 l 749 396 l 1003 396 l 1003 382 l 983 382 q 921 326 921 382 l 921 160 q 760 34 863 88 q 525 -19 658 -19 m 483 -112 q 524 -89 494 -89 q 569 -120 557 -89 q 582 -171 582 -151 q 547 -259 582 -231 q 475 -289 511 -287 l 472 -279 q 515 -249 503 -269 q 510 -178 538 -211 q 503 -170 507 -175 q 496 -162 499 -165 q 490 -153 493 -158 q 484 -144 486 -149 q 481 -135 482 -140 q 483 -112 478 -124 z "},"Ħ":{"ha":1081,"x_min":58,"x_max":1022,"o":"m 736 14 q 798 39 772 14 q 825 100 824 64 l 825 460 l 257 460 l 257 101 q 301 25 257 50 q 346 14 321 14 l 363 14 l 363 0 l 60 0 l 60 14 l 78 14 q 140 40 114 14 q 167 101 165 65 l 167 692 l 78 692 l 78 733 l 167 733 l 167 872 q 140 933 165 908 q 78 958 114 958 l 60 958 l 60 972 l 363 972 l 363 958 l 346 958 q 283 933 310 958 q 257 872 257 908 l 257 733 l 825 733 l 825 872 q 798 933 824 908 q 736 958 772 958 l 718 958 l 718 972 l 1022 972 l 1022 958 l 1004 958 q 928 915 953 958 q 915 871 915 894 l 915 733 l 1007 733 l 1007 692 l 915 692 l 915 101 q 942 40 915 65 q 1004 14 968 14 l 1022 14 l 1022 0 l 718 0 l 718 14 l 736 14 m 257 501 l 825 501 l 825 692 l 257 692 l 257 501 z "},"ħ":{"ha":1039,"x_min":75,"x_max":965,"o":"m 944 14 l 961 14 l 961 0 l 678 0 l 678 14 l 694 14 q 750 35 726 14 q 775 88 774 57 l 775 390 l 263 390 l 263 88 q 303 24 264 44 q 343 14 322 14 l 360 14 l 360 0 l 76 0 l 76 14 l 93 14 q 149 36 125 14 q 174 89 172 58 l 174 590 l 82 590 l 82 632 l 174 632 l 174 744 q 149 797 172 775 q 93 819 125 819 l 76 819 l 76 833 l 360 833 l 360 819 l 343 819 q 288 798 311 819 q 263 746 264 776 l 263 632 l 775 632 l 775 744 q 757 792 775 775 q 694 819 728 819 l 678 819 l 678 833 l 961 833 l 961 819 l 944 819 q 876 783 900 819 q 864 747 865 767 l 864 632 l 964 632 l 964 590 l 864 590 l 864 88 q 889 35 865 57 q 944 14 913 14 m 775 432 l 775 590 l 263 590 l 263 432 l 775 432 z "},"Ī":{"ha":469,"x_min":65,"x_max":414,"o":"m 65 1104 l 65 1153 l 413 1153 l 413 1104 l 65 1104 m 101 14 q 163 40 138 14 q 190 101 189 65 l 190 872 q 163 933 189 908 q 101 958 138 958 l 83 958 l 83 972 l 388 972 l 388 958 l 369 958 q 308 933 333 958 q 281 872 282 908 l 281 101 q 307 40 281 65 q 369 14 333 14 l 388 14 l 388 0 l 83 0 l 83 14 l 101 14 z "},"ī":{"ha":425,"x_min":43,"x_max":392,"o":"m 43 965 l 43 1014 l 390 1014 l 390 965 l 43 965 m 92 14 q 146 36 124 14 q 168 89 168 58 l 168 744 q 129 810 168 788 q 92 819 113 819 l 76 819 l 76 833 l 350 833 l 349 819 l 335 819 q 281 798 303 819 q 257 746 258 776 l 257 88 q 296 24 258 44 q 335 14 314 14 l 349 14 l 350 0 l 76 0 l 76 14 l 92 14 z "},"Į":{"ha":469,"x_min":82,"x_max":388,"o":"m 157 -104 q 185 -174 157 -146 q 254 -201 214 -201 q 328 -167 294 -201 l 336 -175 q 294 -229 324 -208 q 228 -253 263 -253 q 165 -243 193 -253 q 115 -201 136 -233 q 93 -124 93 -169 q 125 -44 93 -78 q 207 0 157 -11 l 83 0 l 83 14 l 101 14 q 163 40 138 14 q 190 101 189 65 l 190 872 q 163 933 189 908 q 101 958 138 958 l 83 958 l 83 972 l 388 972 l 388 958 l 369 958 q 308 933 333 958 q 281 872 282 908 l 281 101 q 307 40 281 65 q 369 14 333 14 l 388 14 l 388 0 l 261 0 q 157 -104 157 -24 z "},"į":{"ha":426,"x_min":75,"x_max":353,"o":"m 140 -104 q 169 -174 140 -146 q 237 -201 197 -201 q 310 -167 276 -201 l 318 -175 q 278 -229 306 -208 q 210 -253 244 -253 q 148 -243 176 -253 q 98 -201 119 -233 q 76 -124 76 -169 q 108 -44 76 -78 q 190 0 140 -11 l 79 0 l 79 14 l 94 14 q 149 36 126 14 q 171 89 171 58 l 171 744 q 132 810 171 788 q 94 819 115 819 l 79 819 l 79 833 l 353 833 l 351 819 l 336 819 q 271 783 294 819 q 260 746 261 767 l 260 88 q 299 24 261 44 q 336 14 317 14 l 351 14 l 353 0 l 244 0 q 140 -104 140 -24 z "},"İ":{"ha":469,"x_min":82,"x_max":388,"o":"m 276 1080 q 267 1071 276 1080 q 233 1063 258 1063 q 191 1080 208 1063 q 174 1122 174 1097 q 191 1165 174 1147 q 233 1182 208 1182 q 276 1165 258 1182 q 293 1122 293 1147 q 276 1080 293 1097 m 101 14 q 163 40 138 14 q 190 101 189 65 l 190 872 q 163 933 189 908 q 101 958 138 958 l 83 958 l 83 972 l 388 972 l 388 958 l 369 958 q 308 933 333 958 q 281 872 282 908 l 281 101 q 307 40 281 65 q 369 14 333 14 l 388 14 l 388 0 l 83 0 l 83 14 l 101 14 z "},"ı":{"ha":425,"x_min":75,"x_max":350,"o":"m 92 14 q 146 36 124 14 q 168 89 168 58 l 168 744 q 129 810 168 788 q 92 819 113 819 l 76 819 l 76 833 l 350 833 l 349 819 l 335 819 q 281 798 303 819 q 257 746 258 776 l 257 88 q 296 24 258 44 q 335 14 314 14 l 349 14 l 350 0 l 76 0 l 76 14 l 92 14 z "},"Ĳ":{"ha":919,"x_min":82,"x_max":858,"o":"m 101 14 q 163 40 138 14 q 190 101 189 65 l 190 872 q 163 933 189 908 q 101 958 138 958 l 83 958 l 83 972 l 388 972 l 388 958 l 369 958 q 308 933 333 958 q 281 872 282 908 l 281 101 q 307 40 281 65 q 369 14 333 14 l 388 14 l 388 0 l 83 0 l 83 14 l 101 14 m 839 958 q 763 915 789 958 q 750 871 751 896 l 750 0 q 677 -197 750 -117 q 497 -278 604 -278 l 497 -265 q 613 -163 565 -242 q 660 4 660 -85 l 660 871 q 633 933 658 907 q 571 958 607 958 l 553 958 l 553 972 l 857 972 l 857 958 l 839 958 z "},"ĳ":{"ha":896,"x_min":75,"x_max":849,"o":"m 96 14 q 161 36 133 14 q 189 89 189 58 l 189 744 q 161 797 189 775 q 94 819 133 819 l 76 819 l 76 833 l 390 833 l 390 819 l 372 819 q 308 799 335 819 q 278 747 281 778 l 278 88 q 307 35 279 57 q 372 14 335 14 l 390 14 l 392 0 l 76 0 l 76 14 l 96 14 m 829 819 q 767 797 793 819 q 739 744 740 775 l 739 0 q 663 -174 739 -101 q 485 -247 588 -247 l 485 -233 q 601 -144 551 -212 q 650 0 650 -76 l 650 750 q 622 799 647 779 q 560 819 596 819 l 543 819 l 542 833 l 847 833 l 847 819 l 829 819 z "},"Ķ":{"ha":913,"x_min":82,"x_max":928,"o":"m 369 14 l 388 14 l 388 0 l 83 0 l 83 14 l 101 14 q 163 40 138 14 q 190 101 189 65 l 190 872 q 163 933 189 908 q 101 958 138 958 l 83 958 l 83 972 l 388 972 l 388 958 l 369 958 q 308 933 333 958 q 281 872 282 908 l 281 101 q 307 40 281 65 q 369 14 333 14 m 928 0 l 868 0 q 660 79 726 0 l 325 483 l 653 894 q 664 919 664 908 q 660 939 664 931 q 619 960 649 960 l 606 960 l 606 972 l 899 972 l 899 960 l 893 960 q 743 894 801 960 l 417 517 l 796 71 q 928 14 851 15 l 928 0 m 499 -112 q 539 -89 510 -89 q 583 -120 571 -89 q 596 -171 596 -151 q 561 -259 596 -231 q 489 -289 526 -287 l 486 -279 q 531 -249 518 -269 q 524 -178 553 -211 q 517 -169 522 -175 q 508 -159 511 -162 q 501 -149 506 -156 q 496 -137 497 -143 q 499 -112 493 -125 z "},"ķ":{"ha":867,"x_min":76,"x_max":875,"o":"m 346 14 l 361 14 l 361 0 l 76 0 l 76 14 l 93 14 q 150 36 126 14 q 175 89 174 58 l 175 744 q 150 797 174 775 q 93 819 126 819 l 76 819 l 76 833 l 361 833 l 361 819 l 344 819 q 275 783 300 819 q 264 746 264 767 l 264 88 q 288 35 264 57 q 346 14 313 14 m 874 0 l 822 0 q 618 79 686 0 l 313 414 l 611 765 q 616 802 626 785 q 581 819 606 819 l 568 819 l 568 833 l 851 833 l 851 819 l 846 819 q 711 769 761 819 l 408 446 l 753 71 q 804 28 778 40 q 874 14 831 15 l 874 0 m 464 -112 q 504 -89 475 -89 q 549 -120 536 -89 q 563 -180 563 -151 q 544 -236 563 -208 q 454 -289 511 -286 l 451 -279 q 494 -249 483 -269 q 489 -178 517 -211 q 482 -169 488 -175 q 474 -159 476 -162 q 467 -149 471 -156 q 461 -137 463 -143 q 464 -112 458 -125 z "},"Ĺ":{"ha":781,"x_min":83,"x_max":740,"o":"m 235 1061 l 225 1071 q 401 1253 332 1185 q 458 1179 439 1215 q 235 1061 369 1128 m 101 14 q 163 40 138 14 q 190 101 189 65 l 190 871 q 163 933 189 907 q 101 958 138 958 l 83 958 l 83 972 l 388 972 l 388 958 l 369 958 q 293 915 319 958 q 281 871 281 894 l 281 43 l 479 43 q 636 89 582 43 q 726 225 690 135 l 740 225 l 660 0 l 83 0 l 83 14 l 101 14 z "},"ĺ":{"ha":744,"x_min":76,"x_max":718,"o":"m 218 922 l 208 932 q 385 1114 314 1046 q 442 1040 422 1076 q 218 922 353 989 m 96 14 q 152 35 129 14 q 176 88 175 57 l 176 744 q 151 797 175 775 q 93 819 126 819 l 76 819 l 76 833 l 364 833 l 364 819 l 347 819 q 290 797 314 819 q 265 744 265 775 l 265 43 l 482 43 q 621 83 574 44 q 703 199 668 122 l 717 199 l 640 0 l 76 0 l 76 14 l 96 14 z "},"Ļ":{"ha":781,"x_min":83,"x_max":740,"o":"m 101 14 q 163 40 138 14 q 190 101 189 65 l 190 871 q 163 933 189 907 q 101 958 138 958 l 83 958 l 83 972 l 388 972 l 388 958 l 369 958 q 293 915 319 958 q 281 871 281 894 l 281 43 l 479 43 q 636 89 582 43 q 726 225 690 135 l 740 225 l 660 0 l 83 0 l 83 14 l 101 14 m 389 -93 q 429 -69 400 -69 q 474 -101 461 -69 q 486 -151 486 -132 q 451 -240 486 -211 q 379 -269 417 -268 l 378 -260 q 421 -229 408 -250 q 415 -158 443 -192 q 407 -149 413 -156 q 399 -140 401 -143 q 392 -130 396 -136 q 386 -118 388 -124 q 389 -93 383 -106 z "},"ļ":{"ha":744,"x_min":76,"x_max":718,"o":"m 96 14 q 152 35 129 14 q 176 88 175 57 l 176 744 q 151 797 175 775 q 93 819 126 819 l 76 819 l 76 833 l 364 833 l 364 819 l 347 819 q 290 797 314 819 q 265 744 265 775 l 265 43 l 482 43 q 590 65 546 43 q 658 118 635 88 q 703 199 681 149 l 717 199 l 640 0 l 76 0 l 76 14 l 96 14 m 418 -112 q 458 -89 428 -89 q 503 -120 490 -89 q 515 -171 515 -151 q 480 -259 515 -231 q 408 -289 444 -287 l 406 -279 q 449 -249 438 -269 q 443 -178 471 -211 q 436 -169 442 -175 q 428 -159 431 -162 q 421 -149 425 -156 q 415 -137 417 -143 q 418 -112 413 -125 z "},"Ľ":{"ha":781,"x_min":83,"x_max":740,"o":"m 556 981 q 572 981 556 981 q 600 949 588 981 q 613 890 613 918 q 594 832 613 861 q 506 781 563 782 l 503 789 q 546 819 533 799 q 533 899 568 860 q 514 956 504 932 q 556 981 524 981 m 101 14 q 163 40 138 14 q 190 101 189 65 l 190 871 q 163 933 189 907 q 101 958 138 958 l 83 958 l 83 972 l 388 972 l 388 958 l 369 958 q 307 933 333 958 q 281 871 281 907 l 281 43 l 479 43 q 636 89 582 43 q 726 225 690 135 l 740 225 l 660 0 l 83 0 l 83 14 l 101 14 z "},"ľ":{"ha":744,"x_min":75,"x_max":718,"o":"m 544 838 q 560 838 544 838 q 589 806 576 838 q 601 747 601 775 q 583 689 601 718 q 494 638 551 639 l 492 646 q 535 676 522 656 q 522 756 557 717 q 503 813 493 789 q 544 838 513 838 m 96 14 q 152 35 129 14 q 176 88 175 57 l 176 744 q 151 797 175 775 q 93 819 126 819 l 76 819 l 76 833 l 364 833 l 364 819 l 347 819 q 290 797 314 819 q 265 744 265 775 l 265 43 l 482 43 q 621 83 574 44 q 703 199 668 122 l 717 199 l 640 0 l 76 0 l 76 14 l 96 14 z "},"Ŀ":{"ha":781,"x_min":83,"x_max":740,"o":"m 101 14 q 163 40 138 14 q 190 101 189 65 l 190 871 q 163 933 189 907 q 101 958 138 958 l 83 958 l 83 972 l 388 972 l 388 958 l 369 958 q 293 915 319 958 q 281 871 281 894 l 281 43 l 479 43 q 636 89 582 43 q 726 225 690 135 l 740 225 l 660 0 l 83 0 l 83 14 l 101 14 m 508 578 q 499 569 508 578 q 465 560 490 560 q 420 578 439 560 q 401 622 401 596 q 420 667 401 649 q 465 685 439 685 q 508 667 490 685 q 526 622 526 649 q 508 578 526 596 z "},"ŀ":{"ha":744,"x_min":76,"x_max":718,"o":"m 96 14 q 152 35 129 14 q 176 88 175 57 l 176 744 q 151 797 175 775 q 93 819 126 819 l 76 819 l 76 833 l 364 833 l 364 819 l 347 819 q 290 797 314 819 q 265 744 265 775 l 265 43 l 482 43 q 590 65 546 43 q 658 118 635 88 q 703 199 681 149 l 717 199 l 640 0 l 76 0 l 76 14 l 96 14 m 481 494 q 472 485 481 494 q 437 476 463 476 q 392 494 411 476 q 374 539 374 513 q 392 583 374 565 q 437 601 411 601 q 481 583 463 601 q 499 539 499 565 q 481 494 499 513 z "},"Ł":{"ha":781,"x_min":24,"x_max":740,"o":"m 101 14 q 163 40 138 14 q 190 101 189 65 l 190 428 l 46 344 l 25 381 l 190 476 l 190 871 q 163 933 189 907 q 101 958 138 958 l 83 958 l 83 972 l 388 972 l 388 958 l 369 958 q 307 933 333 958 q 281 871 281 907 l 281 528 l 453 628 l 474 592 l 281 481 l 281 43 l 479 43 q 636 89 582 43 q 726 225 690 135 l 740 225 l 660 0 l 83 0 l 83 14 l 101 14 z "},"ł":{"ha":744,"x_min":68,"x_max":718,"o":"m 96 14 q 165 50 142 14 q 176 88 175 67 l 176 356 l 89 304 l 69 339 l 176 401 l 176 744 q 151 797 175 775 q 93 819 126 819 l 76 819 l 76 833 l 364 833 l 364 819 l 347 819 q 290 797 314 819 q 265 744 265 775 l 265 451 l 461 565 l 482 532 l 265 407 l 265 43 l 482 43 q 590 65 546 43 q 658 118 635 88 q 703 199 681 149 l 717 199 l 640 0 l 76 0 l 76 14 l 96 14 z "},"Ń":{"ha":1168,"x_min":61,"x_max":1107,"o":"m 592 1061 l 582 1071 q 758 1253 688 1185 q 815 1179 796 1215 q 592 1061 725 1128 m 1081 958 q 1021 934 1046 958 q 994 875 996 910 l 994 158 q 1004 6 994 78 l 1007 -19 l 994 -19 l 238 789 l 238 97 q 281 25 239 49 q 322 14 300 14 l 349 14 l 349 0 l 63 0 l 63 14 l 89 14 q 149 38 124 14 q 174 99 174 63 l 174 819 q 164 971 174 904 l 161 993 l 175 993 l 932 185 l 932 874 q 906 934 931 910 q 846 958 881 958 l 819 958 l 819 972 l 1106 972 l 1106 958 l 1081 958 z "},"ń":{"ha":1082,"x_min":49,"x_max":1035,"o":"m 539 922 l 529 932 q 706 1114 635 1046 q 763 1040 743 1076 q 539 922 672 989 m 1010 819 q 957 799 979 819 q 933 750 935 779 l 933 158 q 943 6 933 78 l 946 -19 l 933 -19 l 211 665 l 211 86 q 233 35 211 56 q 288 14 256 14 l 311 14 l 311 0 l 49 0 l 49 14 l 72 14 q 126 35 104 14 q 149 86 149 56 l 149 681 q 139 832 149 765 l 136 854 l 151 853 l 872 174 l 872 750 q 847 799 869 779 q 794 819 825 819 l 771 819 l 771 833 l 1033 833 l 1033 819 l 1010 819 z "},"Ņ":{"ha":1168,"x_min":61,"x_max":1107,"o":"m 1081 958 q 1021 934 1046 958 q 994 875 996 910 l 994 158 q 1004 6 994 78 l 1007 -19 l 994 -19 l 238 789 l 238 97 q 281 25 239 49 q 322 14 300 14 l 349 14 l 349 0 l 63 0 l 63 14 l 89 14 q 149 38 124 14 q 174 99 174 63 l 174 819 q 164 971 174 904 l 161 993 l 175 993 l 932 185 l 932 874 q 906 934 931 910 q 846 958 881 958 l 819 958 l 819 972 l 1106 972 l 1106 958 l 1081 958 m 554 -112 q 594 -89 564 -89 q 640 -120 626 -89 q 653 -180 653 -151 q 635 -236 653 -208 q 544 -289 601 -286 l 542 -279 q 585 -249 572 -269 q 579 -178 607 -211 q 572 -169 576 -175 q 563 -159 567 -162 q 556 -149 560 -156 q 551 -137 553 -143 q 554 -112 549 -125 z "},"ņ":{"ha":1082,"x_min":49,"x_max":1035,"o":"m 1010 819 q 957 799 979 819 q 933 750 935 779 l 933 158 q 943 6 933 78 l 946 -19 l 933 -19 l 211 665 l 211 86 q 233 35 211 56 q 288 14 256 14 l 311 14 l 311 0 l 49 0 l 49 14 l 72 14 q 126 35 104 14 q 149 86 149 56 l 149 681 q 139 832 149 765 l 136 854 l 151 853 l 872 174 l 872 750 q 847 799 869 779 q 794 819 825 819 l 771 819 l 771 833 l 1033 833 l 1033 819 l 1010 819 m 515 -112 q 556 -89 525 -89 q 601 -120 588 -89 q 614 -180 614 -151 q 596 -236 614 -208 q 506 -289 563 -286 l 503 -279 q 546 -249 535 -269 q 540 -178 568 -211 q 533 -169 539 -175 q 525 -159 528 -162 q 518 -149 522 -156 q 513 -137 514 -143 q 515 -112 510 -125 z "},"Ň":{"ha":1168,"x_min":61,"x_max":1107,"o":"m 599 1061 l 585 1061 l 426 1226 l 435 1238 l 592 1146 l 738 1238 l 746 1226 l 599 1061 m 1081 958 q 1021 934 1046 958 q 994 875 996 910 l 994 158 q 1004 6 994 78 l 1007 -19 l 994 -19 l 238 789 l 238 97 q 263 38 238 63 q 322 14 288 14 l 349 14 l 349 0 l 63 0 l 63 14 l 89 14 q 149 38 124 14 q 174 99 174 63 l 174 819 q 164 971 174 904 l 161 993 l 175 993 l 932 185 l 932 874 q 906 934 931 910 q 846 958 881 958 l 819 958 l 819 972 l 1106 972 l 1106 958 l 1081 958 z "},"ň":{"ha":1082,"x_min":49,"x_max":1035,"o":"m 546 922 l 532 922 l 374 1088 l 382 1099 l 539 1007 l 685 1099 l 693 1088 l 546 922 m 1010 819 q 957 799 979 819 q 933 750 935 779 l 933 158 q 943 6 933 78 l 946 -19 l 933 -19 l 211 665 l 211 86 q 250 24 211 44 q 288 14 267 14 l 311 14 l 311 0 l 49 0 l 49 14 l 72 14 q 126 35 104 14 q 149 86 149 56 l 149 681 q 139 832 149 765 l 136 854 l 151 853 l 872 174 l 872 750 q 847 799 869 779 q 794 819 825 819 l 771 819 l 771 833 l 1033 833 l 1033 819 l 1010 819 z "},"Ŋ":{"ha":1138,"x_min":63,"x_max":1076,"o":"m 1053 954 q 1001 933 1022 954 q 979 882 979 913 l 979 -44 q 953 -167 979 -115 q 890 -243 928 -218 q 801 -279 851 -268 l 794 -268 q 881 -190 846 -244 q 917 -42 917 -135 l 917 46 l 222 789 l 222 90 q 244 39 222 60 q 296 18 265 18 l 318 18 l 318 0 l 63 0 l 63 18 l 85 18 q 137 39 115 18 q 158 90 158 60 l 158 819 q 149 971 158 904 l 146 993 l 160 993 l 915 186 l 915 882 q 894 933 915 913 q 842 954 872 954 l 819 954 l 819 972 l 1075 972 l 1075 954 l 1053 954 z "},"ŋ":{"ha":1165,"x_min":49,"x_max":1035,"o":"m 1011 819 q 961 800 982 819 q 938 751 940 781 l 938 -24 q 892 -173 938 -118 q 774 -243 846 -228 l 767 -232 q 844 -156 813 -211 q 875 -21 875 -100 l 875 36 l 211 665 l 211 86 q 233 35 211 56 q 288 14 256 14 l 311 14 l 311 0 l 49 0 l 49 14 l 72 14 q 126 35 104 14 q 149 86 149 56 l 149 681 q 139 832 149 765 l 136 854 l 151 853 l 875 172 l 875 750 q 853 799 875 779 q 800 819 831 819 l 778 819 l 778 833 l 1033 833 l 1033 819 l 1011 819 z "},"Ō":{"ha":1164,"x_min":97,"x_max":1096,"o":"m 426 1104 l 426 1153 l 774 1153 l 774 1104 l 426 1104 m 235 852 q 305 922 235 852 q 596 992 374 992 q 957 852 818 992 q 1096 486 1096 713 q 957 120 1096 260 q 596 -19 818 -19 q 235 120 374 -19 q 97 486 97 260 q 235 852 97 713 m 312 150 q 366 86 312 150 q 597 22 419 22 q 881 150 774 22 q 989 486 989 278 q 940 729 989 624 q 802 892 892 835 q 596 950 713 950 q 312 822 419 950 q 204 486 204 694 q 312 150 204 278 z "},"ō":{"ha":1075,"x_min":68,"x_max":1007,"o":"m 368 965 l 368 1014 l 715 1014 l 715 965 l 368 965 m 303 798 q 356 825 303 798 q 538 853 410 853 q 774 798 667 853 q 944 643 881 743 q 1007 417 1007 543 q 944 190 1007 290 q 774 35 881 90 q 538 -19 667 -19 q 303 35 410 -19 q 133 190 196 90 q 69 417 69 290 q 133 643 69 543 q 303 798 196 743 m 277 133 q 330 77 277 133 q 538 22 382 22 q 799 133 693 22 q 904 417 904 243 q 799 701 904 590 q 538 811 693 811 q 277 701 382 811 q 172 417 172 590 q 277 133 172 243 z "},"Ő":{"ha":1164,"x_min":97,"x_max":1096,"o":"m 517 1067 l 501 1069 q 594 1251 543 1161 q 679 1235 644 1249 q 517 1067 604 1151 m 686 1067 l 671 1069 q 764 1251 714 1171 q 849 1235 806 1251 q 686 1067 754 1129 m 235 852 q 305 922 235 852 q 597 992 374 992 q 958 852 819 992 q 1096 486 1096 713 q 958 120 1096 260 q 597 -19 819 -19 q 235 120 374 -19 q 97 486 97 260 q 235 852 97 713 m 312 150 q 366 86 312 150 q 597 22 419 22 q 881 150 774 22 q 989 486 989 278 q 940 729 989 624 q 802 892 892 835 q 596 950 713 950 q 312 822 419 950 q 204 486 204 694 q 312 150 204 278 z "},"ő":{"ha":1075,"x_min":69,"x_max":1007,"o":"m 458 928 l 443 931 q 536 1113 486 1022 q 621 1096 588 1110 q 458 928 546 1013 m 629 928 l 614 931 q 707 1113 656 1032 q 790 1096 747 1113 q 629 928 697 990 m 303 798 q 356 825 303 798 q 538 853 410 853 q 774 798 667 853 q 944 643 881 743 q 1007 417 1007 543 q 944 190 1007 290 q 774 35 881 90 q 538 -19 667 -19 q 303 35 410 -19 q 133 190 196 90 q 69 417 69 290 q 133 643 69 543 q 303 798 196 743 m 277 133 q 330 77 277 133 q 538 22 382 22 q 799 133 694 22 q 904 417 904 243 q 799 701 904 590 q 538 811 694 811 q 277 701 382 811 q 172 417 172 590 q 277 133 172 243 z "},"Œ":{"ha":1336,"x_min":83,"x_max":1296,"o":"m 1214 0 l 828 0 q 689 -10 772 0 q 575 -19 606 -19 q 219 119 354 -19 q 83 486 83 258 q 119 693 83 599 q 218 853 154 788 q 374 955 282 918 q 557 992 467 992 q 715 982 647 992 q 825 972 782 972 l 1044 972 q 1139 981 1088 972 q 1210 997 1190 989 l 1210 822 l 1193 822 l 1193 847 q 1171 904 1193 881 q 1115 929 1149 928 l 829 929 l 829 500 l 1069 500 q 1118 521 1099 501 q 1138 569 1138 540 l 1138 589 l 1151 589 l 1151 369 l 1138 369 l 1138 390 q 1118 438 1138 418 q 1071 458 1099 457 l 829 458 l 829 43 l 1035 43 q 1190 89 1136 43 q 1281 225 1244 135 l 1294 225 l 1214 0 m 575 950 q 291 822 399 950 q 183 486 183 694 q 291 150 183 278 q 575 22 399 22 q 717 51 665 22 q 744 89 744 68 l 744 883 q 693 934 744 918 q 575 950 642 950 z "},"œ":{"ha":1229,"x_min":69,"x_max":1182,"o":"m 1111 0 l 742 0 q 608 -10 682 0 q 506 -19 535 -19 q 189 98 308 -19 q 69 417 69 215 q 189 735 69 618 q 506 853 308 853 q 628 843 561 853 q 739 833 696 833 l 964 833 q 1056 842 1017 833 q 1107 856 1096 850 l 1107 699 l 1093 699 l 1093 719 q 1074 770 1093 750 q 1025 790 1056 790 l 743 790 l 743 436 l 979 436 q 1020 453 1006 438 q 1035 496 1035 469 l 1035 513 l 1049 513 l 1049 318 l 1035 318 l 1035 336 q 1020 378 1035 361 q 979 394 1006 394 l 743 394 l 743 43 l 963 43 q 1092 83 1047 43 q 1168 199 1136 122 l 1182 199 l 1111 0 m 506 813 q 261 706 354 813 q 168 417 168 599 q 261 128 168 235 q 506 21 354 21 q 612 40 565 21 q 658 90 658 58 l 658 744 q 614 796 658 779 q 506 813 569 813 z "},"Ŕ":{"ha":940,"x_min":83,"x_max":956,"o":"m 450 1061 l 440 1071 q 615 1253 546 1185 q 672 1179 653 1215 q 450 1061 583 1128 m 369 929 l 281 929 l 281 101 q 306 40 281 65 q 369 14 332 14 l 386 14 l 388 0 l 83 0 l 83 14 l 101 14 q 163 39 138 14 q 190 100 189 64 l 190 871 q 163 933 189 907 q 101 958 138 958 l 83 958 l 83 972 l 458 972 q 657 902 585 972 q 729 720 729 832 q 660 527 729 608 q 493 446 592 446 q 542 408 514 436 q 593 349 571 379 q 751 135 713 178 q 809 76 790 93 q 850 44 828 60 q 956 14 896 14 l 956 0 l 879 0 q 768 22 819 0 q 691 66 717 43 q 647 110 665 89 q 543 254 628 132 q 444 394 458 376 q 415 428 431 411 q 326 475 371 475 l 326 489 q 356 488 338 488 q 400 489 374 488 q 617 633 572 493 q 625 685 625 661 q 625 717 625 710 q 576 867 622 810 q 453 928 531 924 q 369 929 419 929 z "},"ŕ":{"ha":871,"x_min":76,"x_max":893,"o":"m 419 922 l 410 932 q 586 1114 515 1046 q 643 1040 624 1076 q 419 922 554 989 m 336 790 l 263 790 l 263 89 q 301 24 264 46 q 342 14 319 14 l 360 14 l 361 0 l 76 0 l 76 14 l 96 14 q 151 35 128 14 q 174 88 174 57 l 174 747 q 151 799 174 778 q 96 819 128 819 l 76 819 l 76 833 l 425 833 q 631 774 556 833 q 707 617 707 714 q 646 454 707 519 q 490 379 585 389 q 597 271 535 360 q 645 210 596 271 q 724 115 694 149 q 774 63 754 81 q 892 14 825 14 l 892 0 l 849 0 q 676 43 739 0 q 590 122 629 75 q 520 220 582 133 q 454 313 458 307 q 314 406 379 406 l 314 419 q 510 436 476 419 q 572 486 556 460 q 607 608 607 542 q 557 739 607 693 q 422 789 507 785 q 336 790 385 790 z "},"Ŗ":{"ha":940,"x_min":83,"x_max":956,"o":"m 369 929 l 281 929 l 281 101 q 306 40 281 65 q 369 14 332 14 l 386 14 l 388 0 l 83 0 l 83 14 l 101 14 q 163 39 138 14 q 190 100 189 64 l 190 871 q 163 933 189 907 q 101 958 138 958 l 83 958 l 83 972 l 458 972 q 657 902 585 972 q 729 720 729 832 q 660 527 729 608 q 493 446 592 446 q 542 408 514 436 q 593 349 571 379 q 749 138 713 178 q 800 84 785 99 q 833 56 815 69 q 869 33 851 42 q 956 14 910 14 l 956 0 l 879 0 q 768 22 819 0 q 691 66 717 43 q 647 110 665 89 q 543 254 628 132 q 444 394 458 376 q 415 428 431 411 q 326 475 371 475 l 326 489 q 356 488 338 488 q 400 489 374 488 q 617 633 572 493 q 625 685 625 661 q 625 717 625 710 q 576 867 622 810 q 453 928 531 924 q 369 929 419 929 m 486 -93 q 526 -69 497 -69 q 572 -101 560 -69 q 585 -160 585 -132 q 567 -217 585 -189 q 478 -269 535 -267 l 475 -260 q 518 -229 506 -250 q 513 -158 540 -192 q 504 -149 510 -156 q 496 -140 499 -143 q 490 -130 493 -136 q 485 -118 486 -124 q 486 -93 481 -106 z "},"ŗ":{"ha":871,"x_min":76,"x_max":893,"o":"m 336 790 l 263 790 l 263 89 q 301 24 264 46 q 342 14 319 14 l 360 14 l 361 0 l 76 0 l 76 14 l 96 14 q 151 35 128 14 q 174 88 174 57 l 174 747 q 151 799 174 778 q 96 819 128 819 l 76 819 l 76 833 l 425 833 q 631 774 556 833 q 707 617 707 714 q 646 454 707 519 q 490 379 585 389 q 597 271 535 360 q 645 210 596 271 q 724 115 694 149 q 774 63 754 81 q 892 14 825 14 l 892 0 l 849 0 q 676 43 739 0 q 590 122 629 75 q 520 220 582 133 q 454 313 458 307 q 314 406 379 406 l 314 419 q 510 436 476 419 q 572 486 556 460 q 607 608 607 542 q 557 739 607 693 q 422 789 507 785 q 336 790 385 790 m 472 -112 q 513 -89 483 -89 q 557 -120 544 -89 q 569 -171 569 -151 q 535 -259 569 -231 q 463 -289 500 -287 l 460 -279 q 504 -249 492 -269 q 497 -178 526 -211 q 490 -169 496 -175 q 482 -159 485 -162 q 475 -149 479 -156 q 469 -137 471 -143 q 472 -112 467 -125 z "},"Ř":{"ha":940,"x_min":82,"x_max":956,"o":"m 457 1061 l 443 1061 l 283 1226 l 292 1238 l 450 1146 l 596 1238 l 604 1226 l 457 1061 m 369 929 l 281 929 l 281 101 q 306 40 281 65 q 369 14 332 14 l 386 14 l 386 0 l 83 0 l 83 14 l 101 14 q 163 39 138 14 q 190 100 189 64 l 190 871 q 163 933 189 907 q 101 958 138 958 l 83 958 l 83 972 l 458 972 q 657 902 585 972 q 729 720 729 832 q 660 527 729 608 q 493 446 592 446 q 542 408 514 436 q 593 349 571 379 q 763 122 713 178 q 856 40 814 67 q 956 14 899 14 l 956 0 l 879 0 q 768 22 819 0 q 691 66 717 43 q 647 110 665 89 q 543 254 628 132 q 444 394 458 376 q 415 428 431 411 q 326 475 371 475 l 326 489 q 356 488 338 488 q 400 489 374 488 q 617 633 572 493 q 625 685 625 661 q 625 717 625 710 q 576 867 622 810 q 453 928 531 924 q 369 929 419 929 z "},"ř":{"ha":871,"x_min":75,"x_max":893,"o":"m 426 922 l 413 922 l 254 1088 l 263 1099 l 421 1007 l 565 1099 l 574 1088 l 426 922 m 336 790 l 263 790 l 263 89 q 301 24 264 46 q 342 14 319 14 l 360 14 l 361 0 l 76 0 l 76 14 l 96 14 q 150 35 128 14 q 174 88 172 57 l 174 747 q 151 799 174 778 q 96 819 128 819 l 76 819 l 76 833 l 425 833 q 631 774 556 833 q 707 617 707 714 q 646 454 707 519 q 490 379 585 389 q 543 338 513 369 q 585 288 574 306 q 615 247 597 271 q 737 99 699 136 q 797 44 775 61 q 892 14 836 14 l 892 0 l 849 0 q 676 43 739 0 q 590 122 629 75 q 520 220 582 133 q 454 313 458 307 q 314 406 379 406 l 314 419 q 510 436 476 419 q 572 485 556 460 q 607 608 607 542 q 557 739 607 693 q 422 789 507 785 q 336 790 385 790 z "},"Ś":{"ha":660,"x_min":79,"x_max":582,"o":"m 332 1061 l 322 1071 q 499 1253 429 1185 q 556 1179 536 1215 q 332 1061 467 1128 m 85 57 q 81 132 81 76 q 101 250 81 188 l 114 250 q 113 219 113 235 q 164 78 113 135 q 300 22 215 22 q 444 75 388 22 q 500 208 500 128 q 446 338 500 288 l 179 585 q 104 753 104 654 q 170 922 104 851 q 349 992 236 992 q 468 978 401 992 l 522 978 l 522 807 l 510 807 q 465 911 510 872 q 349 950 419 950 q 230 903 278 950 q 182 785 182 856 q 238 663 182 714 l 511 410 q 581 235 581 346 q 510 52 581 124 q 321 -19 439 -19 q 191 -1 260 -19 q 85 57 122 18 z "},"ś":{"ha":642,"x_min":75,"x_max":567,"o":"m 322 922 l 313 932 q 489 1114 418 1046 q 546 1040 526 1076 q 322 922 457 989 m 81 46 q 76 115 76 63 q 94 218 76 167 l 111 218 q 110 193 110 206 q 159 70 110 118 q 296 22 208 22 q 439 65 388 22 q 490 174 490 107 q 440 286 490 242 l 163 500 q 96 653 96 557 q 126 753 96 707 q 209 826 156 799 q 335 853 263 853 q 463 840 407 853 l 508 840 l 511 689 l 496 689 q 456 779 496 747 q 340 811 415 811 q 217 773 265 811 q 168 674 168 735 q 222 569 168 614 l 503 353 q 567 206 567 300 q 495 46 567 111 q 321 -19 424 -19 q 185 -3 253 -19 q 81 46 117 14 z "},"Ş":{"ha":660,"x_min":79,"x_max":582,"o":"m 85 57 q 81 132 81 76 q 101 250 81 188 l 114 250 q 113 219 113 235 q 164 78 113 135 q 300 22 215 22 q 444 75 388 22 q 500 208 500 128 q 446 338 500 288 l 179 585 q 104 753 104 654 q 170 922 104 851 q 349 992 236 992 q 468 978 401 992 l 522 978 l 522 807 l 510 807 q 465 911 510 872 q 349 950 419 950 q 230 903 278 950 q 182 785 182 856 q 238 663 182 714 l 511 410 q 581 239 581 346 q 519 62 581 132 q 351 -18 457 -8 l 294 -83 q 340 -75 317 -75 q 419 -103 399 -75 q 440 -168 440 -132 q 379 -258 440 -229 q 309 -275 343 -275 q 244 -265 275 -275 l 246 -251 q 333 -231 296 -251 q 371 -167 371 -210 q 300 -106 371 -106 q 254 -117 276 -106 l 247 -103 l 313 -19 q 186 1 251 -18 q 85 57 121 19 z "},"ş":{"ha":572,"x_min":61,"x_max":553,"o":"m 67 46 q 61 114 61 63 q 79 218 61 165 l 96 218 q 94 193 94 206 q 144 70 94 118 q 282 22 194 22 q 424 65 374 22 q 475 174 475 107 q 425 286 475 242 l 147 500 q 81 653 81 557 q 110 753 81 707 q 194 826 140 799 q 319 853 247 853 q 447 840 392 853 l 494 840 l 496 689 l 481 689 q 440 779 481 747 q 325 811 400 811 q 201 773 250 811 q 153 674 153 735 q 207 569 153 614 l 489 353 q 551 207 551 300 q 484 50 551 114 q 318 -19 417 -14 l 261 -85 q 307 -76 285 -76 q 386 -105 365 -76 q 407 -169 407 -133 q 347 -260 407 -231 q 277 -276 311 -276 q 211 -267 243 -276 l 213 -253 q 301 -232 264 -253 q 338 -168 338 -211 q 268 -107 338 -107 q 221 -118 244 -107 l 214 -104 l 281 -19 q 67 46 131 -11 z "},"Š":{"ha":660,"x_min":79,"x_max":581,"o":"m 339 1061 l 325 1061 l 167 1226 l 175 1238 l 333 1146 l 478 1238 l 486 1226 l 339 1061 m 85 57 q 81 132 81 76 q 101 250 81 188 l 114 250 q 113 219 113 235 q 164 78 113 135 q 300 22 215 22 q 444 75 388 22 q 500 208 500 128 q 446 338 500 288 l 179 585 q 104 753 104 654 q 170 922 104 851 q 349 992 236 992 q 468 978 401 992 l 522 978 l 522 807 l 508 807 q 465 911 510 872 q 349 950 419 950 q 230 903 278 950 q 182 785 182 856 q 238 663 182 714 l 511 410 q 581 235 581 346 q 510 52 581 124 q 321 -19 439 -19 q 191 -1 260 -19 q 85 57 122 18 z "},"š":{"ha":642,"x_min":75,"x_max":567,"o":"m 329 922 l 315 922 l 157 1088 l 165 1099 l 324 1007 l 468 1099 l 476 1088 l 329 922 m 81 46 q 76 114 76 63 q 94 218 76 165 l 111 218 q 110 193 110 206 q 159 70 110 118 q 296 22 208 22 q 439 65 388 22 q 490 174 490 107 q 440 286 490 242 l 163 500 q 96 653 96 557 q 126 753 96 707 q 209 826 156 799 q 335 853 263 853 q 463 840 407 853 l 508 840 l 511 689 l 494 689 q 455 779 494 747 q 340 811 415 811 q 217 773 265 811 q 168 674 168 735 q 222 569 168 614 l 503 353 q 567 206 567 300 q 495 46 567 111 q 321 -19 424 -19 q 185 -3 253 -19 q 81 46 117 14 z "},"Ţ":{"ha":858,"x_min":28,"x_max":832,"o":"m 472 -150 q 401 -89 472 -89 q 356 -100 379 -89 l 349 -86 l 415 0 l 278 0 l 278 14 l 296 14 q 358 39 332 14 q 385 99 383 64 l 385 932 l 121 932 q 65 906 88 931 q 42 849 42 882 l 42 825 l 28 824 l 28 999 q 100 982 49 990 q 194 974 151 974 l 664 974 q 772 983 725 974 q 832 999 818 993 l 832 824 l 818 825 l 818 849 q 778 919 818 896 q 739 932 760 931 l 475 932 l 475 100 q 502 39 476 64 q 564 14 528 14 l 582 14 l 582 0 l 453 0 l 396 -67 q 442 -58 418 -58 q 521 -87 500 -58 q 542 -151 542 -115 q 481 -242 542 -212 q 412 -258 446 -258 q 346 -249 378 -258 l 347 -235 q 435 -214 397 -235 q 472 -150 472 -193 z "},"ţ":{"ha":803,"x_min":19,"x_max":783,"o":"m 442 -150 q 371 -89 442 -89 q 325 -100 347 -89 l 318 -86 l 383 0 l 258 0 l 258 14 l 275 14 q 332 36 308 14 q 357 89 356 58 l 357 793 l 106 793 q 55 772 74 793 q 36 722 36 751 l 36 700 l 21 700 l 21 857 q 99 840 49 846 q 175 835 150 835 l 628 835 q 727 843 683 835 q 783 857 771 851 l 783 700 l 768 700 l 768 722 q 749 772 768 751 q 699 793 729 793 l 447 793 l 447 88 q 489 24 449 44 q 529 14 507 14 l 544 14 l 544 0 l 422 0 l 365 -67 q 443 -61 408 -51 q 511 -146 511 -79 q 450 -242 511 -212 q 380 -258 414 -258 q 315 -249 346 -258 l 317 -235 q 404 -214 367 -235 q 442 -150 442 -193 z "},"Ť":{"ha":858,"x_min":26,"x_max":832,"o":"m 436 1061 l 422 1061 l 264 1226 l 272 1238 l 429 1146 l 575 1238 l 583 1226 l 436 1061 m 818 849 q 778 919 818 896 q 739 932 760 931 l 475 932 l 475 100 q 519 25 476 50 q 564 14 540 14 l 582 14 l 582 0 l 278 0 l 278 14 l 296 14 q 358 39 332 14 q 385 99 383 64 l 385 932 l 121 932 q 65 906 88 931 q 42 849 42 882 l 42 825 l 28 824 l 28 999 q 100 982 49 990 q 194 974 151 974 l 664 974 q 759 982 707 974 q 832 999 811 990 l 832 824 l 818 825 l 818 849 z "},"ť":{"ha":803,"x_min":21,"x_max":783,"o":"m 410 924 l 396 924 l 236 1089 l 244 1100 l 403 1008 l 549 1100 l 557 1089 l 410 924 m 447 793 l 447 88 q 472 35 449 57 q 529 14 496 14 l 544 14 l 544 0 l 258 0 l 258 14 l 275 14 q 332 36 308 14 q 357 89 356 58 l 357 793 l 106 793 q 44 757 63 792 q 36 722 36 742 l 36 700 l 21 700 l 21 857 q 88 842 40 849 q 175 835 136 835 l 628 835 q 715 842 667 835 q 783 857 764 849 l 783 700 l 768 700 l 768 722 q 735 783 768 763 q 699 793 719 793 l 447 793 z "},"Ŧ":{"ha":858,"x_min":28,"x_max":832,"o":"m 818 849 q 778 919 818 896 q 739 932 760 931 l 475 932 l 475 557 l 700 557 l 700 515 l 475 515 l 475 100 q 502 39 476 64 q 564 14 528 14 l 582 14 l 582 0 l 278 0 l 278 14 l 296 14 q 358 39 332 14 q 385 99 383 64 l 385 515 l 161 515 l 161 557 l 385 557 l 385 932 l 121 932 q 65 906 88 931 q 42 849 42 882 l 42 825 l 28 824 l 28 999 q 100 982 49 990 q 194 974 151 974 l 664 974 q 759 982 707 974 q 832 999 811 990 l 832 824 l 818 825 l 818 849 z "},"ŧ":{"ha":803,"x_min":19,"x_max":783,"o":"m 447 793 l 447 469 l 653 469 l 653 428 l 447 428 l 447 88 q 472 35 449 57 q 529 14 496 14 l 544 14 l 544 0 l 258 0 l 258 14 l 275 14 q 333 36 308 14 q 357 89 357 58 l 357 428 l 156 428 l 156 469 l 357 469 l 357 793 l 106 793 q 55 772 74 793 q 36 722 36 751 l 36 700 l 21 700 l 21 857 q 99 840 49 846 q 175 835 150 835 l 628 835 q 715 842 667 835 q 783 857 764 849 l 783 700 l 768 700 l 768 722 q 735 783 768 763 q 699 793 719 793 l 447 793 z "},"Ū":{"ha":1090,"x_min":68,"x_max":1022,"o":"m 388 1104 l 388 1153 l 735 1153 l 735 1104 l 388 1104 m 1021 958 l 999 958 q 948 940 969 958 q 925 893 926 921 l 925 343 q 822 81 925 181 q 549 -19 719 -19 q 272 80 378 -19 q 165 342 165 179 l 165 889 q 129 950 165 931 q 92 958 113 958 l 69 958 l 69 972 l 351 972 l 351 958 l 329 958 q 278 940 299 958 q 256 892 257 921 l 256 361 q 337 117 256 210 q 554 24 418 24 q 775 112 690 24 q 860 343 860 200 l 860 892 q 838 940 858 921 q 786 958 817 958 l 764 958 l 764 972 l 1021 972 l 1021 958 z "},"ū":{"ha":972,"x_min":54,"x_max":925,"o":"m 317 965 l 317 1014 l 664 1014 l 664 965 l 317 965 m 924 819 l 903 819 q 846 790 865 819 q 836 761 838 778 l 836 293 q 744 65 836 149 q 490 -19 651 -19 q 236 64 329 -19 q 143 292 143 147 l 143 760 q 124 802 143 785 q 76 819 104 819 l 56 819 l 56 833 l 319 833 l 319 819 l 299 819 q 251 802 271 819 q 232 760 232 785 l 232 308 q 301 96 232 174 q 495 18 369 18 q 697 92 621 18 q 772 293 772 165 l 772 760 q 752 803 771 786 q 706 819 733 819 l 685 819 l 685 833 l 924 833 l 924 819 z "},"Ů":{"ha":1090,"x_min":68,"x_max":1022,"o":"m 445 1219 q 454 1231 445 1219 q 492 1256 463 1243 q 568 1269 521 1269 q 652 1242 615 1269 q 689 1165 689 1214 q 625 1075 689 1104 q 549 1061 594 1061 q 465 1091 503 1061 q 428 1158 428 1121 q 445 1219 428 1196 m 607 1224 q 597 1235 607 1224 q 558 1246 588 1246 q 509 1224 528 1246 q 490 1165 490 1203 q 509 1107 490 1128 q 558 1086 528 1086 q 607 1107 588 1086 q 626 1165 626 1128 q 607 1224 626 1203 m 1021 958 l 999 958 q 948 940 969 958 q 925 893 926 921 l 925 343 q 822 81 925 181 q 549 -19 719 -19 q 272 80 378 -19 q 165 342 165 179 l 165 889 q 144 939 165 919 q 92 958 122 958 l 69 958 l 69 972 l 351 972 l 351 958 l 329 958 q 278 940 299 958 q 256 892 257 921 l 256 361 q 337 117 256 210 q 554 24 418 24 q 775 112 690 24 q 860 343 860 200 l 860 892 q 838 940 858 921 q 786 958 817 958 l 764 958 l 764 972 l 1021 972 l 1021 958 z "},"ů":{"ha":972,"x_min":54,"x_max":925,"o":"m 488 1131 q 516 1131 488 1131 q 581 1103 544 1131 q 618 1036 618 1075 q 600 974 618 997 q 497 922 564 922 q 394 952 431 922 q 357 1027 357 982 q 394 1101 357 1072 q 488 1131 431 1131 m 536 1085 q 526 1096 536 1085 q 487 1107 517 1107 q 438 1085 457 1107 q 419 1026 419 1064 q 438 968 419 989 q 487 947 457 947 q 536 968 517 947 q 556 1026 556 989 q 536 1085 556 1064 m 924 819 l 903 819 q 846 790 865 819 q 836 761 838 778 l 836 293 q 744 65 836 149 q 490 -19 651 -19 q 236 64 329 -19 q 143 292 143 147 l 143 760 q 124 802 143 785 q 76 819 104 819 l 56 819 l 56 833 l 319 833 l 319 819 l 299 819 q 251 802 271 819 q 232 760 232 785 l 232 308 q 301 96 232 174 q 495 18 369 18 q 697 92 621 18 q 772 293 772 165 l 772 760 q 752 803 771 786 q 706 819 733 819 l 685 819 l 685 833 l 924 833 l 924 819 z "},"Ű":{"ha":1090,"x_min":69,"x_max":1022,"o":"m 479 1067 l 464 1069 q 557 1251 506 1161 q 640 1235 607 1249 q 479 1067 565 1151 m 649 1067 l 633 1069 q 726 1251 675 1171 q 811 1235 767 1251 q 649 1067 717 1129 m 1021 958 l 999 958 q 948 940 969 958 q 925 893 926 921 l 925 343 q 822 81 925 181 q 549 -19 719 -19 q 272 80 378 -19 q 165 342 165 179 l 165 890 q 144 939 165 919 q 92 958 122 958 l 69 958 l 69 972 l 351 972 l 351 958 l 329 958 q 267 926 288 958 q 256 892 257 911 l 256 361 q 337 117 256 210 q 554 24 418 24 q 775 112 690 24 q 860 343 860 200 l 860 892 q 838 940 858 921 q 788 958 817 958 l 764 958 l 764 972 l 1021 972 l 1021 958 z "},"ű":{"ha":972,"x_min":56,"x_max":925,"o":"m 407 928 l 392 931 q 485 1113 435 1022 q 569 1096 536 1110 q 407 928 494 1013 m 578 928 l 563 931 q 656 1113 604 1032 q 740 1096 696 1113 q 578 928 646 990 m 924 819 l 903 819 q 846 790 865 819 q 836 761 838 778 l 836 293 q 744 65 836 149 q 490 -19 651 -19 q 236 64 329 -19 q 143 292 143 147 l 143 760 q 124 802 143 785 q 76 819 104 819 l 56 819 l 56 833 l 319 833 l 319 819 l 299 819 q 251 802 271 819 q 232 760 232 785 l 232 308 q 301 96 232 174 q 495 18 369 18 q 697 92 621 18 q 772 293 772 165 l 772 760 q 731 815 771 800 q 706 819 719 819 l 685 819 l 685 833 l 924 833 l 924 819 z "},"Ų":{"ha":1090,"x_min":68,"x_max":1022,"o":"m 517 -118 q 544 -187 517 -160 q 613 -215 572 -215 q 686 -181 653 -215 l 694 -189 q 653 -243 682 -222 q 526 -258 599 -282 q 474 -215 496 -247 q 453 -140 453 -183 q 478 -65 453 -97 q 546 -19 504 -33 q 270 81 375 -18 q 165 342 165 181 l 165 889 q 129 950 165 931 q 92 958 113 958 l 69 958 l 69 972 l 351 972 l 351 958 l 329 958 q 278 940 299 958 q 256 892 257 921 l 256 361 q 337 117 256 210 q 554 24 418 24 q 775 112 690 24 q 860 343 860 200 l 860 892 q 838 940 858 921 q 786 958 817 958 l 764 958 l 764 972 l 1021 972 l 1021 958 l 999 958 q 948 940 969 958 q 925 893 926 921 l 925 343 q 841 100 925 197 q 614 -15 757 3 q 517 -118 517 -40 z "},"ų":{"ha":972,"x_min":54,"x_max":925,"o":"m 435 -124 q 463 -193 435 -165 q 531 -221 490 -221 q 604 -186 571 -221 l 613 -194 q 571 -249 600 -228 q 504 -272 539 -272 q 441 -262 469 -272 q 392 -221 413 -253 q 371 -144 371 -189 q 401 -65 371 -99 q 479 -19 432 -32 q 233 67 324 -17 q 143 292 143 150 l 143 760 q 124 802 143 785 q 76 819 104 819 l 56 819 l 56 833 l 319 833 l 319 819 l 299 819 q 251 802 271 819 q 232 760 232 785 l 232 308 q 301 96 232 174 q 495 18 369 18 q 697 92 621 18 q 772 293 772 165 l 772 760 q 752 803 771 786 q 706 819 733 819 l 685 819 l 685 833 l 924 833 l 924 819 l 903 819 q 846 790 865 819 q 836 761 838 778 l 836 293 q 697 31 836 111 q 538 -18 631 -10 q 435 -124 435 -44 z "},"Ŵ":{"ha":1364,"x_min":-14,"x_max":1379,"o":"m 697 1236 l 711 1236 l 869 1071 l 861 1060 l 703 1151 l 558 1060 l 550 1071 l 697 1236 m 1378 958 l 1367 958 q 1295 937 1331 958 q 1244 872 1260 915 l 1014 138 q 983 -17 986 50 l 971 -17 l 688 778 l 476 138 q 447 -17 450 51 l 435 -17 l 119 874 q 68 937 103 915 q -3 958 33 958 l -14 958 l -14 972 l 294 972 l 294 958 l 282 958 q 238 940 253 958 q 224 904 224 921 q 228 874 224 888 l 439 197 l 697 994 l 710 993 l 983 225 l 1169 875 q 1174 906 1174 890 q 1160 940 1174 922 q 1117 958 1146 958 l 1104 958 l 1104 972 l 1378 972 l 1378 958 z "},"ŵ":{"ha":1249,"x_min":-11,"x_max":1257,"o":"m 636 1099 l 650 1099 l 808 935 l 800 924 l 642 1015 l 497 924 l 489 935 l 636 1099 m 1256 819 l 1246 819 q 1132 738 1163 819 l 931 138 q 899 -17 901 50 l 885 -17 l 626 644 l 446 138 q 415 -17 418 51 l 403 -17 l 111 743 q 0 819 79 819 l -11 819 l -11 833 l 275 833 l 275 819 l 264 819 q 226 804 239 819 q 213 774 213 789 q 217 744 213 758 l 401 179 l 636 856 l 650 854 l 899 221 l 1054 736 q 1035 815 1072 797 q 1013 819 1024 819 l 1001 819 l 1001 833 l 1256 833 l 1256 819 z "},"Ŷ":{"ha":918,"x_min":-14,"x_max":933,"o":"m 465 1236 l 479 1236 l 638 1071 l 629 1060 l 471 1151 l 326 1060 l 318 1071 l 465 1236 m 933 958 l 914 958 q 835 935 872 958 q 774 878 799 913 l 500 433 l 500 101 q 526 40 500 65 q 589 14 551 14 l 606 14 l 606 0 l 303 0 l 303 14 l 321 14 q 383 39 357 14 q 410 100 408 64 l 410 435 l 144 878 q 85 935 124 911 q 6 958 47 958 l -14 958 l -14 972 l 328 972 l 328 958 l 310 958 q 263 931 279 958 q 254 901 254 915 q 261 872 254 886 l 469 483 l 692 874 q 699 901 699 888 q 689 931 699 915 q 642 958 672 958 l 625 958 l 625 972 l 933 972 l 933 958 z "},"ŷ":{"ha":889,"x_min":-7,"x_max":897,"o":"m 456 1097 l 469 1097 l 628 932 l 619 921 l 463 1013 l 317 921 l 308 932 l 456 1097 m 896 819 l 879 819 q 808 799 842 819 q 751 749 774 779 l 485 344 l 485 89 q 508 36 485 58 q 565 14 532 14 l 582 14 l 582 0 l 297 0 l 297 14 l 314 14 q 371 36 347 14 q 394 89 394 58 l 394 346 l 138 750 q 10 819 90 819 l -7 819 l -7 833 l 315 833 l 315 819 l 299 819 q 260 803 272 819 q 249 774 249 786 q 251 753 249 763 l 454 393 l 669 751 q 674 774 674 763 q 662 803 674 786 q 622 819 650 819 l 606 819 l 606 833 l 896 833 l 896 819 z "},"Ÿ":{"ha":918,"x_min":-14,"x_max":933,"o":"m 380 1077 q 372 1069 380 1077 q 342 1061 364 1061 q 303 1077 319 1061 q 288 1115 288 1093 q 303 1153 288 1138 q 342 1169 319 1169 q 380 1153 364 1169 q 396 1115 396 1138 q 380 1077 396 1093 m 641 1077 q 633 1069 641 1077 q 603 1061 625 1061 q 565 1077 581 1061 q 549 1115 549 1093 q 565 1153 549 1138 q 603 1169 581 1169 q 641 1153 625 1169 q 657 1115 657 1138 q 641 1077 657 1093 m 933 958 l 914 958 q 835 935 872 958 q 774 878 799 913 l 500 433 l 500 101 q 526 40 500 65 q 589 14 551 14 l 606 14 l 606 0 l 303 0 l 303 14 l 321 14 q 383 39 357 14 q 410 100 408 64 l 410 435 l 144 878 q 85 935 124 911 q 6 958 47 958 l -14 958 l -14 972 l 328 972 l 328 958 l 310 958 q 263 931 279 958 q 254 901 254 915 q 261 872 254 886 l 469 483 l 692 874 q 699 901 699 888 q 689 931 699 915 q 642 958 671 958 l 625 958 l 625 972 l 933 972 l 933 958 z "},"Ź":{"ha":904,"x_min":82,"x_max":857,"o":"m 450 1061 l 440 1071 q 617 1253 546 1185 q 674 1179 654 1215 q 450 1061 583 1128 m 811 0 l 83 0 l 83 13 l 667 932 l 199 932 q 140 907 164 931 q 117 849 117 883 l 117 824 l 103 824 l 103 999 q 176 982 124 990 q 251 974 229 974 q 272 974 272 974 l 658 974 q 757 981 717 974 q 806 992 797 988 l 806 979 l 211 42 l 653 42 q 774 89 726 42 q 843 214 821 136 l 857 214 l 811 0 z "},"ź":{"ha":844,"x_min":69,"x_max":811,"o":"m 417 922 l 407 932 q 583 1114 513 1046 q 640 1040 619 1076 q 417 922 550 989 m 106 722 l 106 700 l 90 700 l 90 857 q 156 842 108 849 q 246 835 204 836 l 565 835 q 658 840 608 835 q 722 853 708 846 l 722 840 l 194 42 l 575 42 q 683 65 639 43 q 751 117 728 86 q 796 199 774 147 l 810 199 l 735 0 l 69 0 l 69 13 l 588 793 l 174 793 q 124 772 143 792 q 106 722 106 751 z "},"Ż":{"ha":904,"x_min":82,"x_max":857,"o":"m 490 1080 q 481 1071 490 1080 q 448 1063 472 1063 q 406 1080 424 1063 q 389 1122 389 1097 q 406 1165 389 1147 q 448 1182 424 1182 q 490 1165 472 1182 q 508 1122 508 1147 q 490 1080 508 1097 m 811 0 l 83 0 l 83 13 l 667 932 l 199 932 q 140 907 164 931 q 117 849 117 883 l 117 824 l 103 824 l 103 999 q 176 982 124 990 q 251 974 229 974 q 272 974 272 974 l 658 974 q 763 981 726 974 q 806 992 799 989 l 806 979 l 211 42 l 653 42 q 774 89 726 42 q 843 214 822 136 l 857 214 l 811 0 z "},"ż":{"ha":844,"x_min":69,"x_max":811,"o":"m 456 941 q 448 932 456 941 q 415 924 439 924 q 372 941 390 924 q 354 983 354 958 q 372 1026 354 1008 q 415 1043 390 1043 q 456 1026 439 1043 q 474 983 474 1008 q 456 941 474 958 m 106 722 l 106 700 l 90 700 l 90 857 q 156 842 108 849 q 246 835 204 836 l 565 835 q 658 840 608 835 q 722 853 708 846 l 722 840 l 194 42 l 575 42 q 683 65 639 43 q 751 117 728 86 q 796 199 774 147 l 810 199 l 735 0 l 69 0 l 69 13 l 588 793 l 174 793 q 114 757 132 792 q 106 722 106 740 z "},"Ž":{"ha":904,"x_min":82,"x_max":857,"o":"m 457 1061 l 443 1061 l 285 1226 l 293 1238 l 450 1146 l 596 1238 l 604 1226 l 457 1061 m 811 0 l 83 0 l 83 13 l 667 932 l 199 932 q 140 907 164 931 q 117 849 117 883 l 117 824 l 103 824 l 103 999 q 176 982 124 990 q 251 974 229 974 q 272 974 272 974 l 658 974 q 757 981 717 974 q 806 992 797 988 l 806 979 l 211 42 l 653 42 q 774 89 726 42 q 843 214 821 136 l 857 214 l 811 0 z "},"ž":{"ha":844,"x_min":68,"x_max":811,"o":"m 424 922 l 410 922 l 251 1088 l 260 1099 l 417 1007 l 563 1099 l 571 1088 l 424 922 m 106 721 l 106 700 l 90 700 l 90 857 q 246 835 139 838 l 564 835 q 658 840 608 835 q 722 853 708 846 l 722 840 l 194 42 l 575 42 q 683 65 639 43 q 751 117 728 86 q 796 199 774 147 l 810 199 l 735 0 l 69 0 l 69 13 l 588 793 l 174 793 q 124 772 143 792 q 106 721 106 751 z "},"ƒ":{"ha":685,"x_min":28,"x_max":603,"o":"m 588 719 q 569 770 588 750 q 519 790 550 790 l 257 790 l 257 438 l 474 438 q 514 454 500 438 q 528 496 528 471 l 528 514 l 542 514 l 542 319 l 528 319 l 528 338 q 515 378 528 361 q 476 396 501 394 l 257 396 l 257 0 q 189 -174 257 -100 q 28 -247 121 -247 l 28 -233 q 128 -145 88 -212 q 168 0 168 -78 l 168 747 q 124 814 167 796 q 94 819 110 819 l 76 819 l 76 833 l 458 833 q 540 840 496 833 q 601 856 583 847 l 601 697 l 588 699 l 588 719 z "},"Ș":{"ha":656,"x_min":79,"x_max":578,"o":"m 507 408 q 578 231 578 338 q 508 53 578 125 q 325 -19 439 -18 q 186 0 253 -19 q 83 57 119 19 q 81 124 81 82 q 96 222 81 165 l 108 222 q 135 118 108 163 q 325 22 192 22 q 476 114 431 28 q 497 207 497 154 q 444 339 497 286 l 179 586 q 103 758 103 663 q 170 922 103 853 q 326 992 238 992 q 471 978 415 992 l 519 978 l 519 828 l 507 828 q 468 901 507 861 q 442 924 457 914 q 351 950 407 950 q 258 928 294 950 q 200 869 221 906 q 179 792 179 833 q 235 661 179 715 l 507 408 m 328 -87 q 344 -87 328 -87 q 372 -119 360 -87 q 385 -171 385 -150 q 349 -258 385 -229 q 278 -287 314 -287 l 275 -279 q 319 -249 307 -269 q 306 -168 342 -208 q 286 -140 288 -149 q 288 -111 282 -124 q 328 -87 297 -87 z "},"ș":{"ha":642,"x_min":75,"x_max":567,"o":"m 81 46 q 76 114 76 63 q 94 218 76 165 l 111 218 q 110 193 110 206 q 159 70 110 118 q 296 22 208 22 q 439 65 388 22 q 490 174 490 107 q 440 286 490 242 l 163 500 q 96 653 96 557 q 126 753 96 707 q 209 826 156 799 q 335 853 263 853 q 463 840 407 853 l 508 840 l 511 689 l 496 689 q 456 779 496 747 q 340 811 415 811 q 217 773 265 811 q 168 674 168 735 q 222 569 168 614 l 503 353 q 567 206 567 300 q 495 46 567 111 q 321 -19 424 -19 q 185 -3 253 -19 q 81 46 117 14 m 281 -112 q 321 -89 292 -89 q 366 -120 353 -89 q 379 -180 379 -151 q 361 -236 379 -208 q 271 -289 328 -286 l 268 -279 q 311 -249 300 -269 q 306 -178 333 -211 q 299 -169 304 -175 q 290 -159 293 -162 q 283 -149 288 -156 q 278 -137 279 -143 q 281 -112 275 -125 z "},"Ț":{"ha":858,"x_min":28,"x_max":832,"o":"m 818 849 q 794 906 818 882 q 739 932 771 931 l 475 932 l 475 100 q 502 39 476 64 q 564 14 528 14 l 582 14 l 582 0 l 278 0 l 278 14 l 296 14 q 358 39 332 14 q 385 99 383 64 l 385 932 l 121 932 q 65 906 88 931 q 42 849 42 882 l 42 825 l 28 824 l 28 999 q 100 982 49 990 q 194 974 151 974 l 664 974 q 777 984 732 974 q 832 999 822 994 l 832 824 l 818 825 l 818 849 m 392 -112 q 432 -89 403 -89 q 477 -120 464 -89 q 490 -180 490 -151 q 472 -236 490 -208 q 382 -289 439 -286 l 379 -279 q 422 -249 411 -269 q 417 -178 444 -211 q 410 -169 415 -175 q 401 -159 404 -162 q 394 -149 399 -156 q 389 -137 390 -143 q 392 -112 386 -125 z "},"ț":{"ha":761,"x_min":19,"x_max":783,"o":"m 447 793 l 447 88 q 489 24 449 44 q 529 14 507 14 l 544 14 l 544 0 l 258 0 l 258 14 l 275 14 q 332 36 308 14 q 357 89 356 58 l 357 793 l 106 793 q 55 772 74 793 q 36 722 36 751 l 36 700 l 21 700 l 21 857 q 99 840 49 846 q 175 835 150 835 l 628 835 q 783 857 728 835 l 783 700 l 768 700 l 768 722 q 749 772 768 751 q 699 793 729 793 l 447 793 m 363 -112 q 403 -89 374 -89 q 448 -120 435 -89 q 461 -180 461 -151 q 443 -236 461 -208 q 353 -289 410 -286 l 350 -279 q 393 -249 382 -269 q 388 -178 415 -211 q 381 -169 386 -175 q 372 -159 375 -162 q 365 -149 369 -156 q 360 -137 361 -143 q 363 -112 357 -125 z "},"ˆ":{"ha":833,"x_min":229,"x_max":551,"o":"m 378 1189 l 392 1189 l 550 1024 l 542 1013 l 383 1104 l 239 1013 l 231 1024 l 378 1189 z "},"ˇ":{"ha":833,"x_min":229,"x_max":551,"o":"m 403 1013 l 389 1013 l 231 1178 l 239 1189 l 396 1097 l 542 1189 l 550 1178 l 403 1013 z "},"˘":{"ha":611,"x_min":163,"x_max":450,"o":"m 449 1186 q 429 1114 449 1147 q 377 1061 410 1081 q 296 1042 344 1042 q 205 1085 247 1042 q 163 1186 163 1128 l 176 1186 q 224 1133 188 1156 q 306 1111 260 1111 q 388 1133 351 1111 q 435 1186 424 1156 l 449 1186 z "},"˙":{"ha":833,"x_min":357,"x_max":478,"o":"m 460 991 q 452 982 460 991 q 418 974 443 974 q 376 991 393 974 q 358 1033 358 1008 q 376 1076 358 1058 q 418 1093 393 1093 q 460 1076 443 1093 q 478 1033 478 1058 q 460 991 478 1008 z "},"˚":{"ha":833,"x_min":288,"x_max":550,"o":"m 306 1129 q 314 1141 306 1129 q 352 1166 322 1153 q 428 1179 382 1179 q 512 1151 475 1179 q 549 1075 549 1124 q 512 1000 549 1029 q 419 971 475 971 q 326 1001 363 971 q 289 1068 289 1031 q 306 1129 289 1106 m 467 1134 q 458 1145 467 1134 q 419 1156 449 1156 q 369 1134 389 1156 q 350 1075 350 1113 q 369 1016 350 1038 q 419 994 389 994 q 467 1016 449 994 q 486 1075 486 1038 q 467 1134 486 1113 z "},"˛":{"ha":833,"x_min":357,"x_max":600,"o":"m 421 -86 q 449 -156 421 -128 q 517 -183 478 -183 q 590 -149 557 -183 l 599 -157 q 558 -211 586 -190 q 491 -235 525 -235 q 428 -225 457 -235 q 378 -183 400 -215 q 357 -101 357 -151 q 402 -14 357 -50 q 511 22 447 22 l 525 18 q 421 -86 421 -7 z "},"˜":{"ha":833,"x_min":225,"x_max":574,"o":"m 482 1035 q 558 1082 539 1035 l 572 1082 q 525 985 564 1013 q 478 972 506 972 q 392 1003 450 972 q 314 1033 335 1033 q 239 976 263 1033 l 225 976 q 257 1063 233 1031 q 314 1094 281 1094 q 403 1065 347 1094 q 482 1035 460 1035 z "},"˝":{"ha":833,"x_min":278,"x_max":626,"o":"m 294 1043 l 279 1046 q 372 1228 321 1136 q 457 1210 422 1225 q 294 1043 382 1126 m 464 1043 l 449 1046 q 542 1228 490 1147 q 626 1210 583 1228 q 464 1043 532 1106 z "},"̦":{"ha":0,"x_min":40,"x_max":153,"o":"m 94 0 q 110 0 94 0 q 140 -31 126 0 q 153 -91 153 -62 q 135 -147 153 -119 q 44 -200 101 -197 l 42 -190 q 85 -160 72 -181 q 79 -89 107 -122 q 72 -80 76 -86 q 63 -70 67 -74 q 56 -60 60 -67 q 51 -49 53 -54 q 54 -24 49 -36 q 94 0 63 0 z "},"Δ":{"ha":906,"x_min":7,"x_max":899,"o":"m 899 0 l 7 0 l 7 14 l 446 992 l 460 992 l 899 14 l 899 0 m 775 42 l 426 850 l 68 42 l 775 42 z "},"Ω":{"ha":1122,"x_min":74,"x_max":1046,"o":"m 646 0 l 646 90 q 840 261 754 153 q 943 549 943 389 q 895 748 943 656 q 759 895 847 840 q 564 950 671 950 q 292 830 403 950 q 181 536 181 710 q 365 165 181 326 q 469 90 414 122 l 469 0 l 140 0 l 74 194 l 88 194 q 158 101 126 125 q 250 76 190 76 l 428 76 q 219 206 297 121 q 83 551 83 357 q 144 769 83 668 q 317 931 204 871 q 563 992 429 992 q 805 931 696 992 q 976 767 914 871 q 1039 536 1039 663 q 949 283 1039 425 q 838 160 907 217 q 689 76 768 103 l 869 76 q 961 101 929 76 q 1032 194 993 125 l 1046 194 l 979 0 l 646 0 z "},"μ":{"ha":1219,"x_min":10,"x_max":1210,"o":"m 1189 14 l 1210 14 l 1210 0 l 921 0 l 921 13 l 942 13 q 978 28 963 13 q 992 67 994 44 l 919 639 l 657 122 q 608 -19 618 38 l 594 -19 l 260 626 l 197 67 q 210 29 194 46 q 249 13 226 13 l 268 13 l 268 0 l 11 0 l 11 14 l 32 14 q 110 50 82 14 q 126 93 124 68 l 235 853 l 249 853 l 615 147 l 969 853 l 982 853 l 1094 90 q 1126 35 1100 56 q 1189 14 1153 14 z "},"π":{"ha":976,"x_min":75,"x_max":901,"o":"m 643 14 q 697 36 675 14 q 721 89 719 58 l 721 717 q 698 769 719 747 q 646 792 676 792 l 332 792 q 280 770 301 792 q 257 718 258 749 l 257 88 q 281 35 258 57 q 335 14 303 14 l 349 14 l 350 0 l 76 0 l 76 14 l 92 14 q 146 36 124 14 q 168 89 168 58 l 168 744 q 129 810 168 788 q 92 819 113 819 l 76 819 l 76 833 l 901 833 l 901 819 l 886 819 q 833 798 856 819 q 810 746 811 776 l 810 88 q 849 24 811 44 q 886 14 865 14 l 901 14 l 901 0 l 628 0 l 629 14 l 643 14 z "},"Ẁ":{"ha":1364,"x_min":-14,"x_max":1379,"o":"m 714 1071 l 704 1061 q 481 1179 592 1114 q 538 1253 501 1218 q 714 1071 625 1168 m 1378 958 l 1367 958 q 1295 937 1331 958 q 1244 872 1260 915 l 1014 138 q 983 -17 986 49 l 971 -17 l 688 778 l 476 138 q 447 -17 450 51 l 435 -17 l 119 874 q 68 937 103 915 q -3 958 33 958 l -14 958 l -14 972 l 294 972 l 294 958 l 282 958 q 238 940 253 958 q 224 904 224 921 q 228 874 224 888 l 439 197 l 697 994 l 710 993 l 983 225 l 1169 875 q 1174 906 1174 890 q 1160 940 1174 922 q 1117 958 1146 958 l 1104 958 l 1104 972 l 1378 972 l 1378 958 z "},"ẁ":{"ha":1249,"x_min":-11,"x_max":1257,"o":"m 653 935 l 643 925 q 419 1043 532 978 q 476 1117 440 1082 q 653 935 565 1032 m 1256 819 l 1246 819 q 1132 736 1163 819 l 931 138 q 899 -17 900 49 l 885 -17 l 626 644 l 446 138 q 415 -17 418 51 l 403 -17 l 111 743 q 0 819 79 819 l -11 819 l -11 833 l 275 833 l 275 819 l 264 819 q 228 807 240 819 q 217 744 207 783 l 401 179 l 636 856 l 650 854 l 899 221 l 1054 735 q 1061 771 1061 756 q 1050 803 1061 786 q 1013 819 1039 819 l 1001 819 l 1001 833 l 1256 833 l 1256 819 z "},"Ẃ":{"ha":1364,"x_min":-14,"x_max":1379,"o":"m 704 1061 l 694 1071 q 871 1253 800 1185 q 928 1179 907 1215 q 704 1061 838 1128 m 1378 958 l 1367 958 q 1295 937 1331 958 q 1244 872 1260 915 l 1014 138 q 983 -17 986 50 l 971 -17 l 688 778 l 476 138 q 447 -17 450 51 l 435 -17 l 119 874 q 68 937 103 915 q -3 958 33 958 l -14 958 l -14 972 l 294 972 l 294 958 l 282 958 q 238 940 253 958 q 224 904 224 921 q 228 874 224 888 l 439 197 l 697 994 l 710 993 l 983 225 l 1169 875 q 1174 906 1174 890 q 1160 940 1174 922 q 1117 958 1146 958 l 1104 958 l 1104 972 l 1378 972 l 1378 958 z "},"ẃ":{"ha":1249,"x_min":-11,"x_max":1257,"o":"m 643 925 l 633 935 q 810 1117 739 1049 q 867 1043 847 1079 q 643 925 778 990 m 1256 819 l 1246 819 q 1132 738 1163 819 l 931 138 q 899 -17 900 50 l 885 -17 l 626 644 l 446 138 q 415 -17 418 51 l 403 -17 l 111 743 q 0 819 79 819 l -11 819 l -11 833 l 275 833 l 275 819 l 264 819 q 228 807 240 819 q 217 744 207 783 l 401 179 l 636 856 l 650 854 l 899 221 l 1054 736 q 1035 815 1072 797 q 1013 819 1024 819 l 1001 819 l 1001 833 l 1256 833 l 1256 819 z "},"Ẅ":{"ha":1364,"x_min":-14,"x_max":1379,"o":"m 612 1077 q 604 1069 612 1077 q 573 1061 596 1061 q 535 1077 550 1061 q 519 1115 519 1093 q 535 1153 519 1138 q 573 1169 550 1169 q 612 1153 596 1169 q 628 1115 628 1138 q 612 1077 628 1093 m 873 1077 q 865 1069 873 1077 q 835 1061 857 1061 q 797 1077 813 1061 q 781 1115 781 1093 q 797 1153 781 1138 q 835 1169 813 1169 q 873 1153 857 1169 q 889 1115 889 1138 q 873 1077 889 1093 m 1378 958 l 1367 958 q 1276 921 1315 958 q 1244 872 1254 901 l 1014 138 q 983 -17 986 50 l 971 -17 l 688 778 l 476 138 q 447 -17 450 51 l 435 -17 l 119 874 q 68 937 103 915 q -3 958 33 958 l -14 958 l -14 972 l 294 972 l 294 958 l 282 958 q 238 940 253 958 q 224 904 224 921 q 228 874 224 888 l 439 197 l 697 994 l 710 993 l 983 225 l 1169 875 q 1174 906 1174 890 q 1160 940 1174 922 q 1117 958 1146 958 l 1104 958 l 1104 972 l 1378 972 l 1378 958 z "},"ẅ":{"ha":1249,"x_min":-11,"x_max":1257,"o":"m 551 941 q 543 933 551 941 q 513 925 535 925 q 474 941 490 925 q 458 979 458 957 q 474 1017 458 1001 q 513 1033 490 1033 q 551 1017 535 1033 q 567 979 567 1001 q 551 941 567 957 m 813 941 q 805 933 813 941 q 774 925 797 925 q 735 941 751 925 q 719 979 719 957 q 735 1017 719 1001 q 774 1033 751 1033 q 813 1017 797 1033 q 828 979 828 1001 q 813 941 828 957 m 1256 819 l 1246 819 q 1132 738 1163 819 l 931 138 q 899 -17 900 50 l 885 -17 l 626 644 l 446 138 q 415 -17 418 51 l 403 -17 l 111 743 q 0 819 79 819 l -11 819 l -11 833 l 275 833 l 275 819 l 264 819 q 226 804 239 819 q 213 774 213 789 q 217 744 213 758 l 401 179 l 636 856 l 650 854 l 899 221 l 1054 736 q 1061 771 1061 756 q 1050 803 1061 786 q 1013 819 1039 819 l 1001 819 l 1001 833 l 1256 833 l 1256 819 z "},"Ỳ":{"ha":918,"x_min":-14,"x_max":933,"o":"m 482 1071 l 472 1061 q 249 1179 361 1114 q 306 1253 269 1218 q 482 1071 394 1168 m 933 958 l 914 958 q 835 935 872 958 q 774 878 799 913 l 500 433 l 500 101 q 526 40 500 65 q 589 14 551 14 l 606 14 l 606 0 l 303 0 l 303 14 l 321 14 q 383 39 357 14 q 410 100 408 64 l 410 435 l 144 878 q 85 935 124 911 q 6 958 47 958 l -14 958 l -14 972 l 328 972 l 328 958 l 310 958 q 263 931 279 958 q 254 901 254 915 q 261 872 254 886 l 469 483 l 692 874 q 699 901 699 886 q 689 931 699 915 q 642 958 672 958 l 625 958 l 625 972 l 933 972 l 933 958 z "},"ỳ":{"ha":889,"x_min":-7,"x_max":897,"o":"m 472 932 l 463 922 q 240 1040 351 975 q 297 1114 260 1079 q 472 932 385 1029 m 896 819 l 879 819 q 808 799 842 819 q 751 749 774 779 l 485 344 l 485 89 q 518 28 486 51 q 565 14 539 14 l 582 14 l 582 0 l 297 0 l 297 14 l 314 14 q 371 36 347 14 q 394 89 394 58 l 394 346 l 138 750 q 10 819 90 819 l -7 819 l -7 833 l 315 833 l 315 819 l 299 819 q 260 803 272 819 q 249 774 249 786 q 251 753 249 763 l 454 393 l 669 751 q 674 774 674 763 q 662 803 674 786 q 622 819 650 819 l 606 819 l 606 833 l 896 833 l 896 819 z "},"–":{"ha":694,"x_min":0,"x_max":694,"o":"m 0 376 l 0 432 l 694 432 l 694 376 l 0 376 z "},"—":{"ha":1111,"x_min":0,"x_max":1111,"o":"m 0 376 l 0 432 l 1111 432 l 1111 376 l 0 376 z "},"‘":{"ha":278,"x_min":64,"x_max":213,"o":"m 143 822 q 111 831 131 822 q 78 873 92 840 q 65 943 65 906 q 89 1018 65 981 q 208 1089 132 1086 l 211 1076 q 163 1047 181 1065 q 143 1008 146 1029 q 171 931 140 965 q 196 855 210 888 q 143 822 182 822 z "},"’":{"ha":278,"x_min":69,"x_max":210,"o":"m 69 842 q 122 878 108 854 q 136 914 136 901 q 107 982 136 949 q 83 1017 85 1007 q 86 1056 78 1038 q 133 1083 99 1083 q 193 1044 176 1083 q 210 968 210 1004 q 186 896 210 932 q 74 831 144 832 l 69 842 z "},"‚":{"ha":278,"x_min":65,"x_max":214,"o":"m 67 -124 q 122 -85 107 -110 q 136 -49 136 -61 q 106 24 136 -10 q 81 61 82 50 q 83 101 75 82 q 133 131 96 131 q 195 89 178 131 q 213 10 213 47 q 189 -65 213 -28 q 69 -135 146 -132 l 67 -124 z "},"“":{"ha":472,"x_min":64,"x_max":407,"o":"m 143 822 q 111 831 131 822 q 78 873 92 840 q 65 943 65 906 q 89 1018 65 981 q 208 1089 132 1086 l 211 1076 q 163 1047 181 1065 q 143 1008 146 1029 q 171 931 140 965 q 196 855 210 888 q 143 822 182 822 m 406 1076 q 351 1038 365 1063 q 336 1001 336 1014 q 365 931 336 963 q 390 854 404 888 q 339 822 376 822 q 277 864 294 822 q 260 943 260 906 q 283 1018 260 981 q 403 1089 326 1086 l 406 1076 z "},"”":{"ha":472,"x_min":69,"x_max":404,"o":"m 69 842 q 122 878 108 854 q 136 914 136 901 q 107 982 136 949 q 83 1017 85 1007 q 86 1056 78 1038 q 133 1083 99 1083 q 193 1044 176 1083 q 210 968 210 1004 q 186 896 210 932 q 74 831 144 832 l 69 842 m 264 842 q 317 878 303 854 q 331 914 331 901 q 301 982 331 949 q 278 1017 279 1007 q 281 1056 272 1038 q 328 1083 293 1083 q 388 1044 371 1083 q 404 968 404 1004 q 381 896 404 932 q 268 831 339 832 l 264 842 z "},"„":{"ha":472,"x_min":63,"x_max":399,"o":"m 75 88 q 81 108 75 96 q 102 128 86 119 q 127 136 118 136 q 146 136 136 136 q 173 124 156 136 q 203 81 190 111 q 217 10 217 50 q 192 -69 217 -29 q 67 -142 146 -139 l 63 -129 q 114 -99 96 -118 q 133 -58 132 -79 q 106 24 139 -12 q 75 88 71 63 m 263 104 q 318 138 278 138 q 351 128 331 138 q 385 83 371 118 q 399 22 399 49 q 340 -107 399 -60 q 250 -142 300 -140 l 246 -129 q 297 -99 279 -118 q 318 -58 315 -79 q 299 13 321 -15 q 288 26 296 17 q 276 39 279 35 q 267 52 272 43 q 260 68 261 61 q 263 104 256 86 z "},"†":{"ha":718,"x_min":56,"x_max":664,"o":"m 664 608 l 644 557 l 428 582 l 365 603 l 388 543 l 404 215 l 367 -250 l 353 -250 l 314 215 l 332 543 l 353 603 l 290 581 l 75 557 l 56 608 l 75 661 l 290 636 l 353 617 l 332 674 l 307 972 l 361 992 l 411 972 l 388 674 l 367 617 l 428 638 l 644 661 l 664 608 z "},"‡":{"ha":719,"x_min":56,"x_max":665,"o":"m 646 183 l 665 132 l 646 79 l 431 104 l 368 125 l 389 67 l 413 -232 l 360 -251 l 308 -232 l 333 67 l 354 125 l 292 104 l 76 79 l 57 132 l 76 183 l 292 160 l 354 139 l 333 197 l 308 371 l 332 543 l 353 603 l 290 581 l 75 557 l 56 608 l 75 661 l 290 636 l 353 617 l 332 674 l 307 972 l 361 992 l 411 972 l 388 674 l 367 617 l 428 638 l 644 661 l 664 608 l 644 557 l 428 582 l 365 603 l 388 543 l 413 371 l 389 197 l 368 139 l 431 160 l 646 183 z "},"•":{"ha":465,"x_min":97,"x_max":369,"o":"m 109 418 q 103 435 109 418 q 97 463 97 453 q 109 506 97 472 q 138 558 121 540 q 189 587 154 575 q 233 599 224 599 q 269 590 243 599 q 313 570 294 581 q 341 542 331 560 q 360 498 351 524 q 369 463 369 472 q 360 426 369 453 q 340 383 351 400 q 312 354 329 365 q 269 335 294 343 q 233 326 243 326 l 214 329 q 138 367 154 350 q 109 418 121 383 z "},"…":{"ha":792,"x_min":63,"x_max":729,"o":"m 169 13 q 160 3 169 13 q 125 -6 151 -6 q 81 13 99 -6 q 63 57 63 31 q 81 101 63 83 q 125 119 99 119 q 169 101 151 119 q 188 57 188 83 q 169 13 188 31 m 447 13 q 438 3 447 13 q 403 -6 429 -6 q 358 13 376 -6 q 340 57 340 31 q 358 101 340 83 q 403 119 376 119 q 447 101 429 119 q 465 57 465 83 q 447 13 465 31 m 711 13 q 702 3 711 13 q 667 -6 693 -6 q 622 13 640 -6 q 604 57 604 31 q 622 101 604 83 q 667 119 640 119 q 711 101 693 119 q 729 57 729 83 q 711 13 729 31 z "},"‰":{"ha":1410,"x_min":61,"x_max":1349,"o":"m 432 917 q 454 828 454 874 q 363 567 454 661 q 214 501 299 501 q 89 567 129 501 q 61 661 61 611 q 151 924 61 831 q 301 992 214 989 q 352 985 326 992 q 432 946 378 978 q 530 913 493 913 q 598 923 567 913 q 673 958 629 933 q 721 985 717 983 l 751 972 l 233 -15 l 199 0 l 693 939 q 673 928 688 936 q 651 917 658 921 q 628 906 644 914 q 605 897 613 899 q 580 890 597 894 q 552 886 563 885 q 522 886 542 888 q 432 917 485 889 m 374 746 q 382 833 382 793 q 371 906 382 874 q 296 964 350 964 q 176 863 222 964 q 133 663 133 769 q 144 588 133 618 q 219 529 165 529 q 315 588 274 529 q 374 746 356 646 m 588 404 q 738 471 653 471 q 863 404 822 471 q 890 311 890 360 q 800 47 890 140 q 650 -19 735 -19 q 525 47 565 -19 q 497 140 497 92 q 588 404 497 311 m 1046 404 q 1196 471 1111 471 q 1321 404 1281 471 q 1349 311 1349 360 q 1258 47 1349 140 q 1108 -19 1193 -19 q 983 47 1024 -19 q 956 140 956 92 q 1046 404 956 311 m 810 225 q 818 313 818 272 q 807 385 818 354 q 732 443 786 443 q 637 385 678 443 q 578 225 596 326 q 569 138 569 179 q 581 67 569 97 q 656 8 601 8 q 751 67 710 8 q 810 225 792 125 m 1268 225 q 1276 313 1276 272 q 1265 385 1276 354 q 1190 443 1244 443 q 1095 385 1136 443 q 1036 225 1054 326 q 1028 138 1028 179 q 1039 67 1028 97 q 1114 8 1060 8 q 1209 67 1168 8 q 1268 225 1250 125 z "},"‹":{"ha":393,"x_min":56,"x_max":311,"o":"m 299 681 l 310 674 l 146 406 l 311 132 l 299 125 l 56 406 l 299 681 z "},"›":{"ha":393,"x_min":83,"x_max":339,"o":"m 96 125 l 83 132 l 249 406 l 85 674 l 96 681 l 339 406 l 96 125 z "},"⁄":{"ha":753,"x_min":26,"x_max":726,"o":"m 692 992 l 725 968 l 63 -19 l 28 3 l 692 992 z "},"€":{"ha":1018,"x_min":-14,"x_max":950,"o":"m 643 -18 q 314 99 454 -18 q 142 394 174 215 l -14 394 l 1 436 l 135 436 q 133 485 133 461 q 135 533 133 510 l -14 533 l 1 575 l 140 575 q 312 874 171 756 q 643 992 453 992 q 947 910 879 992 l 903 776 l 889 776 q 892 813 892 794 q 881 858 892 832 q 845 903 871 885 q 782 932 819 921 q 643 950 721 950 q 382 844 493 950 q 244 575 271 738 l 835 575 l 819 533 l 239 533 q 238 485 238 510 q 239 436 238 461 l 786 436 l 772 394 l 244 394 q 384 128 274 232 q 634 24 494 24 q 845 69 774 24 q 935 214 917 114 l 949 214 l 947 68 q 822 3 906 25 q 643 -18 738 -18 z "},"™":{"ha":619,"x_min":14,"x_max":607,"o":"m 240 922 l 236 922 l 236 929 q 230 945 236 939 q 214 953 224 951 l 149 953 l 149 726 q 156 710 149 717 q 174 703 163 703 l 178 703 l 178 699 l 76 699 l 76 703 l 81 703 q 100 711 94 703 q 106 726 106 719 l 106 953 l 40 953 q 24 945 31 951 q 18 929 18 939 l 18 922 l 14 922 l 14 979 q 61 972 31 972 l 193 972 q 240 979 224 972 l 240 922 m 600 703 l 607 703 l 607 699 l 508 699 l 508 703 l 514 703 q 526 708 521 703 q 529 719 531 713 l 504 888 l 431 733 q 417 693 419 710 l 414 693 l 318 879 l 306 719 q 310 708 306 713 q 321 703 315 703 l 328 703 l 328 699 l 242 699 l 242 703 l 249 703 q 276 726 274 703 l 306 978 l 310 978 l 425 761 l 525 978 l 529 978 l 572 726 q 600 703 578 703 z "},"∂":{"ha":786,"x_min":82,"x_max":704,"o":"m 388 601 q 604 511 499 601 q 604 522 604 517 q 517 839 604 725 q 324 925 450 925 q 110 801 197 925 l 97 811 q 225 960 150 915 q 360 994 282 994 q 572 907 488 994 q 674 727 643 832 q 704 515 704 622 q 657 221 704 340 q 538 44 610 101 q 342 -19 457 -19 q 99 146 153 -19 q 83 249 83 194 q 99 360 83 304 q 147 464 114 417 q 339 596 218 567 q 388 601 363 601 m 604 492 q 417 549 501 549 q 285 496 342 549 q 192 321 219 436 q 181 235 181 272 q 247 57 181 114 q 346 21 289 21 q 519 147 449 21 q 603 463 589 272 l 604 492 z "},"∏":{"ha":1060,"x_min":75,"x_max":985,"o":"m 726 -264 q 781 -242 758 -264 q 804 -189 803 -221 l 804 856 q 781 908 803 886 q 729 931 760 931 l 332 931 q 280 909 301 931 q 257 857 258 888 l 257 -190 q 281 -242 258 -221 q 335 -264 303 -264 l 349 -264 l 350 -278 l 76 -278 l 76 -264 l 92 -264 q 158 -226 135 -264 q 168 -189 168 -210 l 168 883 q 129 949 168 926 q 92 958 113 958 l 76 958 l 76 972 l 985 972 l 985 958 l 969 958 q 917 937 939 958 q 893 885 894 915 l 893 -190 q 916 -242 893 -221 q 969 -264 939 -264 l 985 -264 l 985 -278 l 711 -278 l 713 -264 l 726 -264 z "},"∑":{"ha":882,"x_min":56,"x_max":835,"o":"m 56 -250 l 56 -236 l 422 350 l 64 958 l 64 972 l 622 972 q 731 982 683 972 q 792 997 778 992 l 792 822 l 778 824 l 778 847 q 754 906 778 882 q 697 931 731 929 l 183 931 l 500 388 l 160 -161 l 642 -161 q 725 -135 688 -158 q 821 13 793 -89 l 835 13 l 789 -250 l 56 -250 z "},"−":{"ha":668,"x_min":56,"x_max":614,"o":"m 56 399 l 56 461 l 614 461 l 614 399 l 56 399 z "},"√":{"ha":825,"x_min":26,"x_max":799,"o":"m 35 556 l 28 597 l 221 625 l 392 13 l 756 1171 l 797 1168 l 371 -204 l 149 572 l 35 556 z "},"∞":{"ha":824,"x_min":54,"x_max":825,"o":"m 439 365 q 347 268 404 307 q 220 229 289 229 q 103 281 151 229 q 56 411 56 332 q 104 543 56 490 q 217 596 153 596 q 340 558 282 596 q 440 464 397 521 q 540 558 482 521 q 662 596 597 596 q 775 543 726 596 q 824 411 824 490 q 776 281 824 332 q 658 229 728 229 q 531 269 589 229 q 439 365 474 308 m 118 413 q 118 387 118 413 q 150 325 118 361 q 228 289 182 289 q 321 325 274 289 q 401 414 368 361 q 225 536 310 536 q 150 500 182 536 q 118 413 118 464 m 478 414 q 559 324 513 358 q 652 289 606 289 q 730 325 699 289 q 761 403 761 361 q 747 474 761 446 q 708 519 732 503 q 654 536 683 536 q 478 414 569 536 z "},"∫":{"ha":611,"x_min":26,"x_max":571,"o":"m 311 1001 q 464 1101 354 1101 q 514 1092 482 1101 q 558 1062 546 1082 q 571 1024 571 1042 q 556 990 571 1007 q 517 972 540 972 q 484 983 494 972 q 466 1006 474 994 q 454 1026 458 1018 q 422 1047 443 1047 q 374 922 379 1047 q 326 30 332 103 q 313 -84 321 -43 q 286 -167 304 -125 q 143 -267 244 -267 q 75 -253 103 -267 q 28 -193 28 -229 q 43 -155 28 -172 q 81 -137 58 -137 q 115 -149 104 -137 q 132 -172 125 -160 q 144 -192 139 -183 q 176 -212 156 -212 q 225 -87 218 -212 q 271 806 267 732 q 311 1001 281 925 z "},"≈":{"ha":668,"x_min":56,"x_max":614,"o":"m 196 604 q 331 565 247 604 q 433 522 415 525 q 463 518 450 518 q 501 527 476 518 q 538 545 525 536 q 576 575 550 554 l 614 540 q 605 531 613 539 q 592 519 597 524 q 578 505 588 514 q 561 491 568 496 q 542 478 554 486 q 519 467 529 469 q 496 459 510 464 q 471 456 482 454 q 443 457 460 457 q 324 499 396 465 q 228 538 251 533 q 197 542 206 542 q 178 542 188 543 q 164 540 169 540 q 150 534 158 539 q 139 527 142 529 q 127 517 136 525 q 116 508 118 510 q 104 497 114 507 q 93 486 94 488 l 56 519 q 196 604 119 604 m 196 368 q 288 347 238 368 q 378 307 339 325 q 453 282 431 282 q 501 291 476 282 q 538 309 525 300 q 576 339 550 318 l 614 304 q 605 295 613 303 q 592 283 597 288 q 578 269 588 278 q 561 255 568 260 q 542 242 554 250 q 519 231 529 233 q 497 223 510 228 q 478 218 485 218 q 466 219 472 218 q 443 221 460 221 q 364 246 406 228 q 284 281 322 264 q 226 302 246 299 q 197 306 206 306 q 182 306 189 307 q 168 303 175 306 q 156 300 161 301 q 144 294 151 299 q 134 288 138 290 q 124 279 131 286 q 114 270 117 272 q 103 260 111 268 q 93 250 96 251 l 56 283 q 196 368 119 368 z "},"≠":{"ha":668,"x_min":56,"x_max":614,"o":"m 614 506 l 419 506 l 332 325 l 614 325 l 614 263 l 301 263 l 219 93 l 163 118 l 232 263 l 56 263 l 56 325 l 263 325 l 350 506 l 56 506 l 56 568 l 381 568 l 456 721 l 511 694 l 450 568 l 614 568 l 614 506 z "},"≤":{"ha":668,"x_min":56,"x_max":614,"o":"m 614 818 l 614 751 l 138 522 l 614 292 l 614 225 l 56 490 l 56 553 l 614 818 m 56 60 l 56 122 l 614 122 l 614 60 l 56 60 z "},"≥":{"ha":668,"x_min":56,"x_max":614,"o":"m 56 818 l 614 553 l 614 490 l 56 225 l 56 292 l 531 522 l 56 751 l 56 818 m 56 60 l 56 122 l 614 122 l 614 60 l 56 60 z "},"◊":{"ha":736,"x_min":68,"x_max":668,"o":"m 668 486 l 360 -19 l 69 486 l 360 992 l 668 486 m 129 486 l 360 76 l 608 486 l 360 896 l 129 486 z "},"ﬁ":{"ha":1193,"x_min":76,"x_max":1118,"o":"m 628 719 q 588 785 628 767 q 558 790 574 790 l 265 790 l 265 438 l 507 438 q 549 454 535 438 q 563 496 563 471 l 563 514 l 579 514 l 579 319 l 563 319 l 563 338 q 540 386 563 371 q 510 396 528 394 l 265 396 l 265 89 q 299 28 267 51 q 347 14 319 14 l 367 14 l 367 0 l 76 0 l 76 14 l 96 14 q 153 35 129 14 q 178 88 176 57 l 178 747 q 138 810 176 790 q 96 819 118 819 l 76 819 l 76 833 l 265 833 l 486 833 q 575 840 526 833 q 643 856 624 847 l 643 697 l 628 699 l 628 719 m 822 14 q 888 36 860 14 q 915 89 915 58 l 915 744 q 888 797 915 775 q 821 819 860 819 l 803 819 l 803 833 l 1117 833 l 1117 819 l 1099 819 q 1034 799 1061 819 q 1004 747 1007 778 l 1004 88 q 1033 35 1006 57 q 1099 14 1061 14 l 1117 14 l 1118 0 l 803 0 l 803 14 l 822 14 z "},"ﬂ":{"ha":1471,"x_min":76,"x_max":1444,"o":"m 628 719 q 588 785 628 767 q 558 790 574 790 l 265 790 l 265 438 l 507 438 q 549 454 535 438 q 563 496 563 471 l 563 514 l 579 514 l 579 319 l 563 319 l 563 338 q 540 386 563 371 q 510 396 528 394 l 265 396 l 265 89 q 299 28 267 51 q 347 14 319 14 l 367 14 l 367 0 l 76 0 l 76 14 l 96 14 q 153 35 129 14 q 178 88 176 57 l 178 747 q 138 810 176 790 q 96 819 118 819 l 76 819 l 76 833 l 265 833 l 486 833 q 575 840 526 833 q 643 856 624 847 l 643 697 l 628 699 l 628 719 m 822 14 q 878 35 856 14 q 903 88 901 57 l 903 744 q 877 797 901 775 q 819 819 853 819 l 803 819 l 803 833 l 1090 833 l 1090 819 l 1074 819 q 1016 797 1040 819 q 992 744 992 775 l 992 43 l 1208 43 q 1347 83 1300 43 q 1429 199 1394 122 l 1443 199 l 1367 0 l 803 0 l 803 14 l 822 14 z "}," ":{"ha":347,"x_min":0,"x_max":0,"o":""}}}
